<svg xmlns="http://www.w3.org/2000/svg" xmlns:xlink="http://www.w3.org/1999/xlink" contentStyleType="text/css" data-diagram-type="CLASS" height="762px" preserveAspectRatio="none" style="width:1724px;height:762px;background:#FFFFFF;" version="1.1" viewBox="0 0 1724 762" width="1724px" zoomAndPan="magnify"><defs/><g><!--class ConnectionType--><g id="elem_ConnectionType"><rect codeLine="5" fill="#F1F1F1" height="129.4844" id="ConnectionType" rx="2.5" ry="2.5" style="stroke:#181818;stroke-width:0.5;" width="145.5518" x="53" y="39.6"/><ellipse cx="68" cy="55.6" fill="#EB937F" rx="11" ry="11" style="stroke:#181818;stroke-width:1;"/><path d="M72.1094,61.6 L64.3906,61.6 L64.3906,49.2094 L72.1094,49.2094 L72.1094,51.3656 L66.8438,51.3656 L66.8438,54.0375 L71.6094,54.0375 L71.6094,56.1938 L66.8438,56.1938 L66.8438,59.4438 L72.1094,59.4438 L72.1094,61.6 Z " fill="#000000"/><text fill="#000000" font-family="sans-serif" font-size="14" lengthAdjust="spacing" textLength="113.5518" x="82" y="60.4467">ConnectionType</text><line style="stroke:#181818;stroke-width:0.5;" x1="54" x2="197.5518" y1="71.6" y2="71.6"/><text fill="#000000" font-family="sans-serif" font-size="14" lengthAdjust="spacing" textLength="29.6748" x="59" y="88.5951">WiFi</text><text fill="#000000" font-family="sans-serif" font-size="14" lengthAdjust="spacing" textLength="48.4805" x="59" y="104.892">Zigbee</text><text fill="#000000" font-family="sans-serif" font-size="14" lengthAdjust="spacing" textLength="53.9629" x="59" y="121.1889">Z-Wave</text><text fill="#000000" font-family="sans-serif" font-size="14" lengthAdjust="spacing" textLength="67.9629" x="59" y="137.4857">Bluetooth</text><text fill="#000000" font-family="sans-serif" font-size="14" lengthAdjust="spacing" textLength="60.5527" x="59" y="153.7826">Ethernet</text><line style="stroke:#181818;stroke-width:0.5;" x1="54" x2="197.5518" y1="161.0844" y2="161.0844"/></g><!--class PowerSource--><g id="elem_PowerSource"><rect codeLine="13" fill="#F1F1F1" height="113.1875" id="PowerSource" rx="2.5" ry="2.5" style="stroke:#181818;stroke-width:0.5;" width="123.2188" x="233.17" y="47.74"/><ellipse cx="248.17" cy="63.74" fill="#EB937F" rx="11" ry="11" style="stroke:#181818;stroke-width:1;"/><path d="M252.2794,69.74 L244.5606,69.74 L244.5606,57.3494 L252.2794,57.3494 L252.2794,59.5056 L247.0138,59.5056 L247.0138,62.1775 L251.7794,62.1775 L251.7794,64.3338 L247.0138,64.3338 L247.0138,67.5838 L252.2794,67.5838 L252.2794,69.74 Z " fill="#000000"/><text fill="#000000" font-family="sans-serif" font-size="14" lengthAdjust="spacing" textLength="91.2188" x="262.17" y="68.5867">PowerSource</text><line style="stroke:#181818;stroke-width:0.5;" x1="234.17" x2="355.3887" y1="79.74" y2="79.74"/><text fill="#000000" font-family="sans-serif" font-size="14" lengthAdjust="spacing" textLength="51.8164" x="239.17" y="96.7351">Battery</text><text fill="#000000" font-family="sans-serif" font-size="14" lengthAdjust="spacing" textLength="40.7148" x="239.17" y="113.032">Mains</text><text fill="#000000" font-family="sans-serif" font-size="14" lengthAdjust="spacing" textLength="35.6768" x="239.17" y="129.3289">Solar</text><text fill="#000000" font-family="sans-serif" font-size="14" lengthAdjust="spacing" textLength="39.751" x="239.17" y="145.6257">Other</text><line style="stroke:#181818;stroke-width:0.5;" x1="234.17" x2="355.3887" y1="152.9275" y2="152.9275"/></g><!--class MainNode--><g id="elem_MainNode"><rect codeLine="24" fill="#F1F1F1" height="194.6719" id="MainNode" rx="2.5" ry="2.5" style="stroke:#181818;stroke-width:0.5;" width="288.1035" x="991.72" y="7"/><ellipse cx="1096.5423" cy="23" fill="#ADD1B2" rx="11" ry="11" style="stroke:#181818;stroke-width:1;"/><path d="M1099.511,28.6406 Q1098.9329,28.9375 1098.2923,29.0781 Q1097.6516,29.2344 1096.9485,29.2344 Q1094.4485,29.2344 1093.1204,27.5938 Q1091.8079,25.9375 1091.8079,22.8125 Q1091.8079,19.6875 1093.1204,18.0313 Q1094.4485,16.375 1096.9485,16.375 Q1097.6516,16.375 1098.2923,16.5313 Q1098.9485,16.6875 1099.511,16.9844 L1099.511,19.7031 Q1098.886,19.125 1098.2923,18.8594 Q1097.6985,18.5781 1097.0735,18.5781 Q1095.7298,18.5781 1095.0423,19.6563 Q1094.3548,20.7188 1094.3548,22.8125 Q1094.3548,24.9063 1095.0423,25.9844 Q1095.7298,27.0469 1097.0735,27.0469 Q1097.6985,27.0469 1098.2923,26.7813 Q1098.886,26.5 1099.511,25.9219 L1099.511,28.6406 Z " fill="#000000"/><text fill="#000000" font-family="sans-serif" font-size="14" lengthAdjust="spacing" textLength="69.959" x="1117.0423" y="27.8467">MainNode</text><line style="stroke:#181818;stroke-width:0.5;" x1="992.72" x2="1278.8235" y1="39" y2="39"/><ellipse cx="1002.72" cy="52.6484" fill="none" rx="3" ry="3" style="stroke:#038048;stroke-width:1;"/><text fill="#000000" font-family="sans-serif" font-size="14" lengthAdjust="spacing" textLength="64.7363" x="1011.72" y="55.9951">UI Server</text><ellipse cx="1002.72" cy="68.9453" fill="none" rx="3" ry="3" style="stroke:#038048;stroke-width:1;"/><text fill="#000000" font-family="sans-serif" font-size="14" lengthAdjust="spacing" textLength="86.3857" x="1011.72" y="72.292">Data Logger</text><ellipse cx="1002.72" cy="85.2422" fill="none" rx="3" ry="3" style="stroke:#038048;stroke-width:1;"/><text fill="#000000" font-family="sans-serif" font-size="14" lengthAdjust="spacing" textLength="185.459" x="1011.72" y="88.5889">Software : Home Assistant</text><line style="stroke:#181818;stroke-width:0.5;" x1="992.72" x2="1278.8235" y1="95.8906" y2="95.8906"/><ellipse cx="1002.72" cy="109.5391" fill="#84BE84" rx="3" ry="3" style="stroke:#038048;stroke-width:1;"/><text fill="#000000" font-family="sans-serif" font-size="14" lengthAdjust="spacing" textLength="234.9854" x="1011.72" y="112.8857">addDevice(device : SmartDevice)</text><ellipse cx="1002.72" cy="125.8359" fill="#84BE84" rx="3" ry="3" style="stroke:#038048;stroke-width:1;"/><text fill="#000000" font-family="sans-serif" font-size="14" lengthAdjust="spacing" textLength="262.1035" x="1011.72" y="129.1826">removeDevice(device : SmartDevice)</text><ellipse cx="1002.72" cy="142.1328" fill="#84BE84" rx="3" ry="3" style="stroke:#038048;stroke-width:1;"/><text fill="#000000" font-family="sans-serif" font-size="14" lengthAdjust="spacing" textLength="168.4102" x="1011.72" y="145.4795">addRoom(room : Room)</text><ellipse cx="1002.72" cy="158.4297" fill="#84BE84" rx="3" ry="3" style="stroke:#038048;stroke-width:1;"/><text fill="#000000" font-family="sans-serif" font-size="14" lengthAdjust="spacing" textLength="195.5283" x="1011.72" y="161.7764">removeRoom(room : Room)</text><ellipse cx="1002.72" cy="174.7266" fill="#84BE84" rx="3" ry="3" style="stroke:#038048;stroke-width:1;"/><text fill="#000000" font-family="sans-serif" font-size="14" lengthAdjust="spacing" textLength="235.7441" x="1011.72" y="178.0732">pairDevice(device : SmartDevice)</text><ellipse cx="1002.72" cy="191.0234" fill="#84BE84" rx="3" ry="3" style="stroke:#038048;stroke-width:1;"/><text fill="#000000" font-family="sans-serif" font-size="14" lengthAdjust="spacing" textLength="253.4902" x="1011.72" y="194.3701">unpairDevice(device : SmartDevice)</text></g><!--class Room--><g id="elem_Room"><rect codeLine="36" fill="#F1F1F1" height="129.4844" id="Room" rx="2.5" ry="2.5" style="stroke:#181818;stroke-width:0.5;" width="288.1035" x="532.72" y="278.67"/><ellipse cx="652.2737" cy="294.67" fill="#ADD1B2" rx="11" ry="11" style="stroke:#181818;stroke-width:1;"/><path d="M655.2425,300.3106 Q654.6643,300.6075 654.0237,300.7481 Q653.3831,300.9044 652.68,300.9044 Q650.18,300.9044 648.8518,299.2638 Q647.5393,297.6075 647.5393,294.4825 Q647.5393,291.3575 648.8518,289.7013 Q650.18,288.045 652.68,288.045 Q653.3831,288.045 654.0237,288.2013 Q654.68,288.3575 655.2425,288.6544 L655.2425,291.3731 Q654.6175,290.795 654.0237,290.5294 Q653.43,290.2481 652.805,290.2481 Q651.4612,290.2481 650.7737,291.3263 Q650.0862,292.3888 650.0862,294.4825 Q650.0862,296.5763 650.7737,297.6544 Q651.4612,298.7169 652.805,298.7169 Q653.43,298.7169 654.0237,298.4513 Q654.6175,298.17 655.2425,297.5919 L655.2425,300.3106 Z " fill="#000000"/><text fill="#000000" font-family="sans-serif" font-size="14" lengthAdjust="spacing" textLength="40.4961" x="672.7737" y="299.5167">Room</text><line style="stroke:#181818;stroke-width:0.5;" x1="533.72" x2="819.8235" y1="310.67" y2="310.67"/><ellipse cx="543.72" cy="324.3184" fill="none" rx="3" ry="3" style="stroke:#038048;stroke-width:1;"/><text fill="#000000" font-family="sans-serif" font-size="14" lengthAdjust="spacing" textLength="132.8701" x="552.72" y="327.6651">nameLabel : String</text><ellipse cx="543.72" cy="340.6153" fill="none" rx="3" ry="3" style="stroke:#038048;stroke-width:1;"/><text fill="#000000" font-family="sans-serif" font-size="14" lengthAdjust="spacing" textLength="130.1084" x="552.72" y="343.962">miscStruct : String</text><ellipse cx="543.72" cy="356.9122" fill="none" rx="3" ry="3" style="stroke:#038048;stroke-width:1;"/><text fill="#000000" font-family="sans-serif" font-size="14" lengthAdjust="spacing" textLength="247.707" x="552.72" y="360.2589">smartDevices : List&lt;SmartDevice&gt;</text><line style="stroke:#181818;stroke-width:0.5;" x1="533.72" x2="819.8235" y1="367.5606" y2="367.5606"/><ellipse cx="543.72" cy="381.2091" fill="#84BE84" rx="3" ry="3" style="stroke:#038048;stroke-width:1;"/><text fill="#000000" font-family="sans-serif" font-size="14" lengthAdjust="spacing" textLength="234.9854" x="552.72" y="384.5557">addDevice(device : SmartDevice)</text><ellipse cx="543.72" cy="397.5059" fill="#84BE84" rx="3" ry="3" style="stroke:#038048;stroke-width:1;"/><text fill="#000000" font-family="sans-serif" font-size="14" lengthAdjust="spacing" textLength="262.1035" x="552.72" y="400.8526">removeDevice(device : SmartDevice)</text></g><!--class SmartDevice--><g id="elem_SmartDevice"><rect codeLine="44" fill="#F1F1F1" height="96.8906" id="SmartDevice" rx="2.5" ry="2.5" style="stroke:#181818;stroke-width:0.5;" width="312.5762" x="627.49" y="485.16"/><ellipse cx="734.4143" cy="501.16" fill="#ADD1B2" rx="11" ry="11" style="stroke:#181818;stroke-width:1;"/><path d="M737.3831,506.8006 Q736.8049,507.0975 736.1643,507.2381 Q735.5237,507.3944 734.8206,507.3944 Q732.3206,507.3944 730.9924,505.7538 Q729.6799,504.0975 729.6799,500.9725 Q729.6799,497.8475 730.9924,496.1913 Q732.3206,494.535 734.8206,494.535 Q735.5237,494.535 736.1643,494.6913 Q736.8206,494.8475 737.3831,495.1444 L737.3831,497.8631 Q736.7581,497.285 736.1643,497.0194 Q735.5706,496.7381 734.9456,496.7381 Q733.6018,496.7381 732.9143,497.8163 Q732.2268,498.8788 732.2268,500.9725 Q732.2268,503.0663 732.9143,504.1444 Q733.6018,505.2069 734.9456,505.2069 Q735.5706,505.2069 736.1643,504.9413 Q736.7581,504.66 737.3831,504.0819 L737.3831,506.8006 Z " fill="#000000"/><text fill="#000000" font-family="sans-serif" font-size="14" lengthAdjust="spacing" textLength="90.2275" x="754.9143" y="506.0067">SmartDevice</text><line style="stroke:#181818;stroke-width:0.5;" x1="628.49" x2="939.0662" y1="517.16" y2="517.16"/><ellipse cx="638.49" cy="530.8084" fill="none" rx="3" ry="3" style="stroke:#038048;stroke-width:1;"/><text fill="#000000" font-family="sans-serif" font-size="14" lengthAdjust="spacing" textLength="286.5762" x="647.49" y="534.1551">connectionType : List&lt;ConnectionType&gt;</text><ellipse cx="638.49" cy="547.1053" fill="none" rx="3" ry="3" style="stroke:#038048;stroke-width:1;"/><text fill="#000000" font-family="sans-serif" font-size="14" lengthAdjust="spacing" textLength="231.4307" x="647.49" y="550.452">poweredBy : List&lt;PowerSource&gt;</text><line style="stroke:#181818;stroke-width:0.5;" x1="628.49" x2="939.0662" y1="557.7538" y2="557.7538"/><ellipse cx="638.49" cy="571.4022" fill="#84BE84" rx="3" ry="3" style="stroke:#038048;stroke-width:1;"/><text fill="#000000" font-family="sans-serif" font-size="14" lengthAdjust="spacing" textLength="192.3428" x="647.49" y="574.7489">handleEvent(event : Event)</text></g><!--class SmartLight--><g id="elem_SmartLight"><rect codeLine="50" fill="#F1F1F1" height="48" id="SmartLight" rx="2.5" ry="2.5" style="stroke:#181818;stroke-width:0.5;" width="109.2871" x="219.13" y="683.49"/><ellipse cx="234.13" cy="699.49" fill="#ADD1B2" rx="11" ry="11" style="stroke:#181818;stroke-width:1;"/><path d="M237.0988,705.1306 Q236.5206,705.4275 235.88,705.5681 Q235.2394,705.7244 234.5363,705.7244 Q232.0363,705.7244 230.7081,704.0838 Q229.3956,702.4275 229.3956,699.3025 Q229.3956,696.1775 230.7081,694.5213 Q232.0363,692.865 234.5363,692.865 Q235.2394,692.865 235.88,693.0213 Q236.5363,693.1775 237.0988,693.4744 L237.0988,696.1931 Q236.4738,695.615 235.88,695.3494 Q235.2863,695.0681 234.6613,695.0681 Q233.3175,695.0681 232.63,696.1463 Q231.9425,697.2088 231.9425,699.3025 Q231.9425,701.3963 232.63,702.4744 Q233.3175,703.5369 234.6613,703.5369 Q235.2863,703.5369 235.88,703.2713 Q236.4738,702.99 237.0988,702.4119 L237.0988,705.1306 Z " fill="#000000"/><text fill="#000000" font-family="sans-serif" font-size="14" lengthAdjust="spacing" textLength="77.2871" x="248.13" y="704.3367">SmartLight</text><line style="stroke:#181818;stroke-width:0.5;" x1="220.13" x2="327.4171" y1="715.49" y2="715.49"/><line style="stroke:#181818;stroke-width:0.5;" x1="220.13" x2="327.4171" y1="723.49" y2="723.49"/></g><!--class SmartThermostat--><g id="elem_SmartThermostat"><rect codeLine="51" fill="#F1F1F1" height="48" id="SmartThermostat" rx="2.5" ry="2.5" style="stroke:#181818;stroke-width:0.5;" width="155.1973" x="363.18" y="683.49"/><ellipse cx="378.18" cy="699.49" fill="#ADD1B2" rx="11" ry="11" style="stroke:#181818;stroke-width:1;"/><path d="M381.1488,705.1306 Q380.5706,705.4275 379.93,705.5681 Q379.2894,705.7244 378.5863,705.7244 Q376.0863,705.7244 374.7581,704.0838 Q373.4456,702.4275 373.4456,699.3025 Q373.4456,696.1775 374.7581,694.5213 Q376.0863,692.865 378.5863,692.865 Q379.2894,692.865 379.93,693.0213 Q380.5863,693.1775 381.1488,693.4744 L381.1488,696.1931 Q380.5238,695.615 379.93,695.3494 Q379.3363,695.0681 378.7113,695.0681 Q377.3675,695.0681 376.68,696.1463 Q375.9925,697.2088 375.9925,699.3025 Q375.9925,701.3963 376.68,702.4744 Q377.3675,703.5369 378.7113,703.5369 Q379.3363,703.5369 379.93,703.2713 Q380.5238,702.99 381.1488,702.4119 L381.1488,705.1306 Z " fill="#000000"/><text fill="#000000" font-family="sans-serif" font-size="14" lengthAdjust="spacing" textLength="123.1973" x="392.18" y="704.3367">SmartThermostat</text><line style="stroke:#181818;stroke-width:0.5;" x1="364.18" x2="517.3773" y1="715.49" y2="715.49"/><line style="stroke:#181818;stroke-width:0.5;" x1="364.18" x2="517.3773" y1="723.49" y2="723.49"/></g><!--class SmartCamera--><g id="elem_SmartCamera"><rect codeLine="52" fill="#F1F1F1" height="48" id="SmartCamera" rx="2.5" ry="2.5" style="stroke:#181818;stroke-width:0.5;" width="129.2891" x="553.13" y="683.49"/><ellipse cx="568.13" cy="699.49" fill="#ADD1B2" rx="11" ry="11" style="stroke:#181818;stroke-width:1;"/><path d="M571.0988,705.1306 Q570.5206,705.4275 569.88,705.5681 Q569.2394,705.7244 568.5363,705.7244 Q566.0363,705.7244 564.7081,704.0838 Q563.3956,702.4275 563.3956,699.3025 Q563.3956,696.1775 564.7081,694.5213 Q566.0363,692.865 568.5363,692.865 Q569.2394,692.865 569.88,693.0213 Q570.5363,693.1775 571.0988,693.4744 L571.0988,696.1931 Q570.4738,695.615 569.88,695.3494 Q569.2863,695.0681 568.6613,695.0681 Q567.3175,695.0681 566.63,696.1463 Q565.9425,697.2088 565.9425,699.3025 Q565.9425,701.3963 566.63,702.4744 Q567.3175,703.5369 568.6613,703.5369 Q569.2863,703.5369 569.88,703.2713 Q570.4738,702.99 571.0988,702.4119 L571.0988,705.1306 Z " fill="#000000"/><text fill="#000000" font-family="sans-serif" font-size="14" lengthAdjust="spacing" textLength="97.2891" x="582.13" y="704.3367">SmartCamera</text><line style="stroke:#181818;stroke-width:0.5;" x1="554.13" x2="681.4191" y1="715.49" y2="715.49"/><line style="stroke:#181818;stroke-width:0.5;" x1="554.13" x2="681.4191" y1="723.49" y2="723.49"/></g><!--class SmartSpeaker--><g id="elem_SmartSpeaker"><rect codeLine="53" fill="#F1F1F1" height="48" id="SmartSpeaker" rx="2.5" ry="2.5" style="stroke:#181818;stroke-width:0.5;" width="131.791" x="717.88" y="683.49"/><ellipse cx="732.88" cy="699.49" fill="#ADD1B2" rx="11" ry="11" style="stroke:#181818;stroke-width:1;"/><path d="M735.8488,705.1306 Q735.2706,705.4275 734.63,705.5681 Q733.9894,705.7244 733.2863,705.7244 Q730.7863,705.7244 729.4581,704.0838 Q728.1456,702.4275 728.1456,699.3025 Q728.1456,696.1775 729.4581,694.5213 Q730.7863,692.865 733.2863,692.865 Q733.9894,692.865 734.63,693.0213 Q735.2863,693.1775 735.8488,693.4744 L735.8488,696.1931 Q735.2238,695.615 734.63,695.3494 Q734.0363,695.0681 733.4113,695.0681 Q732.0675,695.0681 731.38,696.1463 Q730.6925,697.2088 730.6925,699.3025 Q730.6925,701.3963 731.38,702.4744 Q732.0675,703.5369 733.4113,703.5369 Q734.0363,703.5369 734.63,703.2713 Q735.2238,702.99 735.8488,702.4119 L735.8488,705.1306 Z " fill="#000000"/><text fill="#000000" font-family="sans-serif" font-size="14" lengthAdjust="spacing" textLength="99.791" x="746.88" y="704.3367">SmartSpeaker</text><line style="stroke:#181818;stroke-width:0.5;" x1="718.88" x2="848.671" y1="715.49" y2="715.49"/><line style="stroke:#181818;stroke-width:0.5;" x1="718.88" x2="848.671" y1="723.49" y2="723.49"/></g><!--class SmartPlug--><g id="elem_SmartPlug"><rect codeLine="54" fill="#F1F1F1" height="48" id="SmartPlug" rx="2.5" ry="2.5" style="stroke:#181818;stroke-width:0.5;" width="104.4404" x="884.56" y="683.49"/><ellipse cx="899.56" cy="699.49" fill="#ADD1B2" rx="11" ry="11" style="stroke:#181818;stroke-width:1;"/><path d="M902.5288,705.1306 Q901.9506,705.4275 901.31,705.5681 Q900.6694,705.7244 899.9663,705.7244 Q897.4663,705.7244 896.1381,704.0838 Q894.8256,702.4275 894.8256,699.3025 Q894.8256,696.1775 896.1381,694.5213 Q897.4663,692.865 899.9663,692.865 Q900.6694,692.865 901.31,693.0213 Q901.9663,693.1775 902.5288,693.4744 L902.5288,696.1931 Q901.9038,695.615 901.31,695.3494 Q900.7163,695.0681 900.0913,695.0681 Q898.7475,695.0681 898.06,696.1463 Q897.3725,697.2088 897.3725,699.3025 Q897.3725,701.3963 898.06,702.4744 Q898.7475,703.5369 900.0913,703.5369 Q900.7163,703.5369 901.31,703.2713 Q901.9038,702.99 902.5288,702.4119 L902.5288,705.1306 Z " fill="#000000"/><text fill="#000000" font-family="sans-serif" font-size="14" lengthAdjust="spacing" textLength="72.4404" x="913.56" y="704.3367">SmartPlug</text><line style="stroke:#181818;stroke-width:0.5;" x1="885.56" x2="988.0004" y1="715.49" y2="715.49"/><line style="stroke:#181818;stroke-width:0.5;" x1="885.56" x2="988.0004" y1="723.49" y2="723.49"/></g><!--class SmartVacuum--><g id="elem_SmartVacuum"><rect codeLine="55" fill="#F1F1F1" height="48" id="SmartVacuum" rx="2.5" ry="2.5" style="stroke:#181818;stroke-width:0.5;" width="131.5859" x="1023.98" y="683.49"/><ellipse cx="1038.98" cy="699.49" fill="#ADD1B2" rx="11" ry="11" style="stroke:#181818;stroke-width:1;"/><path d="M1041.9488,705.1306 Q1041.3706,705.4275 1040.73,705.5681 Q1040.0894,705.7244 1039.3863,705.7244 Q1036.8863,705.7244 1035.5581,704.0838 Q1034.2456,702.4275 1034.2456,699.3025 Q1034.2456,696.1775 1035.5581,694.5213 Q1036.8863,692.865 1039.3863,692.865 Q1040.0894,692.865 1040.73,693.0213 Q1041.3863,693.1775 1041.9488,693.4744 L1041.9488,696.1931 Q1041.3238,695.615 1040.73,695.3494 Q1040.1363,695.0681 1039.5113,695.0681 Q1038.1675,695.0681 1037.48,696.1463 Q1036.7925,697.2088 1036.7925,699.3025 Q1036.7925,701.3963 1037.48,702.4744 Q1038.1675,703.5369 1039.5113,703.5369 Q1040.1363,703.5369 1040.73,703.2713 Q1041.3238,702.99 1041.9488,702.4119 L1041.9488,705.1306 Z " fill="#000000"/><text fill="#000000" font-family="sans-serif" font-size="14" lengthAdjust="spacing" textLength="99.5859" x="1052.98" y="704.3367">SmartVacuum</text><line style="stroke:#181818;stroke-width:0.5;" x1="1024.98" x2="1154.5659" y1="715.49" y2="715.49"/><line style="stroke:#181818;stroke-width:0.5;" x1="1024.98" x2="1154.5659" y1="723.49" y2="723.49"/></g><!--class HomeAssistant--><g id="elem_HomeAssistant"><rect codeLine="57" fill="#F1F1F1" height="48" id="HomeAssistant" rx="2.5" ry="2.5" style="stroke:#181818;stroke-width:0.5;" width="137.123" x="1000.21" y="319.42"/><ellipse cx="1015.21" cy="335.42" fill="#ADD1B2" rx="11" ry="11" style="stroke:#181818;stroke-width:1;"/><path d="M1018.1788,341.0606 Q1017.6006,341.3575 1016.96,341.4981 Q1016.3194,341.6544 1015.6163,341.6544 Q1013.1163,341.6544 1011.7881,340.0138 Q1010.4756,338.3575 1010.4756,335.2325 Q1010.4756,332.1075 1011.7881,330.4513 Q1013.1163,328.795 1015.6163,328.795 Q1016.3194,328.795 1016.96,328.9513 Q1017.6163,329.1075 1018.1788,329.4044 L1018.1788,332.1231 Q1017.5538,331.545 1016.96,331.2794 Q1016.3663,330.9981 1015.7413,330.9981 Q1014.3975,330.9981 1013.71,332.0763 Q1013.0225,333.1388 1013.0225,335.2325 Q1013.0225,337.3263 1013.71,338.4044 Q1014.3975,339.4669 1015.7413,339.4669 Q1016.3663,339.4669 1016.96,339.2013 Q1017.5538,338.92 1018.1788,338.3419 L1018.1788,341.0606 Z " fill="#000000"/><text fill="#000000" font-family="sans-serif" font-size="14" lengthAdjust="spacing" textLength="105.123" x="1029.21" y="340.2667">HomeAssistant</text><line style="stroke:#181818;stroke-width:0.5;" x1="1001.21" x2="1136.333" y1="351.42" y2="351.42"/><line style="stroke:#181818;stroke-width:0.5;" x1="1001.21" x2="1136.333" y1="359.42" y2="359.42"/></g><!--class DataLogger--><g id="elem_DataLogger"><rect codeLine="61" fill="#F1F1F1" height="48" id="DataLogger" rx="2.5" ry="2.5" style="stroke:#181818;stroke-width:0.5;" width="113.9355" x="1172.81" y="319.42"/><ellipse cx="1187.81" cy="335.42" fill="#ADD1B2" rx="11" ry="11" style="stroke:#181818;stroke-width:1;"/><path d="M1190.7788,341.0606 Q1190.2006,341.3575 1189.56,341.4981 Q1188.9194,341.6544 1188.2163,341.6544 Q1185.7163,341.6544 1184.3881,340.0138 Q1183.0756,338.3575 1183.0756,335.2325 Q1183.0756,332.1075 1184.3881,330.4513 Q1185.7163,328.795 1188.2163,328.795 Q1188.9194,328.795 1189.56,328.9513 Q1190.2163,329.1075 1190.7788,329.4044 L1190.7788,332.1231 Q1190.1538,331.545 1189.56,331.2794 Q1188.9663,330.9981 1188.3413,330.9981 Q1186.9975,330.9981 1186.31,332.0763 Q1185.6225,333.1388 1185.6225,335.2325 Q1185.6225,337.3263 1186.31,338.4044 Q1186.9975,339.4669 1188.3413,339.4669 Q1188.9663,339.4669 1189.56,339.2013 Q1190.1538,338.92 1190.7788,338.3419 L1190.7788,341.0606 Z " fill="#000000"/><text fill="#000000" font-family="sans-serif" font-size="14" lengthAdjust="spacing" textLength="81.9355" x="1201.81" y="340.2667">DataLogger</text><line style="stroke:#181818;stroke-width:0.5;" x1="1173.81" x2="1285.7455" y1="351.42" y2="351.42"/><line style="stroke:#181818;stroke-width:0.5;" x1="1173.81" x2="1285.7455" y1="359.42" y2="359.42"/></g><!--class PhoneApp--><g id="elem_PhoneApp"><rect codeLine="65" fill="#F1F1F1" height="80.5938" id="PhoneApp" rx="2.5" ry="2.5" style="stroke:#181818;stroke-width:0.5;" width="323.3359" x="1322.11" y="303.12"/><ellipse cx="1444.1691" cy="319.12" fill="#ADD1B2" rx="11" ry="11" style="stroke:#181818;stroke-width:1;"/><path d="M1447.1378,324.7606 Q1446.5597,325.0575 1445.9191,325.1981 Q1445.2785,325.3544 1444.5753,325.3544 Q1442.0753,325.3544 1440.7472,323.7138 Q1439.4347,322.0575 1439.4347,318.9325 Q1439.4347,315.8075 1440.7472,314.1513 Q1442.0753,312.495 1444.5753,312.495 Q1445.2785,312.495 1445.9191,312.6513 Q1446.5753,312.8075 1447.1378,313.1044 L1447.1378,315.8231 Q1446.5128,315.245 1445.9191,314.9794 Q1445.3253,314.6981 1444.7003,314.6981 Q1443.3566,314.6981 1442.6691,315.7763 Q1441.9816,316.8388 1441.9816,318.9325 Q1441.9816,321.0263 1442.6691,322.1044 Q1443.3566,323.1669 1444.7003,323.1669 Q1445.3253,323.1669 1445.9191,322.9013 Q1446.5128,322.62 1447.1378,322.0419 L1447.1378,324.7606 Z " fill="#000000"/><text fill="#000000" font-family="sans-serif" font-size="14" lengthAdjust="spacing" textLength="70.7178" x="1464.6691" y="323.9667">PhoneApp</text><line style="stroke:#181818;stroke-width:0.5;" x1="1323.11" x2="1644.4459" y1="335.12" y2="335.12"/><line style="stroke:#181818;stroke-width:0.5;" x1="1323.11" x2="1644.4459" y1="343.12" y2="343.12"/><ellipse cx="1333.11" cy="356.7684" fill="#84BE84" rx="3" ry="3" style="stroke:#038048;stroke-width:1;"/><text fill="#000000" font-family="sans-serif" font-size="14" lengthAdjust="spacing" textLength="297.3359" x="1342.11" y="360.1151">transmitCommand(command : Command)</text><ellipse cx="1333.11" cy="373.0653" fill="#84BE84" rx="3" ry="3" style="stroke:#038048;stroke-width:1;"/><text fill="#000000" font-family="sans-serif" font-size="14" lengthAdjust="spacing" textLength="275.1943" x="1342.11" y="376.412">receiveFeedback(feedback : Feedback)</text></g><!--class Human--><g id="elem_Human"><rect codeLine="70" fill="#F1F1F1" height="96.8906" id="Human" rx="2.5" ry="2.5" style="stroke:#181818;stroke-width:0.5;" width="297.9951" x="1419.78" y="55.89"/><ellipse cx="1539.2824" cy="71.89" fill="#ADD1B2" rx="11" ry="11" style="stroke:#181818;stroke-width:1;"/><path d="M1542.2512,77.5306 Q1541.6731,77.8275 1541.0324,77.9681 Q1540.3918,78.1244 1539.6887,78.1244 Q1537.1887,78.1244 1535.8606,76.4838 Q1534.5481,74.8275 1534.5481,71.7025 Q1534.5481,68.5775 1535.8606,66.9213 Q1537.1887,65.265 1539.6887,65.265 Q1540.3918,65.265 1541.0324,65.4213 Q1541.6887,65.5775 1542.2512,65.8744 L1542.2512,68.5931 Q1541.6262,68.015 1541.0324,67.7494 Q1540.4387,67.4681 1539.8137,67.4681 Q1538.4699,67.4681 1537.7824,68.5463 Q1537.0949,69.6088 1537.0949,71.7025 Q1537.0949,73.7963 1537.7824,74.8744 Q1538.4699,75.9369 1539.8137,75.9369 Q1540.4387,75.9369 1541.0324,75.6713 Q1541.6262,75.39 1542.2512,74.8119 L1542.2512,77.5306 Z " fill="#000000"/><text fill="#000000" font-family="sans-serif" font-size="14" lengthAdjust="spacing" textLength="50.4902" x="1559.7824" y="76.7367">Human</text><line style="stroke:#181818;stroke-width:0.5;" x1="1420.78" x2="1716.7751" y1="87.89" y2="87.89"/><ellipse cx="1430.78" cy="101.5384" fill="none" rx="3" ry="3" style="stroke:#038048;stroke-width:1;"/><text fill="#000000" font-family="sans-serif" font-size="14" lengthAdjust="spacing" textLength="95.1016" x="1439.78" y="104.8851">name : String</text><ellipse cx="1430.78" cy="117.8353" fill="none" rx="3" ry="3" style="stroke:#038048;stroke-width:1;"/><text fill="#000000" font-family="sans-serif" font-size="14" lengthAdjust="spacing" textLength="128.1465" x="1439.78" y="121.182">phone : PhoneApp</text><line style="stroke:#181818;stroke-width:0.5;" x1="1420.78" x2="1716.7751" y1="128.4838" y2="128.4838"/><ellipse cx="1430.78" cy="142.1322" fill="#84BE84" rx="3" ry="3" style="stroke:#038048;stroke-width:1;"/><text fill="#000000" font-family="sans-serif" font-size="14" lengthAdjust="spacing" textLength="271.9951" x="1439.78" y="145.4789">sendCommand(command : Command)</text></g><!--class Event--><g id="elem_Event"><rect codeLine="76" fill="#F1F1F1" height="96.8906" id="Event" rx="2.5" ry="2.5" style="stroke:#181818;stroke-width:0.5;" width="282.6143" x="1190.47" y="659.05"/><ellipse cx="1307.4739" cy="675.05" fill="#ADD1B2" rx="11" ry="11" style="stroke:#181818;stroke-width:1;"/><path d="M1310.4427,680.6906 Q1309.8645,680.9875 1309.2239,681.1281 Q1308.5833,681.2844 1307.8802,681.2844 Q1305.3802,681.2844 1304.052,679.6438 Q1302.7395,677.9875 1302.7395,674.8625 Q1302.7395,671.7375 1304.052,670.0813 Q1305.3802,668.425 1307.8802,668.425 Q1308.5833,668.425 1309.2239,668.5813 Q1309.8802,668.7375 1310.4427,669.0344 L1310.4427,671.7531 Q1309.8177,671.175 1309.2239,670.9094 Q1308.6302,670.6281 1308.0052,670.6281 Q1306.6614,670.6281 1305.9739,671.7063 Q1305.2864,672.7688 1305.2864,674.8625 Q1305.2864,676.9563 1305.9739,678.0344 Q1306.6614,679.0969 1308.0052,679.0969 Q1308.6302,679.0969 1309.2239,678.8313 Q1309.8177,678.55 1310.4427,677.9719 L1310.4427,680.6906 Z " fill="#000000"/><text fill="#000000" font-family="sans-serif" font-size="14" lengthAdjust="spacing" textLength="40.1064" x="1327.9739" y="679.8967">Event</text><line style="stroke:#181818;stroke-width:0.5;" x1="1191.47" x2="1472.0843" y1="691.05" y2="691.05"/><text fill="#000000" font-family="sans-serif" font-size="14" lengthAdjust="spacing" textLength="200.0059" x="1196.47" y="708.0451">Represents events triggered</text><text fill="#000000" font-family="sans-serif" font-size="14" lengthAdjust="spacing" textLength="120.1074" x="1196.47" y="724.342">by smart devices</text><line style="stroke:#181818;stroke-width:0.5;" x1="1191.47" x2="1472.0843" y1="731.6438" y2="731.6438"/><text fill="#000000" font-family="sans-serif" font-size="14" lengthAdjust="spacing" textLength="270.6143" x="1196.47" y="748.6389">(e.g., motion detected, door unlocked)</text></g><!--class Command--><g id="elem_Command"><rect codeLine="82" fill="#F1F1F1" height="96.8906" id="Command" rx="2.5" ry="2.5" style="stroke:#181818;stroke-width:0.5;" width="237.5518" x="7" y="294.97"/><ellipse cx="85.5483" cy="310.97" fill="#ADD1B2" rx="11" ry="11" style="stroke:#181818;stroke-width:1;"/><path d="M88.5171,316.6106 Q87.939,316.9075 87.2983,317.0481 Q86.6577,317.2044 85.9546,317.2044 Q83.4546,317.2044 82.1265,315.5638 Q80.814,313.9075 80.814,310.7825 Q80.814,307.6575 82.1265,306.0013 Q83.4546,304.345 85.9546,304.345 Q86.6577,304.345 87.2983,304.5013 Q87.9546,304.6575 88.5171,304.9544 L88.5171,307.6731 Q87.8921,307.095 87.2983,306.8294 Q86.7046,306.5481 86.0796,306.5481 Q84.7358,306.5481 84.0483,307.6263 Q83.3608,308.6888 83.3608,310.7825 Q83.3608,312.8763 84.0483,313.9544 Q84.7358,315.0169 86.0796,315.0169 Q86.7046,315.0169 87.2983,314.7513 Q87.8921,314.47 88.5171,313.8919 L88.5171,316.6106 Z " fill="#000000"/><text fill="#000000" font-family="sans-serif" font-size="14" lengthAdjust="spacing" textLength="71.9551" x="106.0483" y="315.8167">Command</text><line style="stroke:#181818;stroke-width:0.5;" x1="8" x2="243.5518" y1="326.97" y2="326.97"/><text fill="#000000" font-family="sans-serif" font-size="14" lengthAdjust="spacing" textLength="201.2363" x="13" y="343.9651">Represents a command sent</text><text fill="#000000" font-family="sans-serif" font-size="14" lengthAdjust="spacing" textLength="225.5518" x="13" y="360.262">from the Human via Middleware</text><text fill="#000000" font-family="sans-serif" font-size="14" lengthAdjust="spacing" textLength="120.3398" x="13" y="376.5589">to the Main Node</text><line style="stroke:#181818;stroke-width:0.5;" x1="8" x2="243.5518" y1="383.8606" y2="383.8606"/></g><!--class Feedback--><g id="elem_Feedback"><rect codeLine="88" fill="#F1F1F1" height="96.8906" id="Feedback" rx="2.5" ry="2.5" style="stroke:#181818;stroke-width:0.5;" width="218.7188" x="279.42" y="294.97"/><ellipse cx="350.8111" cy="310.97" fill="#ADD1B2" rx="11" ry="11" style="stroke:#181818;stroke-width:1;"/><path d="M353.7799,316.6106 Q353.2017,316.9075 352.5611,317.0481 Q351.9205,317.2044 351.2174,317.2044 Q348.7174,317.2044 347.3892,315.5638 Q346.0767,313.9075 346.0767,310.7825 Q346.0767,307.6575 347.3892,306.0013 Q348.7174,304.345 351.2174,304.345 Q351.9205,304.345 352.5611,304.5013 Q353.2174,304.6575 353.7799,304.9544 L353.7799,307.6731 Q353.1549,307.095 352.5611,306.8294 Q351.9674,306.5481 351.3424,306.5481 Q349.9986,306.5481 349.3111,307.6263 Q348.6236,308.6888 348.6236,310.7825 Q348.6236,312.8763 349.3111,313.9544 Q349.9986,315.0169 351.3424,315.0169 Q351.9674,315.0169 352.5611,314.7513 Q353.1549,314.47 353.7799,313.8919 L353.7799,316.6106 Z " fill="#000000"/><text fill="#000000" font-family="sans-serif" font-size="14" lengthAdjust="spacing" textLength="67.4365" x="371.3111" y="315.8167">Feedback</text><line style="stroke:#181818;stroke-width:0.5;" x1="280.42" x2="497.1388" y1="326.97" y2="326.97"/><text fill="#000000" font-family="sans-serif" font-size="14" lengthAdjust="spacing" textLength="182.6426" x="285.42" y="343.9651">Represents feedback sent</text><text fill="#000000" font-family="sans-serif" font-size="14" lengthAdjust="spacing" textLength="139.1729" x="285.42" y="360.262">from the Main Node</text><text fill="#000000" font-family="sans-serif" font-size="14" lengthAdjust="spacing" textLength="206.7188" x="285.42" y="376.5589">to the Human via Middleware</text><line style="stroke:#181818;stroke-width:0.5;" x1="280.42" x2="497.1388" y1="383.8606" y2="383.8606"/></g><!--link MainNode to Room--><g id="link_MainNode_Room"><path codeLine="99" d="M991.5,143.26 C927.17,163.83 852.21,193.07 790.78,231.67 C770.33,244.52 750.55,261.52 733.36,278.34 " fill="none" id="MainNode-Room" style="stroke:#181818;stroke-width:1;"/><polygon fill="#000000" points="791.3499,242.5546,800.7266,240.9649,798.0014,235.757,791.3499,242.5546" style="stroke:#000000;stroke-width:1;"/><text fill="#000000" font-family="sans-serif" font-size="13" lengthAdjust="spacing" textLength="59.8584" x="804.78" y="244.7369">manages</text><text fill="#000000" font-family="sans-serif" font-size="13" lengthAdjust="spacing" textLength="6.5" x="733.2486" y="267.4766">*</text></g><!--link MainNode to SmartDevice--><g id="link_MainNode_SmartDevice"><path codeLine="100" d="M991.23,199.68 C961.65,223.17 932.39,249.95 908.78,278.67 C894.64,295.87 837.86,416.01 805.91,484.7 " fill="none" id="MainNode-SmartDevice" style="stroke:#181818;stroke-width:1;"/><polygon fill="#000000" points="911.0545,347.6782,918.4489,341.6972,913.5211,338.4931,911.0545,347.6782" style="stroke:#000000;stroke-width:1;"/><text fill="#000000" font-family="sans-serif" font-size="13" lengthAdjust="spacing" textLength="59.8584" x="922.78" y="347.9869">manages</text><text fill="#000000" font-family="sans-serif" font-size="13" lengthAdjust="spacing" textLength="6.5" x="802.5144" y="474.1964">*</text></g><!--reverse link MainNode to HomeAssistant--><g id="link_MainNode_HomeAssistant"><path codeLine="101" d="M1097.069,213.2679 C1093.859,223.2879 1094.47,221.94 1091.78,231.67 C1083.5,261.58 1076.68,296.75 1072.67,319.3 " fill="none" id="MainNode-backto-HomeAssistant" style="stroke:#181818;stroke-width:1;"/><polygon fill="#181818" points="1100.73,201.84,1095.0902,206.3336,1097.069,213.2679,1102.7088,208.7743,1100.73,201.84" style="stroke:#181818;stroke-width:1;"/><polygon fill="#000000" points="1095.6588,245.1091,1100.5512,236.9534,1094.823,235.6353,1095.6588,245.1091" style="stroke:#000000;stroke-width:1;"/><text fill="#000000" font-family="sans-serif" font-size="13" lengthAdjust="spacing" textLength="53.8726" x="1105.78" y="244.7369">includes</text></g><!--reverse link MainNode to DataLogger--><g id="link_MainNode_DataLogger"><path codeLine="102" d="M1178.5636,213.2649 C1195.6236,256.2849 1209.83,292.11 1220.62,319.33 " fill="none" id="MainNode-backto-DataLogger" style="stroke:#181818;stroke-width:1;"/><polygon fill="#181818" points="1174.14,202.11,1172.6335,209.162,1178.5636,213.2649,1180.0701,206.2129,1174.14,202.11" style="stroke:#181818;stroke-width:1;"/><polygon fill="#000000" points="1198.623,244.8844,1198.021,235.3929,1192.557,237.5594,1198.623,244.8844" style="stroke:#000000;stroke-width:1;"/><text fill="#000000" font-family="sans-serif" font-size="13" lengthAdjust="spacing" textLength="53.8726" x="1205.78" y="244.7369">includes</text></g><!--reverse link MainNode to PhoneApp--><g id="link_MainNode_PhoneApp"><path codeLine="103" d="M1254.4837,209.6171 C1274.7537,225.9071 1286.81,234.57 1307.78,248.67 C1336.93,268.28 1370.64,287.08 1400.7,302.63 " fill="none" id="MainNode-backto-PhoneApp" style="stroke:#181818;stroke-width:1;"/><polygon fill="#181818" points="1245.13,202.1,1247.3012,208.9765,1254.4837,209.6171,1252.3126,202.7407,1245.13,202.1" style="stroke:#181818;stroke-width:1;"/><polygon fill="#000000" points="1316.9987,242.9201,1310.9444,235.5855,1307.7895,240.545,1316.9987,242.9201" style="stroke:#000000;stroke-width:1;"/><text fill="#000000" font-family="sans-serif" font-size="13" lengthAdjust="spacing" textLength="53.8726" x="1321.78" y="244.7369">includes</text></g><!--link PhoneApp to MainNode--><g id="link_PhoneApp_MainNode"><path codeLine="121" d="M1452.42,302.84 C1433.11,280.15 1406.92,252.19 1379.78,231.67 C1349.33,208.66 1314.09,187.7 1280.02,169.74 " fill="none" id="PhoneApp-MainNode" style="stroke:#181818;stroke-width:1;"/><polygon fill="#000000" points="1400.8223,237.1809,1406.1859,245.0347,1409.7779,240.3821,1400.8223,237.1809" style="stroke:#000000;stroke-width:1;"/><text fill="#000000" font-family="sans-serif" font-size="13" lengthAdjust="spacing" textLength="95.5005" x="1413.78" y="244.7369">communicates</text></g><!--reverse link Room to SmartDevice--><g id="link_Room_SmartDevice"><path codeLine="106" d="M719.2316,419.0815 C733.4016,444.0015 743.4,461.6 756.54,484.7 " fill="none" id="Room-backto-SmartDevice" style="stroke:#181818;stroke-width:1;"/><polygon fill="#181818" points="713.3,408.65,712.7886,415.8429,719.2316,419.0815,719.743,411.8886,713.3,408.65" style="stroke:#181818;stroke-width:1;"/><polygon fill="#000000" points="744.2513,451.073,742.3355,441.7574,737.2258,444.6626,744.2513,451.073" style="stroke:#000000;stroke-width:1;"/><text fill="#000000" font-family="sans-serif" font-size="13" lengthAdjust="spacing" textLength="55.0278" x="750.78" y="451.2269">contains</text><text fill="#000000" font-family="sans-serif" font-size="13" lengthAdjust="spacing" textLength="6.5" x="746.5104" y="474.1964">*</text></g><!--reverse link SmartDevice to SmartLight--><g id="link_SmartDevice_SmartLight"><path codeLine="109" d="M609.6303,571.0141 C524.2103,591.5841 435.43,617.96 345.78,659.05 C331.62,665.54 317.09,674.58 304.81,683.04 " fill="none" id="SmartDevice-backto-SmartLight" style="stroke:#181818;stroke-width:1;"/><polygon fill="none" points="627.13,566.8,608.2255,565.1809,611.035,576.8474,627.13,566.8" style="stroke:#181818;stroke-width:1;"/></g><!--reverse link SmartDevice to SmartThermostat--><g id="link_SmartDevice_SmartThermostat"><path codeLine="110" d="M672.1377,590.5546 C606.7277,623.3346 538.93,657.31 487.55,683.05 " fill="none" id="SmartDevice-backto-SmartThermostat" style="stroke:#181818;stroke-width:1;"/><polygon fill="none" points="688.23,582.49,669.4495,585.1905,674.8259,595.9187,688.23,582.49" style="stroke:#181818;stroke-width:1;"/></g><!--reverse link SmartDevice to SmartCamera--><g id="link_SmartDevice_SmartCamera"><path codeLine="111" d="M725.0352,595.4372 C693.3752,628.2172 665.28,657.31 640.41,683.05 " fill="none" id="SmartDevice-backto-SmartCamera" style="stroke:#181818;stroke-width:1;"/><polygon fill="none" points="737.54,582.49,720.7195,591.2689,729.3509,599.6055,737.54,582.49" style="stroke:#181818;stroke-width:1;"/></g><!--reverse link SmartDevice to SmartSpeaker--><g id="link_SmartDevice_SmartSpeaker"><path codeLine="112" d="M783.78,600.49 C783.78,633.27 783.78,657.31 783.78,683.05 " fill="none" id="SmartDevice-backto-SmartSpeaker" style="stroke:#181818;stroke-width:1;"/><polygon fill="none" points="783.78,582.49,777.78,600.49,789.78,600.49,783.78,582.49" style="stroke:#181818;stroke-width:1;"/></g><!--reverse link SmartDevice to SmartPlug--><g id="link_SmartDevice_SmartPlug"><path codeLine="113" d="M838.3582,595.9348 C867.5382,628.7148 892.99,657.31 915.91,683.05 " fill="none" id="SmartDevice-backto-SmartPlug" style="stroke:#181818;stroke-width:1;"/><polygon fill="none" points="826.39,582.49,833.8766,599.9242,842.8398,591.9454,826.39,582.49" style="stroke:#181818;stroke-width:1;"/></g><!--reverse link SmartDevice to SmartVacuum--><g id="link_SmartDevice_SmartVacuum"><path codeLine="114" d="M885.6578,591.1641 C927.0878,614.2241 961.71,633.59 1006.78,659.05 C1020.51,666.8 1035.47,675.34 1048.87,683 " fill="none" id="SmartDevice-backto-SmartVacuum" style="stroke:#181818;stroke-width:1;"/><polygon fill="none" points="869.93,582.41,882.7398,596.4068,888.5759,585.9215,869.93,582.41" style="stroke:#181818;stroke-width:1;"/></g><!--link SmartDevice to Event--><g id="link_SmartDevice_Event"><path codeLine="117" d="M936.42,582.49 C1015.92,607.42 1112.48,637.71 1190.28,662.11 " fill="none" id="SmartDevice-Event" style="stroke:#181818;stroke-width:1;"/><polygon fill="#000000" points="1084.5509,622.1127,1076.7998,616.6016,1075.0408,622.2101,1084.5509,622.1127" style="stroke:#000000;stroke-width:1;"/><text fill="#000000" font-family="sans-serif" font-size="13" lengthAdjust="spacing" textLength="50.6733" x="1088.78" y="625.1169">triggers</text><text fill="#000000" font-family="sans-serif" font-size="13" lengthAdjust="spacing" textLength="6.5" x="1175.9407" y="656.1233">*</text></g><!--link Human to PhoneApp--><g id="link_Human_PhoneApp"><path codeLine="120" d="M1558.18,153.19 C1551.34,181.4 1541.52,217.55 1529.78,248.67 C1522.86,266.99 1513.59,286.54 1505.19,303.02 " fill="none" id="Human-PhoneApp" style="stroke:#181818;stroke-width:1;"/><polygon fill="#000000" points="1539.1129,244.9503,1544.8995,237.4027,1539.358,235.4429,1539.1129,244.9503" style="stroke:#000000;stroke-width:1;"/><text fill="#000000" font-family="sans-serif" font-size="13" lengthAdjust="spacing" textLength="29.7832" x="1549.78" y="244.7369">uses</text></g><!--SRC=[hLLVJzim47_lfx1uQSU03r0n95gAG2eRecn8UtFjQsAHs97j15KRttrdnquT2D1foqDYt_ryTxu_lup9btUVqPZ4Po7h4ZIrGac3uW_EZG3XPAwa1EQEt6yh8Bz6pj23k1H-yLDaQu1sUVn0ctOvAsgmIjdSxnOs1ot1Zfw3oLlr17gbQisYlHcr5lJMhs-emEZSQgKAgltgcpFXpe_tlom-yu8Q0_jSbJcaT_rLyHZLP_Bzcgn0Dw33_e9QIfOgoph9Icti4zL0fkHAbK3EZH76Kcc3dd9-0OrWCE7-WxXLIRLjXPy2IaEf6jW3YERkb2ed6b-8SEk-ZRUq5HLw3_kr_13u7BFbp7UPahI49Lr3uU1M2va5HIaCGq7Dx4kDsLarg5jYtauJJsV_EuDTu8cqYv_rspo4qs_-657b-XVuR1jXIKD7J4ubBs3HWBGJS6_4-jtBE9OYosqgkCTMBnNsK4ywfsvoKycg0lg8VPY8ReiwI_S_AAlhChfp_TcrPxZucDo0pHKt1ECbE8LQh6kBzM1KaZKG3XiX0JM6I00EV1UzcuLs5FxTrcsk99nNLLSEgwaqfR1pLPPeRSBQBoOnI7PrPo0Qk4I3QyeU9vkmG6IK9Hc_gl5ihsTVDcNb8a5XZ2ZsAaZ-JYoT0r_YuE0EAWruq1hYEy3WhOJB5-R00zRRTWO83qFWfHCuoKwEIAbSsw7AOWC2Fo9SAOtpMIZs2AdB4CHhfvJ4IDtUQpSQHnQvD2IY4PJS28wDwYdCGwpo04U5n77Xpb7CP_2KkkgoxhQjdPslpbHG10z38VmbnTz1qVxCSb7jm_BZ7SFZ82Wcmg-manuVauF3WvRPfWJZencMvUmL86MGGTmX0llpDYL2igBcht798BqDwYQa1y4R-LYn1ofbXBlDo0iE1mD5ahFkxzgUJ7NN4bb7OA0CHgdyz3SQIdXgM9TGrZ0WiDUmCXBPiDPpsh0gqbl_AjXUxHGc9UuP2AbP15OEGncIqdQb6vekuwcTLjslHsryBJe9QhlIJVqCrb8mwfZmx0y0]--></g></svg>