<svg xmlns="http://www.w3.org/2000/svg" xmlns:xlink="http://www.w3.org/1999/xlink" contentStyleType="text/css" data-diagram-type="CLASS" height="1127px" preserveAspectRatio="none" style="width:1728px;height:1127px;background:#FFFFFF;" version="1.1" viewBox="0 0 1728 1127" width="1728px" zoomAndPan="magnify"><defs/><g><!--class ConnectionType--><g id="elem_ConnectionType"><rect codeLine="5" fill="#F1F1F1" height="129.4844" id="ConnectionType" rx="2.5" ry="2.5" style="stroke:#181818;stroke-width:0.5;" width="145.5518" x="1142.87" y="7"/><ellipse cx="1157.87" cy="23" fill="#EB937F" rx="11" ry="11" style="stroke:#181818;stroke-width:1;"/><path d="M1161.9794,29 L1154.2606,29 L1154.2606,16.6094 L1161.9794,16.6094 L1161.9794,18.7656 L1156.7138,18.7656 L1156.7138,21.4375 L1161.4794,21.4375 L1161.4794,23.5938 L1156.7138,23.5938 L1156.7138,26.8438 L1161.9794,26.8438 L1161.9794,29 Z " fill="#000000"/><text fill="#000000" font-family="sans-serif" font-size="14" lengthAdjust="spacing" textLength="113.5518" x="1171.87" y="27.8467">ConnectionType</text><line style="stroke:#181818;stroke-width:0.5;" x1="1143.87" x2="1287.4218" y1="39" y2="39"/><text fill="#000000" font-family="sans-serif" font-size="14" lengthAdjust="spacing" textLength="29.6748" x="1148.87" y="55.9951">WiFi</text><text fill="#000000" font-family="sans-serif" font-size="14" lengthAdjust="spacing" textLength="48.4805" x="1148.87" y="72.292">Zigbee</text><text fill="#000000" font-family="sans-serif" font-size="14" lengthAdjust="spacing" textLength="53.9629" x="1148.87" y="88.5889">Z-Wave</text><text fill="#000000" font-family="sans-serif" font-size="14" lengthAdjust="spacing" textLength="67.9629" x="1148.87" y="104.8857">Bluetooth</text><text fill="#000000" font-family="sans-serif" font-size="14" lengthAdjust="spacing" textLength="60.5527" x="1148.87" y="121.1826">Ethernet</text><line style="stroke:#181818;stroke-width:0.5;" x1="1143.87" x2="1287.4218" y1="128.4844" y2="128.4844"/></g><!--class PowerSource--><g id="elem_PowerSource"><rect codeLine="13" fill="#F1F1F1" height="113.1875" id="PowerSource" rx="2.5" ry="2.5" style="stroke:#181818;stroke-width:0.5;" width="123.2188" x="1323.03" y="15.15"/><ellipse cx="1338.03" cy="31.15" fill="#EB937F" rx="11" ry="11" style="stroke:#181818;stroke-width:1;"/><path d="M1342.1394,37.15 L1334.4206,37.15 L1334.4206,24.7594 L1342.1394,24.7594 L1342.1394,26.9156 L1336.8738,26.9156 L1336.8738,29.5875 L1341.6394,29.5875 L1341.6394,31.7438 L1336.8738,31.7438 L1336.8738,34.9938 L1342.1394,34.9938 L1342.1394,37.15 Z " fill="#000000"/><text fill="#000000" font-family="sans-serif" font-size="14" lengthAdjust="spacing" textLength="91.2188" x="1352.03" y="35.9967">PowerSource</text><line style="stroke:#181818;stroke-width:0.5;" x1="1324.03" x2="1445.2488" y1="47.15" y2="47.15"/><text fill="#000000" font-family="sans-serif" font-size="14" lengthAdjust="spacing" textLength="51.8164" x="1329.03" y="64.1451">Battery</text><text fill="#000000" font-family="sans-serif" font-size="14" lengthAdjust="spacing" textLength="40.7148" x="1329.03" y="80.442">Mains</text><text fill="#000000" font-family="sans-serif" font-size="14" lengthAdjust="spacing" textLength="35.6768" x="1329.03" y="96.7389">Solar</text><text fill="#000000" font-family="sans-serif" font-size="14" lengthAdjust="spacing" textLength="39.751" x="1329.03" y="113.0357">Other</text><line style="stroke:#181818;stroke-width:0.5;" x1="1324.03" x2="1445.2488" y1="120.3375" y2="120.3375"/></g><!--class MainNode--><g id="elem_MainNode"><rect codeLine="24" fill="#F1F1F1" height="194.6719" id="MainNode" rx="2.5" ry="2.5" style="stroke:#181818;stroke-width:0.5;" width="288.1035" x="623.59" y="371.08"/><ellipse cx="728.4123" cy="387.08" fill="#ADD1B2" rx="11" ry="11" style="stroke:#181818;stroke-width:1;"/><path d="M731.381,392.7206 Q730.8029,393.0175 730.1623,393.1581 Q729.5216,393.3144 728.8185,393.3144 Q726.3185,393.3144 724.9904,391.6737 Q723.6779,390.0175 723.6779,386.8925 Q723.6779,383.7675 724.9904,382.1112 Q726.3185,380.455 728.8185,380.455 Q729.5216,380.455 730.1623,380.6112 Q730.8185,380.7675 731.381,381.0644 L731.381,383.7831 Q730.756,383.205 730.1623,382.9394 Q729.5685,382.6581 728.9435,382.6581 Q727.5998,382.6581 726.9123,383.7362 Q726.2248,384.7987 726.2248,386.8925 Q726.2248,388.9862 726.9123,390.0644 Q727.5998,391.1269 728.9435,391.1269 Q729.5685,391.1269 730.1623,390.8612 Q730.756,390.58 731.381,390.0019 L731.381,392.7206 Z " fill="#000000"/><text fill="#000000" font-family="sans-serif" font-size="14" lengthAdjust="spacing" textLength="69.959" x="748.9123" y="391.9267">MainNode</text><line style="stroke:#181818;stroke-width:0.5;" x1="624.59" x2="910.6935" y1="403.08" y2="403.08"/><ellipse cx="634.59" cy="416.7284" fill="none" rx="3" ry="3" style="stroke:#038048;stroke-width:1;"/><text fill="#000000" font-family="sans-serif" font-size="14" lengthAdjust="spacing" textLength="64.7363" x="643.59" y="420.0751">UI Server</text><ellipse cx="634.59" cy="433.0253" fill="none" rx="3" ry="3" style="stroke:#038048;stroke-width:1;"/><text fill="#000000" font-family="sans-serif" font-size="14" lengthAdjust="spacing" textLength="86.3857" x="643.59" y="436.372">Data Logger</text><ellipse cx="634.59" cy="449.3222" fill="none" rx="3" ry="3" style="stroke:#038048;stroke-width:1;"/><text fill="#000000" font-family="sans-serif" font-size="14" lengthAdjust="spacing" textLength="185.459" x="643.59" y="452.6689">Software : Home Assistant</text><line style="stroke:#181818;stroke-width:0.5;" x1="624.59" x2="910.6935" y1="459.9706" y2="459.9706"/><ellipse cx="634.59" cy="473.6191" fill="#84BE84" rx="3" ry="3" style="stroke:#038048;stroke-width:1;"/><text fill="#000000" font-family="sans-serif" font-size="14" lengthAdjust="spacing" textLength="234.9854" x="643.59" y="476.9657">addDevice(device : SmartDevice)</text><ellipse cx="634.59" cy="489.9159" fill="#84BE84" rx="3" ry="3" style="stroke:#038048;stroke-width:1;"/><text fill="#000000" font-family="sans-serif" font-size="14" lengthAdjust="spacing" textLength="262.1035" x="643.59" y="493.2626">removeDevice(device : SmartDevice)</text><ellipse cx="634.59" cy="506.2128" fill="#84BE84" rx="3" ry="3" style="stroke:#038048;stroke-width:1;"/><text fill="#000000" font-family="sans-serif" font-size="14" lengthAdjust="spacing" textLength="168.4102" x="643.59" y="509.5595">addRoom(room : Room)</text><ellipse cx="634.59" cy="522.5097" fill="#84BE84" rx="3" ry="3" style="stroke:#038048;stroke-width:1;"/><text fill="#000000" font-family="sans-serif" font-size="14" lengthAdjust="spacing" textLength="195.5283" x="643.59" y="525.8564">removeRoom(room : Room)</text><ellipse cx="634.59" cy="538.8066" fill="#84BE84" rx="3" ry="3" style="stroke:#038048;stroke-width:1;"/><text fill="#000000" font-family="sans-serif" font-size="14" lengthAdjust="spacing" textLength="235.7441" x="643.59" y="542.1532">pairDevice(device : SmartDevice)</text><ellipse cx="634.59" cy="555.1034" fill="#84BE84" rx="3" ry="3" style="stroke:#038048;stroke-width:1;"/><text fill="#000000" font-family="sans-serif" font-size="14" lengthAdjust="spacing" textLength="253.4902" x="643.59" y="558.4501">unpairDevice(device : SmartDevice)</text></g><!--class Room--><g id="elem_Room"><rect codeLine="36" fill="#F1F1F1" height="129.4844" id="Room" rx="2.5" ry="2.5" style="stroke:#181818;stroke-width:0.5;" width="288.1035" x="320.59" y="642.75"/><ellipse cx="440.1437" cy="658.75" fill="#ADD1B2" rx="11" ry="11" style="stroke:#181818;stroke-width:1;"/><path d="M443.1125,664.3906 Q442.5343,664.6875 441.8937,664.8281 Q441.2531,664.9844 440.55,664.9844 Q438.05,664.9844 436.7218,663.3438 Q435.4093,661.6875 435.4093,658.5625 Q435.4093,655.4375 436.7218,653.7813 Q438.05,652.125 440.55,652.125 Q441.2531,652.125 441.8937,652.2813 Q442.55,652.4375 443.1125,652.7344 L443.1125,655.4531 Q442.4875,654.875 441.8937,654.6094 Q441.3,654.3281 440.675,654.3281 Q439.3312,654.3281 438.6437,655.4063 Q437.9562,656.4688 437.9562,658.5625 Q437.9562,660.6563 438.6437,661.7344 Q439.3312,662.7969 440.675,662.7969 Q441.3,662.7969 441.8937,662.5313 Q442.4875,662.25 443.1125,661.6719 L443.1125,664.3906 Z " fill="#000000"/><text fill="#000000" font-family="sans-serif" font-size="14" lengthAdjust="spacing" textLength="40.4961" x="460.6437" y="663.5967">Room</text><line style="stroke:#181818;stroke-width:0.5;" x1="321.59" x2="607.6935" y1="674.75" y2="674.75"/><ellipse cx="331.59" cy="688.3984" fill="none" rx="3" ry="3" style="stroke:#038048;stroke-width:1;"/><text fill="#000000" font-family="sans-serif" font-size="14" lengthAdjust="spacing" textLength="132.8701" x="340.59" y="691.7451">nameLabel : String</text><ellipse cx="331.59" cy="704.6953" fill="none" rx="3" ry="3" style="stroke:#038048;stroke-width:1;"/><text fill="#000000" font-family="sans-serif" font-size="14" lengthAdjust="spacing" textLength="130.1084" x="340.59" y="708.042">miscStruct : String</text><ellipse cx="331.59" cy="720.9922" fill="none" rx="3" ry="3" style="stroke:#038048;stroke-width:1;"/><text fill="#000000" font-family="sans-serif" font-size="14" lengthAdjust="spacing" textLength="247.707" x="340.59" y="724.3389">smartDevices : List&lt;SmartDevice&gt;</text><line style="stroke:#181818;stroke-width:0.5;" x1="321.59" x2="607.6935" y1="731.6406" y2="731.6406"/><ellipse cx="331.59" cy="745.2891" fill="#84BE84" rx="3" ry="3" style="stroke:#038048;stroke-width:1;"/><text fill="#000000" font-family="sans-serif" font-size="14" lengthAdjust="spacing" textLength="234.9854" x="340.59" y="748.6357">addDevice(device : SmartDevice)</text><ellipse cx="331.59" cy="761.5859" fill="#84BE84" rx="3" ry="3" style="stroke:#038048;stroke-width:1;"/><text fill="#000000" font-family="sans-serif" font-size="14" lengthAdjust="spacing" textLength="262.1035" x="340.59" y="764.9326">removeDevice(device : SmartDevice)</text></g><!--class SmartDevice--><g id="elem_SmartDevice"><rect codeLine="44" fill="#F1F1F1" height="96.8906" id="SmartDevice" rx="2.5" ry="2.5" style="stroke:#181818;stroke-width:0.5;" width="312.5762" x="415.36" y="849.24"/><ellipse cx="522.2843" cy="865.24" fill="#ADD1B2" rx="11" ry="11" style="stroke:#181818;stroke-width:1;"/><path d="M525.2531,870.8806 Q524.6749,871.1775 524.0343,871.3181 Q523.3937,871.4744 522.6906,871.4744 Q520.1906,871.4744 518.8624,869.8338 Q517.5499,868.1775 517.5499,865.0525 Q517.5499,861.9275 518.8624,860.2713 Q520.1906,858.615 522.6906,858.615 Q523.3937,858.615 524.0343,858.7713 Q524.6906,858.9275 525.2531,859.2244 L525.2531,861.9431 Q524.6281,861.365 524.0343,861.0994 Q523.4406,860.8181 522.8156,860.8181 Q521.4718,860.8181 520.7843,861.8963 Q520.0968,862.9588 520.0968,865.0525 Q520.0968,867.1463 520.7843,868.2244 Q521.4718,869.2869 522.8156,869.2869 Q523.4406,869.2869 524.0343,869.0213 Q524.6281,868.74 525.2531,868.1619 L525.2531,870.8806 Z " fill="#000000"/><text fill="#000000" font-family="sans-serif" font-size="14" lengthAdjust="spacing" textLength="90.2275" x="542.7843" y="870.0867">SmartDevice</text><line style="stroke:#181818;stroke-width:0.5;" x1="416.36" x2="726.9362" y1="881.24" y2="881.24"/><ellipse cx="426.36" cy="894.8884" fill="none" rx="3" ry="3" style="stroke:#038048;stroke-width:1;"/><text fill="#000000" font-family="sans-serif" font-size="14" lengthAdjust="spacing" textLength="286.5762" x="435.36" y="898.2351">connectionType : List&lt;ConnectionType&gt;</text><ellipse cx="426.36" cy="911.1853" fill="none" rx="3" ry="3" style="stroke:#038048;stroke-width:1;"/><text fill="#000000" font-family="sans-serif" font-size="14" lengthAdjust="spacing" textLength="231.4307" x="435.36" y="914.532">poweredBy : List&lt;PowerSource&gt;</text><line style="stroke:#181818;stroke-width:0.5;" x1="416.36" x2="726.9362" y1="921.8338" y2="921.8338"/><ellipse cx="426.36" cy="935.4822" fill="#84BE84" rx="3" ry="3" style="stroke:#038048;stroke-width:1;"/><text fill="#000000" font-family="sans-serif" font-size="14" lengthAdjust="spacing" textLength="192.3428" x="435.36" y="938.8289">handleEvent(event : Event)</text></g><!--class SmartLight--><g id="elem_SmartLight"><rect codeLine="50" fill="#F1F1F1" height="48" id="SmartLight" rx="2.5" ry="2.5" style="stroke:#181818;stroke-width:0.5;" width="109.2871" x="7" y="1047.57"/><ellipse cx="22" cy="1063.57" fill="#ADD1B2" rx="11" ry="11" style="stroke:#181818;stroke-width:1;"/><path d="M24.9688,1069.2106 Q24.3906,1069.5075 23.75,1069.6481 Q23.1094,1069.8044 22.4063,1069.8044 Q19.9063,1069.8044 18.5781,1068.1638 Q17.2656,1066.5075 17.2656,1063.3825 Q17.2656,1060.2575 18.5781,1058.6013 Q19.9063,1056.945 22.4063,1056.945 Q23.1094,1056.945 23.75,1057.1013 Q24.4063,1057.2575 24.9688,1057.5544 L24.9688,1060.2731 Q24.3438,1059.695 23.75,1059.4294 Q23.1563,1059.1481 22.5313,1059.1481 Q21.1875,1059.1481 20.5,1060.2263 Q19.8125,1061.2888 19.8125,1063.3825 Q19.8125,1065.4763 20.5,1066.5544 Q21.1875,1067.6169 22.5313,1067.6169 Q23.1563,1067.6169 23.75,1067.3513 Q24.3438,1067.07 24.9688,1066.4919 L24.9688,1069.2106 Z " fill="#000000"/><text fill="#000000" font-family="sans-serif" font-size="14" lengthAdjust="spacing" textLength="77.2871" x="36" y="1068.4167">SmartLight</text><line style="stroke:#181818;stroke-width:0.5;" x1="8" x2="115.2871" y1="1079.57" y2="1079.57"/><line style="stroke:#181818;stroke-width:0.5;" x1="8" x2="115.2871" y1="1087.57" y2="1087.57"/></g><!--class SmartThermostat--><g id="elem_SmartThermostat"><rect codeLine="51" fill="#F1F1F1" height="48" id="SmartThermostat" rx="2.5" ry="2.5" style="stroke:#181818;stroke-width:0.5;" width="155.1973" x="151.04" y="1047.57"/><ellipse cx="166.04" cy="1063.57" fill="#ADD1B2" rx="11" ry="11" style="stroke:#181818;stroke-width:1;"/><path d="M169.0088,1069.2106 Q168.4306,1069.5075 167.79,1069.6481 Q167.1494,1069.8044 166.4463,1069.8044 Q163.9463,1069.8044 162.6181,1068.1638 Q161.3056,1066.5075 161.3056,1063.3825 Q161.3056,1060.2575 162.6181,1058.6013 Q163.9463,1056.945 166.4463,1056.945 Q167.1494,1056.945 167.79,1057.1013 Q168.4463,1057.2575 169.0088,1057.5544 L169.0088,1060.2731 Q168.3838,1059.695 167.79,1059.4294 Q167.1963,1059.1481 166.5713,1059.1481 Q165.2275,1059.1481 164.54,1060.2263 Q163.8525,1061.2888 163.8525,1063.3825 Q163.8525,1065.4763 164.54,1066.5544 Q165.2275,1067.6169 166.5713,1067.6169 Q167.1963,1067.6169 167.79,1067.3513 Q168.3838,1067.07 169.0088,1066.4919 L169.0088,1069.2106 Z " fill="#000000"/><text fill="#000000" font-family="sans-serif" font-size="14" lengthAdjust="spacing" textLength="123.1973" x="180.04" y="1068.4167">SmartThermostat</text><line style="stroke:#181818;stroke-width:0.5;" x1="152.04" x2="305.2373" y1="1079.57" y2="1079.57"/><line style="stroke:#181818;stroke-width:0.5;" x1="152.04" x2="305.2373" y1="1087.57" y2="1087.57"/></g><!--class SmartCamera--><g id="elem_SmartCamera"><rect codeLine="52" fill="#F1F1F1" height="48" id="SmartCamera" rx="2.5" ry="2.5" style="stroke:#181818;stroke-width:0.5;" width="129.2891" x="341" y="1047.57"/><ellipse cx="356" cy="1063.57" fill="#ADD1B2" rx="11" ry="11" style="stroke:#181818;stroke-width:1;"/><path d="M358.9688,1069.2106 Q358.3906,1069.5075 357.75,1069.6481 Q357.1094,1069.8044 356.4063,1069.8044 Q353.9063,1069.8044 352.5781,1068.1638 Q351.2656,1066.5075 351.2656,1063.3825 Q351.2656,1060.2575 352.5781,1058.6013 Q353.9063,1056.945 356.4063,1056.945 Q357.1094,1056.945 357.75,1057.1013 Q358.4063,1057.2575 358.9688,1057.5544 L358.9688,1060.2731 Q358.3438,1059.695 357.75,1059.4294 Q357.1563,1059.1481 356.5313,1059.1481 Q355.1875,1059.1481 354.5,1060.2263 Q353.8125,1061.2888 353.8125,1063.3825 Q353.8125,1065.4763 354.5,1066.5544 Q355.1875,1067.6169 356.5313,1067.6169 Q357.1563,1067.6169 357.75,1067.3513 Q358.3438,1067.07 358.9688,1066.4919 L358.9688,1069.2106 Z " fill="#000000"/><text fill="#000000" font-family="sans-serif" font-size="14" lengthAdjust="spacing" textLength="97.2891" x="370" y="1068.4167">SmartCamera</text><line style="stroke:#181818;stroke-width:0.5;" x1="342" x2="469.2891" y1="1079.57" y2="1079.57"/><line style="stroke:#181818;stroke-width:0.5;" x1="342" x2="469.2891" y1="1087.57" y2="1087.57"/></g><!--class SmartSpeaker--><g id="elem_SmartSpeaker"><rect codeLine="53" fill="#F1F1F1" height="48" id="SmartSpeaker" rx="2.5" ry="2.5" style="stroke:#181818;stroke-width:0.5;" width="131.791" x="505.75" y="1047.57"/><ellipse cx="520.75" cy="1063.57" fill="#ADD1B2" rx="11" ry="11" style="stroke:#181818;stroke-width:1;"/><path d="M523.7188,1069.2106 Q523.1406,1069.5075 522.5,1069.6481 Q521.8594,1069.8044 521.1563,1069.8044 Q518.6563,1069.8044 517.3281,1068.1638 Q516.0156,1066.5075 516.0156,1063.3825 Q516.0156,1060.2575 517.3281,1058.6013 Q518.6563,1056.945 521.1563,1056.945 Q521.8594,1056.945 522.5,1057.1013 Q523.1563,1057.2575 523.7188,1057.5544 L523.7188,1060.2731 Q523.0938,1059.695 522.5,1059.4294 Q521.9063,1059.1481 521.2813,1059.1481 Q519.9375,1059.1481 519.25,1060.2263 Q518.5625,1061.2888 518.5625,1063.3825 Q518.5625,1065.4763 519.25,1066.5544 Q519.9375,1067.6169 521.2813,1067.6169 Q521.9063,1067.6169 522.5,1067.3513 Q523.0938,1067.07 523.7188,1066.4919 L523.7188,1069.2106 Z " fill="#000000"/><text fill="#000000" font-family="sans-serif" font-size="14" lengthAdjust="spacing" textLength="99.791" x="534.75" y="1068.4167">SmartSpeaker</text><line style="stroke:#181818;stroke-width:0.5;" x1="506.75" x2="636.541" y1="1079.57" y2="1079.57"/><line style="stroke:#181818;stroke-width:0.5;" x1="506.75" x2="636.541" y1="1087.57" y2="1087.57"/></g><!--class SmartPlug--><g id="elem_SmartPlug"><rect codeLine="54" fill="#F1F1F1" height="48" id="SmartPlug" rx="2.5" ry="2.5" style="stroke:#181818;stroke-width:0.5;" width="104.4404" x="672.42" y="1047.57"/><ellipse cx="687.42" cy="1063.57" fill="#ADD1B2" rx="11" ry="11" style="stroke:#181818;stroke-width:1;"/><path d="M690.3888,1069.2106 Q689.8106,1069.5075 689.17,1069.6481 Q688.5294,1069.8044 687.8263,1069.8044 Q685.3263,1069.8044 683.9981,1068.1638 Q682.6856,1066.5075 682.6856,1063.3825 Q682.6856,1060.2575 683.9981,1058.6013 Q685.3263,1056.945 687.8263,1056.945 Q688.5294,1056.945 689.17,1057.1013 Q689.8263,1057.2575 690.3888,1057.5544 L690.3888,1060.2731 Q689.7638,1059.695 689.17,1059.4294 Q688.5763,1059.1481 687.9513,1059.1481 Q686.6075,1059.1481 685.92,1060.2263 Q685.2325,1061.2888 685.2325,1063.3825 Q685.2325,1065.4763 685.92,1066.5544 Q686.6075,1067.6169 687.9513,1067.6169 Q688.5763,1067.6169 689.17,1067.3513 Q689.7638,1067.07 690.3888,1066.4919 L690.3888,1069.2106 Z " fill="#000000"/><text fill="#000000" font-family="sans-serif" font-size="14" lengthAdjust="spacing" textLength="72.4404" x="701.42" y="1068.4167">SmartPlug</text><line style="stroke:#181818;stroke-width:0.5;" x1="673.42" x2="775.8604" y1="1079.57" y2="1079.57"/><line style="stroke:#181818;stroke-width:0.5;" x1="673.42" x2="775.8604" y1="1087.57" y2="1087.57"/></g><!--class SmartVacuum--><g id="elem_SmartVacuum"><rect codeLine="55" fill="#F1F1F1" height="48" id="SmartVacuum" rx="2.5" ry="2.5" style="stroke:#181818;stroke-width:0.5;" width="131.5859" x="811.85" y="1047.57"/><ellipse cx="826.85" cy="1063.57" fill="#ADD1B2" rx="11" ry="11" style="stroke:#181818;stroke-width:1;"/><path d="M829.8188,1069.2106 Q829.2406,1069.5075 828.6,1069.6481 Q827.9594,1069.8044 827.2563,1069.8044 Q824.7563,1069.8044 823.4281,1068.1638 Q822.1156,1066.5075 822.1156,1063.3825 Q822.1156,1060.2575 823.4281,1058.6013 Q824.7563,1056.945 827.2563,1056.945 Q827.9594,1056.945 828.6,1057.1013 Q829.2563,1057.2575 829.8188,1057.5544 L829.8188,1060.2731 Q829.1938,1059.695 828.6,1059.4294 Q828.0063,1059.1481 827.3813,1059.1481 Q826.0375,1059.1481 825.35,1060.2263 Q824.6625,1061.2888 824.6625,1063.3825 Q824.6625,1065.4763 825.35,1066.5544 Q826.0375,1067.6169 827.3813,1067.6169 Q828.0063,1067.6169 828.6,1067.3513 Q829.1938,1067.07 829.8188,1066.4919 L829.8188,1069.2106 Z " fill="#000000"/><text fill="#000000" font-family="sans-serif" font-size="14" lengthAdjust="spacing" textLength="99.5859" x="840.85" y="1068.4167">SmartVacuum</text><line style="stroke:#181818;stroke-width:0.5;" x1="812.85" x2="942.4359" y1="1079.57" y2="1079.57"/><line style="stroke:#181818;stroke-width:0.5;" x1="812.85" x2="942.4359" y1="1087.57" y2="1087.57"/></g><!--class HomeAssistant--><g id="elem_HomeAssistant"><rect codeLine="57" fill="#F1F1F1" height="48" id="HomeAssistant" rx="2.5" ry="2.5" style="stroke:#181818;stroke-width:0.5;" width="137.123" x="788.08" y="683.5"/><ellipse cx="803.08" cy="699.5" fill="#ADD1B2" rx="11" ry="11" style="stroke:#181818;stroke-width:1;"/><path d="M806.0488,705.1406 Q805.4706,705.4375 804.83,705.5781 Q804.1894,705.7344 803.4863,705.7344 Q800.9863,705.7344 799.6581,704.0938 Q798.3456,702.4375 798.3456,699.3125 Q798.3456,696.1875 799.6581,694.5313 Q800.9863,692.875 803.4863,692.875 Q804.1894,692.875 804.83,693.0313 Q805.4863,693.1875 806.0488,693.4844 L806.0488,696.2031 Q805.4238,695.625 804.83,695.3594 Q804.2363,695.0781 803.6113,695.0781 Q802.2675,695.0781 801.58,696.1563 Q800.8925,697.2188 800.8925,699.3125 Q800.8925,701.4063 801.58,702.4844 Q802.2675,703.5469 803.6113,703.5469 Q804.2363,703.5469 804.83,703.2813 Q805.4238,703 806.0488,702.4219 L806.0488,705.1406 Z " fill="#000000"/><text fill="#000000" font-family="sans-serif" font-size="14" lengthAdjust="spacing" textLength="105.123" x="817.08" y="704.3467">HomeAssistant</text><line style="stroke:#181818;stroke-width:0.5;" x1="789.08" x2="924.203" y1="715.5" y2="715.5"/><line style="stroke:#181818;stroke-width:0.5;" x1="789.08" x2="924.203" y1="723.5" y2="723.5"/></g><!--class DataLogger--><g id="elem_DataLogger"><rect codeLine="61" fill="#F1F1F1" height="48" id="DataLogger" rx="2.5" ry="2.5" style="stroke:#181818;stroke-width:0.5;" width="113.9355" x="960.68" y="683.5"/><ellipse cx="975.68" cy="699.5" fill="#ADD1B2" rx="11" ry="11" style="stroke:#181818;stroke-width:1;"/><path d="M978.6488,705.1406 Q978.0706,705.4375 977.43,705.5781 Q976.7894,705.7344 976.0863,705.7344 Q973.5863,705.7344 972.2581,704.0938 Q970.9456,702.4375 970.9456,699.3125 Q970.9456,696.1875 972.2581,694.5313 Q973.5863,692.875 976.0863,692.875 Q976.7894,692.875 977.43,693.0313 Q978.0863,693.1875 978.6488,693.4844 L978.6488,696.2031 Q978.0238,695.625 977.43,695.3594 Q976.8363,695.0781 976.2113,695.0781 Q974.8675,695.0781 974.18,696.1563 Q973.4925,697.2188 973.4925,699.3125 Q973.4925,701.4063 974.18,702.4844 Q974.8675,703.5469 976.2113,703.5469 Q976.8363,703.5469 977.43,703.2813 Q978.0238,703 978.6488,702.4219 L978.6488,705.1406 Z " fill="#000000"/><text fill="#000000" font-family="sans-serif" font-size="14" lengthAdjust="spacing" textLength="81.9355" x="989.68" y="704.3467">DataLogger</text><line style="stroke:#181818;stroke-width:0.5;" x1="961.68" x2="1073.6155" y1="715.5" y2="715.5"/><line style="stroke:#181818;stroke-width:0.5;" x1="961.68" x2="1073.6155" y1="723.5" y2="723.5"/></g><!--class PhoneApp--><g id="elem_PhoneApp"><rect codeLine="65" fill="#F1F1F1" height="80.5938" id="PhoneApp" rx="2.5" ry="2.5" style="stroke:#181818;stroke-width:0.5;" width="323.3359" x="796.98" y="213.49"/><ellipse cx="919.0391" cy="229.49" fill="#ADD1B2" rx="11" ry="11" style="stroke:#181818;stroke-width:1;"/><path d="M922.0078,235.1306 Q921.4297,235.4275 920.7891,235.5681 Q920.1485,235.7244 919.4453,235.7244 Q916.9453,235.7244 915.6172,234.0838 Q914.3047,232.4275 914.3047,229.3025 Q914.3047,226.1775 915.6172,224.5213 Q916.9453,222.865 919.4453,222.865 Q920.1485,222.865 920.7891,223.0213 Q921.4453,223.1775 922.0078,223.4744 L922.0078,226.1931 Q921.3828,225.615 920.7891,225.3494 Q920.1953,225.0681 919.5703,225.0681 Q918.2266,225.0681 917.5391,226.1463 Q916.8516,227.2088 916.8516,229.3025 Q916.8516,231.3963 917.5391,232.4744 Q918.2266,233.5369 919.5703,233.5369 Q920.1953,233.5369 920.7891,233.2713 Q921.3828,232.99 922.0078,232.4119 L922.0078,235.1306 Z " fill="#000000"/><text fill="#000000" font-family="sans-serif" font-size="14" lengthAdjust="spacing" textLength="70.7178" x="939.5391" y="234.3367">PhoneApp</text><line style="stroke:#181818;stroke-width:0.5;" x1="797.98" x2="1119.3159" y1="245.49" y2="245.49"/><line style="stroke:#181818;stroke-width:0.5;" x1="797.98" x2="1119.3159" y1="253.49" y2="253.49"/><ellipse cx="807.98" cy="267.1384" fill="#84BE84" rx="3" ry="3" style="stroke:#038048;stroke-width:1;"/><text fill="#000000" font-family="sans-serif" font-size="14" lengthAdjust="spacing" textLength="297.3359" x="816.98" y="270.4851">transmitCommand(command : Command)</text><ellipse cx="807.98" cy="283.4353" fill="#84BE84" rx="3" ry="3" style="stroke:#038048;stroke-width:1;"/><text fill="#000000" font-family="sans-serif" font-size="14" lengthAdjust="spacing" textLength="275.1943" x="816.98" y="286.782">receiveFeedback(feedback : Feedback)</text></g><!--class Human--><g id="elem_Human"><rect codeLine="70" fill="#F1F1F1" height="96.8906" id="Human" rx="2.5" ry="2.5" style="stroke:#181818;stroke-width:0.5;" width="297.9951" x="809.65" y="23.3"/><ellipse cx="929.1524" cy="39.3" fill="#ADD1B2" rx="11" ry="11" style="stroke:#181818;stroke-width:1;"/><path d="M932.1212,44.9406 Q931.5431,45.2375 930.9024,45.3781 Q930.2618,45.5344 929.5587,45.5344 Q927.0587,45.5344 925.7306,43.8937 Q924.4181,42.2375 924.4181,39.1125 Q924.4181,35.9875 925.7306,34.3312 Q927.0587,32.675 929.5587,32.675 Q930.2618,32.675 930.9024,32.8312 Q931.5587,32.9875 932.1212,33.2844 L932.1212,36.0031 Q931.4962,35.425 930.9024,35.1594 Q930.3087,34.8781 929.6837,34.8781 Q928.3399,34.8781 927.6524,35.9562 Q926.9649,37.0187 926.9649,39.1125 Q926.9649,41.2062 927.6524,42.2844 Q928.3399,43.3469 929.6837,43.3469 Q930.3087,43.3469 930.9024,43.0812 Q931.4962,42.8 932.1212,42.2219 L932.1212,44.9406 Z " fill="#000000"/><text fill="#000000" font-family="sans-serif" font-size="14" lengthAdjust="spacing" textLength="50.4902" x="949.6524" y="44.1467">Human</text><line style="stroke:#181818;stroke-width:0.5;" x1="810.65" x2="1106.6451" y1="55.3" y2="55.3"/><ellipse cx="820.65" cy="68.9484" fill="none" rx="3" ry="3" style="stroke:#038048;stroke-width:1;"/><text fill="#000000" font-family="sans-serif" font-size="14" lengthAdjust="spacing" textLength="95.1016" x="829.65" y="72.2951">name : String</text><ellipse cx="820.65" cy="85.2453" fill="none" rx="3" ry="3" style="stroke:#038048;stroke-width:1;"/><text fill="#000000" font-family="sans-serif" font-size="14" lengthAdjust="spacing" textLength="128.1465" x="829.65" y="88.592">phone : PhoneApp</text><line style="stroke:#181818;stroke-width:0.5;" x1="810.65" x2="1106.6451" y1="95.8937" y2="95.8937"/><ellipse cx="820.65" cy="109.5422" fill="#84BE84" rx="3" ry="3" style="stroke:#038048;stroke-width:1;"/><text fill="#000000" font-family="sans-serif" font-size="14" lengthAdjust="spacing" textLength="271.9951" x="829.65" y="112.8889">sendCommand(command : Command)</text></g><!--class Event--><g id="elem_Event"><rect codeLine="76" fill="#F1F1F1" height="96.8906" id="Event" rx="2.5" ry="2.5" style="stroke:#181818;stroke-width:0.5;" width="282.6143" x="978.34" y="1023.13"/><ellipse cx="1095.3439" cy="1039.13" fill="#ADD1B2" rx="11" ry="11" style="stroke:#181818;stroke-width:1;"/><path d="M1098.3127,1044.7706 Q1097.7345,1045.0675 1097.0939,1045.2081 Q1096.4533,1045.3644 1095.7502,1045.3644 Q1093.2502,1045.3644 1091.922,1043.7237 Q1090.6095,1042.0675 1090.6095,1038.9425 Q1090.6095,1035.8175 1091.922,1034.1612 Q1093.2502,1032.505 1095.7502,1032.505 Q1096.4533,1032.505 1097.0939,1032.6612 Q1097.7502,1032.8175 1098.3127,1033.1144 L1098.3127,1035.8331 Q1097.6877,1035.255 1097.0939,1034.9894 Q1096.5002,1034.7081 1095.8752,1034.7081 Q1094.5314,1034.7081 1093.8439,1035.7862 Q1093.1564,1036.8487 1093.1564,1038.9425 Q1093.1564,1041.0362 1093.8439,1042.1144 Q1094.5314,1043.1769 1095.8752,1043.1769 Q1096.5002,1043.1769 1097.0939,1042.9112 Q1097.6877,1042.63 1098.3127,1042.0519 L1098.3127,1044.7706 Z " fill="#000000"/><text fill="#000000" font-family="sans-serif" font-size="14" lengthAdjust="spacing" textLength="40.1064" x="1115.8439" y="1043.9767">Event</text><line style="stroke:#181818;stroke-width:0.5;" x1="979.34" x2="1259.9543" y1="1055.13" y2="1055.13"/><text fill="#000000" font-family="sans-serif" font-size="14" lengthAdjust="spacing" textLength="200.0059" x="984.34" y="1072.1251">Represents events triggered</text><text fill="#000000" font-family="sans-serif" font-size="14" lengthAdjust="spacing" textLength="120.1074" x="984.34" y="1088.422">by smart devices</text><line style="stroke:#181818;stroke-width:0.5;" x1="979.34" x2="1259.9543" y1="1095.7237" y2="1095.7237"/><text fill="#000000" font-family="sans-serif" font-size="14" lengthAdjust="spacing" textLength="270.6143" x="984.34" y="1112.7189">(e.g., motion detected, door unlocked)</text></g><!--class Command--><g id="elem_Command"><rect codeLine="82" fill="#F1F1F1" height="48" id="Command" rx="2.5" ry="2.5" style="stroke:#181818;stroke-width:0.5;" width="103.9551" x="953.67" y="444.42"/><ellipse cx="968.67" cy="460.42" fill="#ADD1B2" rx="11" ry="11" style="stroke:#181818;stroke-width:1;"/><path d="M971.6388,466.0606 Q971.0606,466.3575 970.42,466.4981 Q969.7794,466.6544 969.0763,466.6544 Q966.5763,466.6544 965.2481,465.0137 Q963.9356,463.3575 963.9356,460.2325 Q963.9356,457.1075 965.2481,455.4512 Q966.5763,453.795 969.0763,453.795 Q969.7794,453.795 970.42,453.9512 Q971.0763,454.1075 971.6388,454.4044 L971.6388,457.1231 Q971.0138,456.545 970.42,456.2794 Q969.8263,455.9981 969.2013,455.9981 Q967.8575,455.9981 967.17,457.0762 Q966.4825,458.1387 966.4825,460.2325 Q966.4825,462.3262 967.17,463.4044 Q967.8575,464.4669 969.2013,464.4669 Q969.8263,464.4669 970.42,464.2012 Q971.0138,463.92 971.6388,463.3419 L971.6388,466.0606 Z " fill="#000000"/><text fill="#000000" font-family="sans-serif" font-size="14" lengthAdjust="spacing" textLength="71.9551" x="982.67" y="465.2667">Command</text><line style="stroke:#181818;stroke-width:0.5;" x1="954.67" x2="1056.6251" y1="476.42" y2="476.42"/><line style="stroke:#181818;stroke-width:0.5;" x1="954.67" x2="1056.6251" y1="484.42" y2="484.42"/></g><g id="elem_GMN19"><path d="M1092.29,440.72 L1092.29,464.42 L1057.95,468.42 L1092.29,472.42 L1092.29,496.1184 A0,0 0 0 0 1092.29,496.1184 L1330.9956,496.1184 A0,0 0 0 0 1330.9956,496.1184 L1330.9956,450.72 L1320.9956,440.72 L1092.29,440.72 A0,0 0 0 0 1092.29,440.72 " fill="#FEFFDD" style="stroke:#181818;stroke-width:0.5;"/><path d="M1320.9956,440.72 L1320.9956,450.72 L1330.9956,450.72 L1320.9956,440.72 " fill="#FEFFDD" style="stroke:#181818;stroke-width:0.5;"/><text fill="#000000" font-family="sans-serif" font-size="13" lengthAdjust="spacing" textLength="186.8623" x="1098.29" y="457.7869">Represents a command sent</text><text fill="#000000" font-family="sans-serif" font-size="13" lengthAdjust="spacing" textLength="209.4409" x="1102.4223" y="472.9197">from the Human via Middleware</text><text fill="#000000" font-family="sans-serif" font-size="13" lengthAdjust="spacing" textLength="111.7441" x="1102.4223" y="488.0525">to the Main Node</text></g><!--class Feedback--><g id="elem_Feedback"><rect codeLine="89" fill="#F1F1F1" height="48" id="Feedback" rx="2.5" ry="2.5" style="stroke:#181818;stroke-width:0.5;" width="99.4365" x="1365.93" y="444.42"/><ellipse cx="1380.93" cy="460.42" fill="#ADD1B2" rx="11" ry="11" style="stroke:#181818;stroke-width:1;"/><path d="M1383.8988,466.0606 Q1383.3206,466.3575 1382.68,466.4981 Q1382.0394,466.6544 1381.3363,466.6544 Q1378.8363,466.6544 1377.5081,465.0137 Q1376.1956,463.3575 1376.1956,460.2325 Q1376.1956,457.1075 1377.5081,455.4512 Q1378.8363,453.795 1381.3363,453.795 Q1382.0394,453.795 1382.68,453.9512 Q1383.3363,454.1075 1383.8988,454.4044 L1383.8988,457.1231 Q1383.2738,456.545 1382.68,456.2794 Q1382.0863,455.9981 1381.4613,455.9981 Q1380.1175,455.9981 1379.43,457.0762 Q1378.7425,458.1387 1378.7425,460.2325 Q1378.7425,462.3262 1379.43,463.4044 Q1380.1175,464.4669 1381.4613,464.4669 Q1382.0863,464.4669 1382.68,464.2012 Q1383.2738,463.92 1383.8988,463.3419 L1383.8988,466.0606 Z " fill="#000000"/><text fill="#000000" font-family="sans-serif" font-size="14" lengthAdjust="spacing" textLength="67.4365" x="1394.93" y="465.2667">Feedback</text><line style="stroke:#181818;stroke-width:0.5;" x1="1366.93" x2="1464.3665" y1="476.42" y2="476.42"/><line style="stroke:#181818;stroke-width:0.5;" x1="1366.93" x2="1464.3665" y1="484.42" y2="484.42"/></g><g id="elem_GMN23"><path d="M1500.03,440.72 L1500.03,464.42 L1465.54,468.42 L1500.03,472.42 L1500.03,496.1184 A0,0 0 0 0 1500.03,496.1184 L1721.2478,496.1184 A0,0 0 0 0 1721.2478,496.1184 L1721.2478,450.72 L1711.2478,440.72 L1500.03,440.72 A0,0 0 0 0 1500.03,440.72 " fill="#FEFFDD" style="stroke:#181818;stroke-width:0.5;"/><path d="M1711.2478,440.72 L1711.2478,450.72 L1721.2478,450.72 L1711.2478,440.72 " fill="#FEFFDD" style="stroke:#181818;stroke-width:0.5;"/><text fill="#000000" font-family="sans-serif" font-size="13" lengthAdjust="spacing" textLength="169.5967" x="1506.03" y="457.7869">Represents feedback sent</text><text fill="#000000" font-family="sans-serif" font-size="13" lengthAdjust="spacing" textLength="129.2319" x="1514.2946" y="472.9197">from the Main Node</text><text fill="#000000" font-family="sans-serif" font-size="13" lengthAdjust="spacing" textLength="191.9531" x="1514.2946" y="488.0525">to the Human via Middleware</text></g><!--link MainNode to Room--><g id="link_MainNode_Room"><path codeLine="103" d="M623.25,561.94 C607.91,572.94 592.76,584.34 578.64,595.75 C561.05,609.98 543.03,626.46 526.67,642.28 " fill="none" id="MainNode-Room" style="stroke:#181818;stroke-width:1;"/><polygon fill="#000000" points="579.7961,607.514,588.6293,603.9889,584.8703,599.4701,579.7961,607.514" style="stroke:#000000;stroke-width:1;"/><text fill="#000000" font-family="sans-serif" font-size="13" lengthAdjust="spacing" textLength="59.8584" x="592.64" y="608.8169">manages</text><text fill="#000000" font-family="sans-serif" font-size="13" lengthAdjust="spacing" textLength="6.5" x="526.7831" y="631.8553">*</text></g><!--link MainNode to SmartDevice--><g id="link_MainNode_SmartDevice"><path codeLine="104" d="M723.29,566.1 C682.86,654.23 624.83,780.74 593.58,848.87 " fill="none" id="MainNode-SmartDevice" style="stroke:#181818;stroke-width:1;"/><polygon fill="#000000" points="689.5553,712.1111,695.9978,705.115,690.6553,702.6643,689.5553,712.1111" style="stroke:#000000;stroke-width:1;"/><text fill="#000000" font-family="sans-serif" font-size="13" lengthAdjust="spacing" textLength="59.8584" x="700.64" y="712.0669">manages</text><text fill="#000000" font-family="sans-serif" font-size="13" lengthAdjust="spacing" textLength="6.5" x="590.2775" y="838.0269">*</text></g><!--reverse link MainNode to HomeAssistant--><g id="link_MainNode_HomeAssistant"><path codeLine="105" d="M808.1875,577.4244 C824.3375,620.4444 837.76,656.19 847.98,683.41 " fill="none" id="MainNode-backto-HomeAssistant" style="stroke:#181818;stroke-width:1;"/><polygon fill="#181818" points="803.97,566.19,802.3339,573.2131,808.1875,577.4244,809.8236,570.4014,803.97,566.19" style="stroke:#181818;stroke-width:1;"/><polygon fill="#000000" points="827.3975,608.9974,826.9696,599.4964,821.4668,601.5625,827.3975,608.9974" style="stroke:#000000;stroke-width:1;"/><text fill="#000000" font-family="sans-serif" font-size="13" lengthAdjust="spacing" textLength="53.8726" x="834.64" y="608.8169">includes</text></g><!--reverse link MainNode to DataLogger--><g id="link_MainNode_DataLogger"><path codeLine="106" d="M878.3975,574.447 C923.6275,617.337 964.3,655.91 993.04,683.16 " fill="none" id="MainNode-backto-DataLogger" style="stroke:#181818;stroke-width:1;"/><polygon fill="#181818" points="869.69,566.19,871.2914,573.221,878.3975,574.447,876.7961,567.416,869.69,566.19" style="stroke:#181818;stroke-width:1;"/><polygon fill="#000000" points="924.2681,607.7569,919.727,599.4005,915.6825,603.6656,924.2681,607.7569" style="stroke:#000000;stroke-width:1;"/><text fill="#000000" font-family="sans-serif" font-size="13" lengthAdjust="spacing" textLength="53.8726" x="929.64" y="608.8169">includes</text></g><!--reverse link MainNode to PhoneApp--><g id="link_MainNode_PhoneApp"><path codeLine="107" d="M862.5399,361.7736 C886.7799,334.7936 903.75,315.9 923.17,294.28 " fill="none" id="MainNode-backto-PhoneApp" style="stroke:#181818;stroke-width:1;"/><polygon fill="#181818" points="854.52,370.7,861.5054,368.9101,862.5399,361.7736,855.5545,363.5635,854.52,370.7" style="stroke:#181818;stroke-width:1;"/><polygon fill="#000000" points="899.9813,328.9268,891.7505,333.6916,896.1231,337.6196,899.9813,328.9268" style="stroke:#000000;stroke-width:1;"/><text fill="#000000" font-family="sans-serif" font-size="13" lengthAdjust="spacing" textLength="53.8726" x="905.64" y="337.1469">includes</text></g><!--link PhoneApp to MainNode--><g id="link_PhoneApp_MainNode"><path codeLine="125" d="M799.25,294.42 C787.45,302.54 776.94,312.32 768.64,324.08 C759.04,337.71 754.39,354.02 752.77,370.68 " fill="none" id="PhoneApp-MainNode" style="stroke:#181818;stroke-width:1;"/><polygon fill="#000000" points="771.0378,336.9159,778.2548,330.7219,773.2357,327.6628,771.0378,336.9159" style="stroke:#000000;stroke-width:1;"/><text fill="#000000" font-family="sans-serif" font-size="13" lengthAdjust="spacing" textLength="95.5005" x="782.64" y="337.1469">communicates</text></g><!--reverse link Room to SmartDevice--><g id="link_Room_SmartDevice"><path codeLine="110" d="M507.0984,783.1633 C521.2584,808.0833 531.27,825.68 544.4,848.78 " fill="none" id="Room-backto-SmartDevice" style="stroke:#181818;stroke-width:1;"/><polygon fill="#181818" points="501.17,772.73,500.6564,779.9228,507.0984,783.1633,507.612,775.9705,501.17,772.73" style="stroke:#181818;stroke-width:1;"/><polygon fill="#000000" points="532.111,815.1531,530.1958,805.8374,525.086,808.7423,532.111,815.1531" style="stroke:#000000;stroke-width:1;"/><text fill="#000000" font-family="sans-serif" font-size="13" lengthAdjust="spacing" textLength="55.0278" x="538.64" y="815.3069">contains</text><text fill="#000000" font-family="sans-serif" font-size="13" lengthAdjust="spacing" textLength="6.5" x="534.369" y="838.2764">*</text></g><!--reverse link SmartDevice to SmartLight--><g id="link_SmartDevice_SmartLight"><path codeLine="113" d="M397.5003,935.0941 C312.0803,955.6641 223.29,982.04 133.64,1023.13 C119.49,1029.62 104.95,1038.66 92.68,1047.12 " fill="none" id="SmartDevice-backto-SmartLight" style="stroke:#181818;stroke-width:1;"/><polygon fill="none" points="415,930.88,396.0955,929.2609,398.905,940.9274,415,930.88" style="stroke:#181818;stroke-width:1;"/></g><!--reverse link SmartDevice to SmartThermostat--><g id="link_SmartDevice_SmartThermostat"><path codeLine="114" d="M460.0072,954.6336 C394.5872,987.4136 326.8,1021.39 275.42,1047.13 " fill="none" id="SmartDevice-backto-SmartThermostat" style="stroke:#181818;stroke-width:1;"/><polygon fill="none" points="476.1,946.57,457.3193,949.2694,462.6951,959.9979,476.1,946.57" style="stroke:#181818;stroke-width:1;"/></g><!--reverse link SmartDevice to SmartCamera--><g id="link_SmartDevice_SmartCamera"><path codeLine="115" d="M512.8972,959.5192 C481.2472,992.2992 453.15,1021.39 428.28,1047.13 " fill="none" id="SmartDevice-backto-SmartCamera" style="stroke:#181818;stroke-width:1;"/><polygon fill="none" points="525.4,946.57,508.5808,955.3516,517.2136,963.6867,525.4,946.57" style="stroke:#181818;stroke-width:1;"/></g><!--reverse link SmartDevice to SmartSpeaker--><g id="link_SmartDevice_SmartSpeaker"><path codeLine="116" d="M571.64,964.57 C571.64,997.35 571.64,1021.39 571.64,1047.13 " fill="none" id="SmartDevice-backto-SmartSpeaker" style="stroke:#181818;stroke-width:1;"/><polygon fill="none" points="571.64,946.57,565.64,964.57,577.64,964.57,571.64,946.57" style="stroke:#181818;stroke-width:1;"/></g><!--reverse link SmartDevice to SmartPlug--><g id="link_SmartDevice_SmartPlug"><path codeLine="117" d="M626.2282,960.0148 C655.4082,992.7948 680.86,1021.39 703.78,1047.13 " fill="none" id="SmartDevice-backto-SmartPlug" style="stroke:#181818;stroke-width:1;"/><polygon fill="none" points="614.26,946.57,621.7466,964.0042,630.7098,956.0254,614.26,946.57" style="stroke:#181818;stroke-width:1;"/></g><!--reverse link SmartDevice to SmartVacuum--><g id="link_SmartDevice_SmartVacuum"><path codeLine="118" d="M673.5278,955.2441 C714.9578,978.3041 749.57,997.67 794.64,1023.13 C808.37,1030.88 823.34,1039.42 836.74,1047.08 " fill="none" id="SmartDevice-backto-SmartVacuum" style="stroke:#181818;stroke-width:1;"/><polygon fill="none" points="657.8,946.49,670.6098,960.4868,676.4459,950.0015,657.8,946.49" style="stroke:#181818;stroke-width:1;"/></g><!--link SmartDevice to Event--><g id="link_SmartDevice_Event"><path codeLine="121" d="M724.29,946.57 C803.78,971.5 900.35,1001.79 978.15,1026.19 " fill="none" id="SmartDevice-Event" style="stroke:#181818;stroke-width:1;"/><polygon fill="#000000" points="872.4109,986.1927,864.6598,980.6816,862.9008,986.2901,872.4109,986.1927" style="stroke:#000000;stroke-width:1;"/><text fill="#000000" font-family="sans-serif" font-size="13" lengthAdjust="spacing" textLength="50.6733" x="876.64" y="989.1969">triggers</text><text fill="#000000" font-family="sans-serif" font-size="13" lengthAdjust="spacing" textLength="6.5" x="963.8107" y="1020.2033">*</text></g><!--link Human to PhoneApp--><g id="link_Human_PhoneApp"><path codeLine="124" d="M958.64,120.52 C958.64,149.38 958.64,185.72 958.64,213.01 " fill="none" id="Human-PhoneApp" style="stroke:#181818;stroke-width:1;"/><polygon fill="#000000" points="963.64,180.0564,966.5789,171.0113,960.7011,171.0113,963.64,180.0564" style="stroke:#000000;stroke-width:1;"/><text fill="#000000" font-family="sans-serif" font-size="13" lengthAdjust="spacing" textLength="29.7832" x="972.64" y="179.5569">uses</text></g><!--reverse link PhoneApp to Feedback--><g id="link_PhoneApp_Feedback"><path codeLine="126" d="M1126.3066,279.0637 C1201.0566,295.7037 1281.96,322.82 1348.64,371.08 C1374.72,389.95 1394.13,422.23 1405.17,444.17 " fill="none" id="PhoneApp-backto-Feedback" style="stroke:#181818;stroke-width:1;"/><polygon fill="#181818" points="1120.45,277.76,1128.3658,283.62,1125.3305,278.8464,1130.1041,275.8112,1120.45,277.76" style="stroke:#181818;stroke-width:1;"/><polygon fill="#000000" points="1301.9424,335.1937,1295.6565,328.0566,1292.662,333.1145,1301.9424,335.1937" style="stroke:#000000;stroke-width:1;"/><text fill="#000000" font-family="sans-serif" font-size="13" lengthAdjust="spacing" textLength="53.8726" x="1306.64" y="337.1469">includes</text></g><!--reverse link PhoneApp to Command--><g id="link_PhoneApp_Command"><path codeLine="127" d="M968.6654,300.1385 C978.3854,344.0985 992.47,407.82 1000.45,443.94 " fill="none" id="PhoneApp-backto-Command" style="stroke:#181818;stroke-width:1;"/><polygon fill="#181818" points="967.37,294.28,965.4074,303.9313,968.4495,299.1621,973.2187,302.2042,967.37,294.28" style="stroke:#181818;stroke-width:1;"/><polygon fill="#000000" points="982.7191,337.5286,983.6366,328.0624,977.8973,329.3309,982.7191,337.5286" style="stroke:#000000;stroke-width:1;"/><text fill="#000000" font-family="sans-serif" font-size="13" lengthAdjust="spacing" textLength="53.8726" x="990.64" y="337.1469">includes</text></g><!--SRC=[hLNDJXin4BxdAImkIIdm0155WX04KcWHeKNgpR4d6ujTUsLxWr3BktVijHrlia2gTW-9FVDvvlFyUKY-lFiDXYH-KzbKeAaLIXeKVt1k00Wd4oKbC7VauQK6yclW33sAA-4NFqMn06YNnuzqtIuloWQiKdRbTrEx0Yt13bw3oJlr37gk6isYlGjgBUWNlxwb0jcvrLoLLFlLDsV2dH_kVrdy9YKr1lQvAdD8x_ghuf7LP_BzXin1hq67_IMrbCnKKIJ9N2tjCzL0nkHQLK3EZH76Kcc3dd9-2Ml1OCJz7-Bc5TMs5NuAA0sLMiCUG3HthrGrqlY32BVksdXBMrEXzx3Vo0-1hp5QpdoAbAGLpEW2IWUtMiWYA2fX60eQPhSrPcFLe6w6SJlDF9tzxmWcufaqyMVTCWzqkiKV6TMkVe5Vl4HOLj0HiwAIbp1TWxGZSB-8zRjj7ZDHh6mkUC1IhnJMK4SweQvpSycy1lg4TPY9xigcoFS_A6kQAhfpzPdACrnyI6x1hXGt1FaIx48j5et5V30goG88XwMGW1f39007lc7lUg5jXN-tTRTI4ixhEgN3QYfD9Un4LHLQ6x7s7uCO99kyCn1hk4A32ygUHikmG6IKPH6_Rl1ifsQtYx9sJ50O6SLQ1SdVuP8S-1G71_TGQy23rX1V0GPl9LoyC0OUi7XfUu3mq0HUEeAJukI8LCgL7Qei5Y3m8yALqjYVfM9FaBiC9D3fwq0g2qIxYY9g6JM3BXTAuWNSthjSQkna7B4XFcj1oQtWMBz-idc8LHxW9YHn8n8dEIVENM0HWztUVOTAKc-HIUboszRJXaro5XI1Gn_93Ps_UIBkeMmVmvMeztabXfiN0Xj9CH6UqYGzFYO7XmVjP1mJf4aBJElP3Y2VGBsuGmHs-tLCX6HbmtTnMIE-3KeTre7WZJnNh9HQ6U5kC_22mrwYE2IjUvtRaxdkHkBK4aYKmI2Nd_v6GzcSwzTb8wyV4APVlp8EmdwjdudzgZWUkrV1AckxE4jnnq08pJHCzT3K8IXjSRhkIX7FxRJgRZuQutEH9AXDgHlxPcsaODHsKUGKSLURQPUokWEQf7cLOVu0]--></g></svg>