<svg xmlns="http://www.w3.org/2000/svg" xmlns:xlink="http://www.w3.org/1999/xlink" contentStyleType="text/css" data-diagram-type="CLASS" height="762px" preserveAspectRatio="none" style="width:1518px;height:762px;background:#FFFFFF;" version="1.1" viewBox="0 0 1518 762" width="1518px" zoomAndPan="magnify"><defs/><g><!--class ConnectionType--><g id="elem_ConnectionType"><rect codeLine="5" fill="#F1F1F1" height="129.4844" id="ConnectionType" rx="2.5" ry="2.5" style="stroke:#181818;stroke-width:0.5;" width="145.5518" x="440.87" y="39.6"/><ellipse cx="455.87" cy="55.6" fill="#EB937F" rx="11" ry="11" style="stroke:#181818;stroke-width:1;"/><path d="M459.9794,61.6 L452.2606,61.6 L452.2606,49.2094 L459.9794,49.2094 L459.9794,51.3656 L454.7138,51.3656 L454.7138,54.0375 L459.4794,54.0375 L459.4794,56.1938 L454.7138,56.1938 L454.7138,59.4438 L459.9794,59.4438 L459.9794,61.6 Z " fill="#000000"/><text fill="#000000" font-family="sans-serif" font-size="14" lengthAdjust="spacing" textLength="113.5518" x="469.87" y="60.4467">ConnectionType</text><line style="stroke:#181818;stroke-width:0.5;" x1="441.87" x2="585.4218" y1="71.6" y2="71.6"/><text fill="#000000" font-family="sans-serif" font-size="14" lengthAdjust="spacing" textLength="29.6748" x="446.87" y="88.5951">WiFi</text><text fill="#000000" font-family="sans-serif" font-size="14" lengthAdjust="spacing" textLength="48.4805" x="446.87" y="104.892">Zigbee</text><text fill="#000000" font-family="sans-serif" font-size="14" lengthAdjust="spacing" textLength="53.9629" x="446.87" y="121.1889">Z-Wave</text><text fill="#000000" font-family="sans-serif" font-size="14" lengthAdjust="spacing" textLength="67.9629" x="446.87" y="137.4857">Bluetooth</text><text fill="#000000" font-family="sans-serif" font-size="14" lengthAdjust="spacing" textLength="60.5527" x="446.87" y="153.7826">Ethernet</text><line style="stroke:#181818;stroke-width:0.5;" x1="441.87" x2="585.4218" y1="161.0844" y2="161.0844"/></g><!--class PowerSource--><g id="elem_PowerSource"><rect codeLine="13" fill="#F1F1F1" height="113.1875" id="PowerSource" rx="2.5" ry="2.5" style="stroke:#181818;stroke-width:0.5;" width="123.2188" x="621.03" y="47.74"/><ellipse cx="636.03" cy="63.74" fill="#EB937F" rx="11" ry="11" style="stroke:#181818;stroke-width:1;"/><path d="M640.1394,69.74 L632.4206,69.74 L632.4206,57.3494 L640.1394,57.3494 L640.1394,59.5056 L634.8738,59.5056 L634.8738,62.1775 L639.6394,62.1775 L639.6394,64.3338 L634.8738,64.3338 L634.8738,67.5838 L640.1394,67.5838 L640.1394,69.74 Z " fill="#000000"/><text fill="#000000" font-family="sans-serif" font-size="14" lengthAdjust="spacing" textLength="91.2188" x="650.03" y="68.5867">PowerSource</text><line style="stroke:#181818;stroke-width:0.5;" x1="622.03" x2="743.2488" y1="79.74" y2="79.74"/><text fill="#000000" font-family="sans-serif" font-size="14" lengthAdjust="spacing" textLength="51.8164" x="627.03" y="96.7351">Battery</text><text fill="#000000" font-family="sans-serif" font-size="14" lengthAdjust="spacing" textLength="40.7148" x="627.03" y="113.032">Mains</text><text fill="#000000" font-family="sans-serif" font-size="14" lengthAdjust="spacing" textLength="35.6768" x="627.03" y="129.3289">Solar</text><text fill="#000000" font-family="sans-serif" font-size="14" lengthAdjust="spacing" textLength="39.751" x="627.03" y="145.6257">Other</text><line style="stroke:#181818;stroke-width:0.5;" x1="622.03" x2="743.2488" y1="152.9275" y2="152.9275"/></g><!--class MainNode--><g id="elem_MainNode"><rect codeLine="24" fill="#F1F1F1" height="194.6719" id="MainNode" rx="2.5" ry="2.5" style="stroke:#181818;stroke-width:0.5;" width="288.1035" x="779.59" y="7"/><ellipse cx="884.4123" cy="23" fill="#ADD1B2" rx="11" ry="11" style="stroke:#181818;stroke-width:1;"/><path d="M887.381,28.6406 Q886.8029,28.9375 886.1623,29.0781 Q885.5216,29.2344 884.8185,29.2344 Q882.3185,29.2344 880.9904,27.5938 Q879.6779,25.9375 879.6779,22.8125 Q879.6779,19.6875 880.9904,18.0313 Q882.3185,16.375 884.8185,16.375 Q885.5216,16.375 886.1623,16.5313 Q886.8185,16.6875 887.381,16.9844 L887.381,19.7031 Q886.756,19.125 886.1623,18.8594 Q885.5685,18.5781 884.9435,18.5781 Q883.5998,18.5781 882.9123,19.6563 Q882.2248,20.7188 882.2248,22.8125 Q882.2248,24.9063 882.9123,25.9844 Q883.5998,27.0469 884.9435,27.0469 Q885.5685,27.0469 886.1623,26.7813 Q886.756,26.5 887.381,25.9219 L887.381,28.6406 Z " fill="#000000"/><text fill="#000000" font-family="sans-serif" font-size="14" lengthAdjust="spacing" textLength="69.959" x="904.9123" y="27.8467">MainNode</text><line style="stroke:#181818;stroke-width:0.5;" x1="780.59" x2="1066.6935" y1="39" y2="39"/><ellipse cx="790.59" cy="52.6484" fill="none" rx="3" ry="3" style="stroke:#038048;stroke-width:1;"/><text fill="#000000" font-family="sans-serif" font-size="14" lengthAdjust="spacing" textLength="64.7363" x="799.59" y="55.9951">UI Server</text><ellipse cx="790.59" cy="68.9453" fill="none" rx="3" ry="3" style="stroke:#038048;stroke-width:1;"/><text fill="#000000" font-family="sans-serif" font-size="14" lengthAdjust="spacing" textLength="86.3857" x="799.59" y="72.292">Data Logger</text><ellipse cx="790.59" cy="85.2422" fill="none" rx="3" ry="3" style="stroke:#038048;stroke-width:1;"/><text fill="#000000" font-family="sans-serif" font-size="14" lengthAdjust="spacing" textLength="185.459" x="799.59" y="88.5889">Software : Home Assistant</text><line style="stroke:#181818;stroke-width:0.5;" x1="780.59" x2="1066.6935" y1="95.8906" y2="95.8906"/><ellipse cx="790.59" cy="109.5391" fill="#84BE84" rx="3" ry="3" style="stroke:#038048;stroke-width:1;"/><text fill="#000000" font-family="sans-serif" font-size="14" lengthAdjust="spacing" textLength="234.9854" x="799.59" y="112.8857">addDevice(device : SmartDevice)</text><ellipse cx="790.59" cy="125.8359" fill="#84BE84" rx="3" ry="3" style="stroke:#038048;stroke-width:1;"/><text fill="#000000" font-family="sans-serif" font-size="14" lengthAdjust="spacing" textLength="262.1035" x="799.59" y="129.1826">removeDevice(device : SmartDevice)</text><ellipse cx="790.59" cy="142.1328" fill="#84BE84" rx="3" ry="3" style="stroke:#038048;stroke-width:1;"/><text fill="#000000" font-family="sans-serif" font-size="14" lengthAdjust="spacing" textLength="168.4102" x="799.59" y="145.4795">addRoom(room : Room)</text><ellipse cx="790.59" cy="158.4297" fill="#84BE84" rx="3" ry="3" style="stroke:#038048;stroke-width:1;"/><text fill="#000000" font-family="sans-serif" font-size="14" lengthAdjust="spacing" textLength="195.5283" x="799.59" y="161.7764">removeRoom(room : Room)</text><ellipse cx="790.59" cy="174.7266" fill="#84BE84" rx="3" ry="3" style="stroke:#038048;stroke-width:1;"/><text fill="#000000" font-family="sans-serif" font-size="14" lengthAdjust="spacing" textLength="235.7441" x="799.59" y="178.0732">pairDevice(device : SmartDevice)</text><ellipse cx="790.59" cy="191.0234" fill="#84BE84" rx="3" ry="3" style="stroke:#038048;stroke-width:1;"/><text fill="#000000" font-family="sans-serif" font-size="14" lengthAdjust="spacing" textLength="253.4902" x="799.59" y="194.3701">unpairDevice(device : SmartDevice)</text></g><!--class Room--><g id="elem_Room"><rect codeLine="36" fill="#F1F1F1" height="129.4844" id="Room" rx="2.5" ry="2.5" style="stroke:#181818;stroke-width:0.5;" width="288.1035" x="320.59" y="278.67"/><ellipse cx="440.1437" cy="294.67" fill="#ADD1B2" rx="11" ry="11" style="stroke:#181818;stroke-width:1;"/><path d="M443.1125,300.3106 Q442.5343,300.6075 441.8937,300.7481 Q441.2531,300.9044 440.55,300.9044 Q438.05,300.9044 436.7218,299.2638 Q435.4093,297.6075 435.4093,294.4825 Q435.4093,291.3575 436.7218,289.7013 Q438.05,288.045 440.55,288.045 Q441.2531,288.045 441.8937,288.2013 Q442.55,288.3575 443.1125,288.6544 L443.1125,291.3731 Q442.4875,290.795 441.8937,290.5294 Q441.3,290.2481 440.675,290.2481 Q439.3312,290.2481 438.6437,291.3263 Q437.9562,292.3888 437.9562,294.4825 Q437.9562,296.5763 438.6437,297.6544 Q439.3312,298.7169 440.675,298.7169 Q441.3,298.7169 441.8937,298.4513 Q442.4875,298.17 443.1125,297.5919 L443.1125,300.3106 Z " fill="#000000"/><text fill="#000000" font-family="sans-serif" font-size="14" lengthAdjust="spacing" textLength="40.4961" x="460.6437" y="299.5167">Room</text><line style="stroke:#181818;stroke-width:0.5;" x1="321.59" x2="607.6935" y1="310.67" y2="310.67"/><ellipse cx="331.59" cy="324.3184" fill="none" rx="3" ry="3" style="stroke:#038048;stroke-width:1;"/><text fill="#000000" font-family="sans-serif" font-size="14" lengthAdjust="spacing" textLength="132.8701" x="340.59" y="327.6651">nameLabel : String</text><ellipse cx="331.59" cy="340.6153" fill="none" rx="3" ry="3" style="stroke:#038048;stroke-width:1;"/><text fill="#000000" font-family="sans-serif" font-size="14" lengthAdjust="spacing" textLength="130.1084" x="340.59" y="343.962">miscStruct : String</text><ellipse cx="331.59" cy="356.9122" fill="none" rx="3" ry="3" style="stroke:#038048;stroke-width:1;"/><text fill="#000000" font-family="sans-serif" font-size="14" lengthAdjust="spacing" textLength="247.707" x="340.59" y="360.2589">smartDevices : List&lt;SmartDevice&gt;</text><line style="stroke:#181818;stroke-width:0.5;" x1="321.59" x2="607.6935" y1="367.5606" y2="367.5606"/><ellipse cx="331.59" cy="381.2091" fill="#84BE84" rx="3" ry="3" style="stroke:#038048;stroke-width:1;"/><text fill="#000000" font-family="sans-serif" font-size="14" lengthAdjust="spacing" textLength="234.9854" x="340.59" y="384.5557">addDevice(device : SmartDevice)</text><ellipse cx="331.59" cy="397.5059" fill="#84BE84" rx="3" ry="3" style="stroke:#038048;stroke-width:1;"/><text fill="#000000" font-family="sans-serif" font-size="14" lengthAdjust="spacing" textLength="262.1035" x="340.59" y="400.8526">removeDevice(device : SmartDevice)</text></g><!--class SmartDevice--><g id="elem_SmartDevice"><rect codeLine="44" fill="#F1F1F1" height="96.8906" id="SmartDevice" rx="2.5" ry="2.5" style="stroke:#181818;stroke-width:0.5;" width="312.5762" x="415.36" y="485.16"/><ellipse cx="522.2843" cy="501.16" fill="#ADD1B2" rx="11" ry="11" style="stroke:#181818;stroke-width:1;"/><path d="M525.2531,506.8006 Q524.6749,507.0975 524.0343,507.2381 Q523.3937,507.3944 522.6906,507.3944 Q520.1906,507.3944 518.8624,505.7538 Q517.5499,504.0975 517.5499,500.9725 Q517.5499,497.8475 518.8624,496.1913 Q520.1906,494.535 522.6906,494.535 Q523.3937,494.535 524.0343,494.6913 Q524.6906,494.8475 525.2531,495.1444 L525.2531,497.8631 Q524.6281,497.285 524.0343,497.0194 Q523.4406,496.7381 522.8156,496.7381 Q521.4718,496.7381 520.7843,497.8163 Q520.0968,498.8788 520.0968,500.9725 Q520.0968,503.0663 520.7843,504.1444 Q521.4718,505.2069 522.8156,505.2069 Q523.4406,505.2069 524.0343,504.9413 Q524.6281,504.66 525.2531,504.0819 L525.2531,506.8006 Z " fill="#000000"/><text fill="#000000" font-family="sans-serif" font-size="14" lengthAdjust="spacing" textLength="90.2275" x="542.7843" y="506.0067">SmartDevice</text><line style="stroke:#181818;stroke-width:0.5;" x1="416.36" x2="726.9362" y1="517.16" y2="517.16"/><ellipse cx="426.36" cy="530.8084" fill="none" rx="3" ry="3" style="stroke:#038048;stroke-width:1;"/><text fill="#000000" font-family="sans-serif" font-size="14" lengthAdjust="spacing" textLength="286.5762" x="435.36" y="534.1551">connectionType : List&lt;ConnectionType&gt;</text><ellipse cx="426.36" cy="547.1053" fill="none" rx="3" ry="3" style="stroke:#038048;stroke-width:1;"/><text fill="#000000" font-family="sans-serif" font-size="14" lengthAdjust="spacing" textLength="231.4307" x="435.36" y="550.452">poweredBy : List&lt;PowerSource&gt;</text><line style="stroke:#181818;stroke-width:0.5;" x1="416.36" x2="726.9362" y1="557.7538" y2="557.7538"/><ellipse cx="426.36" cy="571.4022" fill="#84BE84" rx="3" ry="3" style="stroke:#038048;stroke-width:1;"/><text fill="#000000" font-family="sans-serif" font-size="14" lengthAdjust="spacing" textLength="192.3428" x="435.36" y="574.7489">handleEvent(event : Event)</text></g><!--class SmartLight--><g id="elem_SmartLight"><rect codeLine="50" fill="#F1F1F1" height="48" id="SmartLight" rx="2.5" ry="2.5" style="stroke:#181818;stroke-width:0.5;" width="109.2871" x="7" y="683.49"/><ellipse cx="22" cy="699.49" fill="#ADD1B2" rx="11" ry="11" style="stroke:#181818;stroke-width:1;"/><path d="M24.9688,705.1306 Q24.3906,705.4275 23.75,705.5681 Q23.1094,705.7244 22.4063,705.7244 Q19.9063,705.7244 18.5781,704.0838 Q17.2656,702.4275 17.2656,699.3025 Q17.2656,696.1775 18.5781,694.5213 Q19.9063,692.865 22.4063,692.865 Q23.1094,692.865 23.75,693.0213 Q24.4063,693.1775 24.9688,693.4744 L24.9688,696.1931 Q24.3438,695.615 23.75,695.3494 Q23.1563,695.0681 22.5313,695.0681 Q21.1875,695.0681 20.5,696.1463 Q19.8125,697.2088 19.8125,699.3025 Q19.8125,701.3963 20.5,702.4744 Q21.1875,703.5369 22.5313,703.5369 Q23.1563,703.5369 23.75,703.2713 Q24.3438,702.99 24.9688,702.4119 L24.9688,705.1306 Z " fill="#000000"/><text fill="#000000" font-family="sans-serif" font-size="14" lengthAdjust="spacing" textLength="77.2871" x="36" y="704.3367">SmartLight</text><line style="stroke:#181818;stroke-width:0.5;" x1="8" x2="115.2871" y1="715.49" y2="715.49"/><line style="stroke:#181818;stroke-width:0.5;" x1="8" x2="115.2871" y1="723.49" y2="723.49"/></g><!--class SmartThermostat--><g id="elem_SmartThermostat"><rect codeLine="51" fill="#F1F1F1" height="48" id="SmartThermostat" rx="2.5" ry="2.5" style="stroke:#181818;stroke-width:0.5;" width="155.1973" x="151.04" y="683.49"/><ellipse cx="166.04" cy="699.49" fill="#ADD1B2" rx="11" ry="11" style="stroke:#181818;stroke-width:1;"/><path d="M169.0088,705.1306 Q168.4306,705.4275 167.79,705.5681 Q167.1494,705.7244 166.4463,705.7244 Q163.9463,705.7244 162.6181,704.0838 Q161.3056,702.4275 161.3056,699.3025 Q161.3056,696.1775 162.6181,694.5213 Q163.9463,692.865 166.4463,692.865 Q167.1494,692.865 167.79,693.0213 Q168.4463,693.1775 169.0088,693.4744 L169.0088,696.1931 Q168.3838,695.615 167.79,695.3494 Q167.1963,695.0681 166.5713,695.0681 Q165.2275,695.0681 164.54,696.1463 Q163.8525,697.2088 163.8525,699.3025 Q163.8525,701.3963 164.54,702.4744 Q165.2275,703.5369 166.5713,703.5369 Q167.1963,703.5369 167.79,703.2713 Q168.3838,702.99 169.0088,702.4119 L169.0088,705.1306 Z " fill="#000000"/><text fill="#000000" font-family="sans-serif" font-size="14" lengthAdjust="spacing" textLength="123.1973" x="180.04" y="704.3367">SmartThermostat</text><line style="stroke:#181818;stroke-width:0.5;" x1="152.04" x2="305.2373" y1="715.49" y2="715.49"/><line style="stroke:#181818;stroke-width:0.5;" x1="152.04" x2="305.2373" y1="723.49" y2="723.49"/></g><!--class SmartCamera--><g id="elem_SmartCamera"><rect codeLine="52" fill="#F1F1F1" height="48" id="SmartCamera" rx="2.5" ry="2.5" style="stroke:#181818;stroke-width:0.5;" width="129.2891" x="341" y="683.49"/><ellipse cx="356" cy="699.49" fill="#ADD1B2" rx="11" ry="11" style="stroke:#181818;stroke-width:1;"/><path d="M358.9688,705.1306 Q358.3906,705.4275 357.75,705.5681 Q357.1094,705.7244 356.4063,705.7244 Q353.9063,705.7244 352.5781,704.0838 Q351.2656,702.4275 351.2656,699.3025 Q351.2656,696.1775 352.5781,694.5213 Q353.9063,692.865 356.4063,692.865 Q357.1094,692.865 357.75,693.0213 Q358.4063,693.1775 358.9688,693.4744 L358.9688,696.1931 Q358.3438,695.615 357.75,695.3494 Q357.1563,695.0681 356.5313,695.0681 Q355.1875,695.0681 354.5,696.1463 Q353.8125,697.2088 353.8125,699.3025 Q353.8125,701.3963 354.5,702.4744 Q355.1875,703.5369 356.5313,703.5369 Q357.1563,703.5369 357.75,703.2713 Q358.3438,702.99 358.9688,702.4119 L358.9688,705.1306 Z " fill="#000000"/><text fill="#000000" font-family="sans-serif" font-size="14" lengthAdjust="spacing" textLength="97.2891" x="370" y="704.3367">SmartCamera</text><line style="stroke:#181818;stroke-width:0.5;" x1="342" x2="469.2891" y1="715.49" y2="715.49"/><line style="stroke:#181818;stroke-width:0.5;" x1="342" x2="469.2891" y1="723.49" y2="723.49"/></g><!--class SmartSpeaker--><g id="elem_SmartSpeaker"><rect codeLine="53" fill="#F1F1F1" height="48" id="SmartSpeaker" rx="2.5" ry="2.5" style="stroke:#181818;stroke-width:0.5;" width="131.791" x="505.75" y="683.49"/><ellipse cx="520.75" cy="699.49" fill="#ADD1B2" rx="11" ry="11" style="stroke:#181818;stroke-width:1;"/><path d="M523.7188,705.1306 Q523.1406,705.4275 522.5,705.5681 Q521.8594,705.7244 521.1563,705.7244 Q518.6563,705.7244 517.3281,704.0838 Q516.0156,702.4275 516.0156,699.3025 Q516.0156,696.1775 517.3281,694.5213 Q518.6563,692.865 521.1563,692.865 Q521.8594,692.865 522.5,693.0213 Q523.1563,693.1775 523.7188,693.4744 L523.7188,696.1931 Q523.0938,695.615 522.5,695.3494 Q521.9063,695.0681 521.2813,695.0681 Q519.9375,695.0681 519.25,696.1463 Q518.5625,697.2088 518.5625,699.3025 Q518.5625,701.3963 519.25,702.4744 Q519.9375,703.5369 521.2813,703.5369 Q521.9063,703.5369 522.5,703.2713 Q523.0938,702.99 523.7188,702.4119 L523.7188,705.1306 Z " fill="#000000"/><text fill="#000000" font-family="sans-serif" font-size="14" lengthAdjust="spacing" textLength="99.791" x="534.75" y="704.3367">SmartSpeaker</text><line style="stroke:#181818;stroke-width:0.5;" x1="506.75" x2="636.541" y1="715.49" y2="715.49"/><line style="stroke:#181818;stroke-width:0.5;" x1="506.75" x2="636.541" y1="723.49" y2="723.49"/></g><!--class SmartPlug--><g id="elem_SmartPlug"><rect codeLine="54" fill="#F1F1F1" height="48" id="SmartPlug" rx="2.5" ry="2.5" style="stroke:#181818;stroke-width:0.5;" width="104.4404" x="672.42" y="683.49"/><ellipse cx="687.42" cy="699.49" fill="#ADD1B2" rx="11" ry="11" style="stroke:#181818;stroke-width:1;"/><path d="M690.3888,705.1306 Q689.8106,705.4275 689.17,705.5681 Q688.5294,705.7244 687.8263,705.7244 Q685.3263,705.7244 683.9981,704.0838 Q682.6856,702.4275 682.6856,699.3025 Q682.6856,696.1775 683.9981,694.5213 Q685.3263,692.865 687.8263,692.865 Q688.5294,692.865 689.17,693.0213 Q689.8263,693.1775 690.3888,693.4744 L690.3888,696.1931 Q689.7638,695.615 689.17,695.3494 Q688.5763,695.0681 687.9513,695.0681 Q686.6075,695.0681 685.92,696.1463 Q685.2325,697.2088 685.2325,699.3025 Q685.2325,701.3963 685.92,702.4744 Q686.6075,703.5369 687.9513,703.5369 Q688.5763,703.5369 689.17,703.2713 Q689.7638,702.99 690.3888,702.4119 L690.3888,705.1306 Z " fill="#000000"/><text fill="#000000" font-family="sans-serif" font-size="14" lengthAdjust="spacing" textLength="72.4404" x="701.42" y="704.3367">SmartPlug</text><line style="stroke:#181818;stroke-width:0.5;" x1="673.42" x2="775.8604" y1="715.49" y2="715.49"/><line style="stroke:#181818;stroke-width:0.5;" x1="673.42" x2="775.8604" y1="723.49" y2="723.49"/></g><!--class SmartVacuum--><g id="elem_SmartVacuum"><rect codeLine="55" fill="#F1F1F1" height="48" id="SmartVacuum" rx="2.5" ry="2.5" style="stroke:#181818;stroke-width:0.5;" width="131.5859" x="811.85" y="683.49"/><ellipse cx="826.85" cy="699.49" fill="#ADD1B2" rx="11" ry="11" style="stroke:#181818;stroke-width:1;"/><path d="M829.8188,705.1306 Q829.2406,705.4275 828.6,705.5681 Q827.9594,705.7244 827.2563,705.7244 Q824.7563,705.7244 823.4281,704.0838 Q822.1156,702.4275 822.1156,699.3025 Q822.1156,696.1775 823.4281,694.5213 Q824.7563,692.865 827.2563,692.865 Q827.9594,692.865 828.6,693.0213 Q829.2563,693.1775 829.8188,693.4744 L829.8188,696.1931 Q829.1938,695.615 828.6,695.3494 Q828.0063,695.0681 827.3813,695.0681 Q826.0375,695.0681 825.35,696.1463 Q824.6625,697.2088 824.6625,699.3025 Q824.6625,701.3963 825.35,702.4744 Q826.0375,703.5369 827.3813,703.5369 Q828.0063,703.5369 828.6,703.2713 Q829.1938,702.99 829.8188,702.4119 L829.8188,705.1306 Z " fill="#000000"/><text fill="#000000" font-family="sans-serif" font-size="14" lengthAdjust="spacing" textLength="99.5859" x="840.85" y="704.3367">SmartVacuum</text><line style="stroke:#181818;stroke-width:0.5;" x1="812.85" x2="942.4359" y1="715.49" y2="715.49"/><line style="stroke:#181818;stroke-width:0.5;" x1="812.85" x2="942.4359" y1="723.49" y2="723.49"/></g><!--class HomeAssistant--><g id="elem_HomeAssistant"><rect codeLine="57" fill="#F1F1F1" height="48" id="HomeAssistant" rx="2.5" ry="2.5" style="stroke:#181818;stroke-width:0.5;" width="137.123" x="788.08" y="319.42"/><ellipse cx="803.08" cy="335.42" fill="#ADD1B2" rx="11" ry="11" style="stroke:#181818;stroke-width:1;"/><path d="M806.0488,341.0606 Q805.4706,341.3575 804.83,341.4981 Q804.1894,341.6544 803.4863,341.6544 Q800.9863,341.6544 799.6581,340.0138 Q798.3456,338.3575 798.3456,335.2325 Q798.3456,332.1075 799.6581,330.4513 Q800.9863,328.795 803.4863,328.795 Q804.1894,328.795 804.83,328.9513 Q805.4863,329.1075 806.0488,329.4044 L806.0488,332.1231 Q805.4238,331.545 804.83,331.2794 Q804.2363,330.9981 803.6113,330.9981 Q802.2675,330.9981 801.58,332.0763 Q800.8925,333.1388 800.8925,335.2325 Q800.8925,337.3263 801.58,338.4044 Q802.2675,339.4669 803.6113,339.4669 Q804.2363,339.4669 804.83,339.2013 Q805.4238,338.92 806.0488,338.3419 L806.0488,341.0606 Z " fill="#000000"/><text fill="#000000" font-family="sans-serif" font-size="14" lengthAdjust="spacing" textLength="105.123" x="817.08" y="340.2667">HomeAssistant</text><line style="stroke:#181818;stroke-width:0.5;" x1="789.08" x2="924.203" y1="351.42" y2="351.42"/><line style="stroke:#181818;stroke-width:0.5;" x1="789.08" x2="924.203" y1="359.42" y2="359.42"/></g><!--class DataLogger--><g id="elem_DataLogger"><rect codeLine="61" fill="#F1F1F1" height="48" id="DataLogger" rx="2.5" ry="2.5" style="stroke:#181818;stroke-width:0.5;" width="113.9355" x="960.68" y="319.42"/><ellipse cx="975.68" cy="335.42" fill="#ADD1B2" rx="11" ry="11" style="stroke:#181818;stroke-width:1;"/><path d="M978.6488,341.0606 Q978.0706,341.3575 977.43,341.4981 Q976.7894,341.6544 976.0863,341.6544 Q973.5863,341.6544 972.2581,340.0138 Q970.9456,338.3575 970.9456,335.2325 Q970.9456,332.1075 972.2581,330.4513 Q973.5863,328.795 976.0863,328.795 Q976.7894,328.795 977.43,328.9513 Q978.0863,329.1075 978.6488,329.4044 L978.6488,332.1231 Q978.0238,331.545 977.43,331.2794 Q976.8363,330.9981 976.2113,330.9981 Q974.8675,330.9981 974.18,332.0763 Q973.4925,333.1388 973.4925,335.2325 Q973.4925,337.3263 974.18,338.4044 Q974.8675,339.4669 976.2113,339.4669 Q976.8363,339.4669 977.43,339.2013 Q978.0238,338.92 978.6488,338.3419 L978.6488,341.0606 Z " fill="#000000"/><text fill="#000000" font-family="sans-serif" font-size="14" lengthAdjust="spacing" textLength="81.9355" x="989.68" y="340.2667">DataLogger</text><line style="stroke:#181818;stroke-width:0.5;" x1="961.68" x2="1073.6155" y1="351.42" y2="351.42"/><line style="stroke:#181818;stroke-width:0.5;" x1="961.68" x2="1073.6155" y1="359.42" y2="359.42"/></g><!--class PhoneApp--><g id="elem_PhoneApp"><rect codeLine="65" fill="#F1F1F1" height="80.5938" id="PhoneApp" rx="2.5" ry="2.5" style="stroke:#181818;stroke-width:0.5;" width="323.3359" x="1109.98" y="303.12"/><ellipse cx="1232.0391" cy="319.12" fill="#ADD1B2" rx="11" ry="11" style="stroke:#181818;stroke-width:1;"/><path d="M1235.0078,324.7606 Q1234.4297,325.0575 1233.7891,325.1981 Q1233.1485,325.3544 1232.4453,325.3544 Q1229.9453,325.3544 1228.6172,323.7138 Q1227.3047,322.0575 1227.3047,318.9325 Q1227.3047,315.8075 1228.6172,314.1513 Q1229.9453,312.495 1232.4453,312.495 Q1233.1485,312.495 1233.7891,312.6513 Q1234.4453,312.8075 1235.0078,313.1044 L1235.0078,315.8231 Q1234.3828,315.245 1233.7891,314.9794 Q1233.1953,314.6981 1232.5703,314.6981 Q1231.2266,314.6981 1230.5391,315.7763 Q1229.8516,316.8388 1229.8516,318.9325 Q1229.8516,321.0263 1230.5391,322.1044 Q1231.2266,323.1669 1232.5703,323.1669 Q1233.1953,323.1669 1233.7891,322.9013 Q1234.3828,322.62 1235.0078,322.0419 L1235.0078,324.7606 Z " fill="#000000"/><text fill="#000000" font-family="sans-serif" font-size="14" lengthAdjust="spacing" textLength="70.7178" x="1252.5391" y="323.9667">PhoneApp</text><line style="stroke:#181818;stroke-width:0.5;" x1="1110.98" x2="1432.3159" y1="335.12" y2="335.12"/><line style="stroke:#181818;stroke-width:0.5;" x1="1110.98" x2="1432.3159" y1="343.12" y2="343.12"/><ellipse cx="1120.98" cy="356.7684" fill="#84BE84" rx="3" ry="3" style="stroke:#038048;stroke-width:1;"/><text fill="#000000" font-family="sans-serif" font-size="14" lengthAdjust="spacing" textLength="297.3359" x="1129.98" y="360.1151">transmitCommand(command : Command)</text><ellipse cx="1120.98" cy="373.0653" fill="#84BE84" rx="3" ry="3" style="stroke:#038048;stroke-width:1;"/><text fill="#000000" font-family="sans-serif" font-size="14" lengthAdjust="spacing" textLength="275.1943" x="1129.98" y="376.412">receiveFeedback(feedback : Feedback)</text></g><!--class Human--><g id="elem_Human"><rect codeLine="70" fill="#F1F1F1" height="96.8906" id="Human" rx="2.5" ry="2.5" style="stroke:#181818;stroke-width:0.5;" width="297.9951" x="1207.65" y="55.89"/><ellipse cx="1327.1524" cy="71.89" fill="#ADD1B2" rx="11" ry="11" style="stroke:#181818;stroke-width:1;"/><path d="M1330.1212,77.5306 Q1329.5431,77.8275 1328.9024,77.9681 Q1328.2618,78.1244 1327.5587,78.1244 Q1325.0587,78.1244 1323.7306,76.4838 Q1322.4181,74.8275 1322.4181,71.7025 Q1322.4181,68.5775 1323.7306,66.9213 Q1325.0587,65.265 1327.5587,65.265 Q1328.2618,65.265 1328.9024,65.4213 Q1329.5587,65.5775 1330.1212,65.8744 L1330.1212,68.5931 Q1329.4962,68.015 1328.9024,67.7494 Q1328.3087,67.4681 1327.6837,67.4681 Q1326.3399,67.4681 1325.6524,68.5463 Q1324.9649,69.6088 1324.9649,71.7025 Q1324.9649,73.7963 1325.6524,74.8744 Q1326.3399,75.9369 1327.6837,75.9369 Q1328.3087,75.9369 1328.9024,75.6713 Q1329.4962,75.39 1330.1212,74.8119 L1330.1212,77.5306 Z " fill="#000000"/><text fill="#000000" font-family="sans-serif" font-size="14" lengthAdjust="spacing" textLength="50.4902" x="1347.6524" y="76.7367">Human</text><line style="stroke:#181818;stroke-width:0.5;" x1="1208.65" x2="1504.6451" y1="87.89" y2="87.89"/><ellipse cx="1218.65" cy="101.5384" fill="none" rx="3" ry="3" style="stroke:#038048;stroke-width:1;"/><text fill="#000000" font-family="sans-serif" font-size="14" lengthAdjust="spacing" textLength="95.1016" x="1227.65" y="104.8851">name : String</text><ellipse cx="1218.65" cy="117.8353" fill="none" rx="3" ry="3" style="stroke:#038048;stroke-width:1;"/><text fill="#000000" font-family="sans-serif" font-size="14" lengthAdjust="spacing" textLength="128.1465" x="1227.65" y="121.182">phone : PhoneApp</text><line style="stroke:#181818;stroke-width:0.5;" x1="1208.65" x2="1504.6451" y1="128.4838" y2="128.4838"/><ellipse cx="1218.65" cy="142.1322" fill="#84BE84" rx="3" ry="3" style="stroke:#038048;stroke-width:1;"/><text fill="#000000" font-family="sans-serif" font-size="14" lengthAdjust="spacing" textLength="271.9951" x="1227.65" y="145.4789">sendCommand(command : Command)</text></g><!--class Event--><g id="elem_Event"><rect codeLine="76" fill="#F1F1F1" height="96.8906" id="Event" rx="2.5" ry="2.5" style="stroke:#181818;stroke-width:0.5;" width="282.6143" x="978.34" y="659.05"/><ellipse cx="1095.3439" cy="675.05" fill="#ADD1B2" rx="11" ry="11" style="stroke:#181818;stroke-width:1;"/><path d="M1098.3127,680.6906 Q1097.7345,680.9875 1097.0939,681.1281 Q1096.4533,681.2844 1095.7502,681.2844 Q1093.2502,681.2844 1091.922,679.6438 Q1090.6095,677.9875 1090.6095,674.8625 Q1090.6095,671.7375 1091.922,670.0813 Q1093.2502,668.425 1095.7502,668.425 Q1096.4533,668.425 1097.0939,668.5813 Q1097.7502,668.7375 1098.3127,669.0344 L1098.3127,671.7531 Q1097.6877,671.175 1097.0939,670.9094 Q1096.5002,670.6281 1095.8752,670.6281 Q1094.5314,670.6281 1093.8439,671.7063 Q1093.1564,672.7688 1093.1564,674.8625 Q1093.1564,676.9563 1093.8439,678.0344 Q1094.5314,679.0969 1095.8752,679.0969 Q1096.5002,679.0969 1097.0939,678.8313 Q1097.6877,678.55 1098.3127,677.9719 L1098.3127,680.6906 Z " fill="#000000"/><text fill="#000000" font-family="sans-serif" font-size="14" lengthAdjust="spacing" textLength="40.1064" x="1115.8439" y="679.8967">Event</text><line style="stroke:#181818;stroke-width:0.5;" x1="979.34" x2="1259.9543" y1="691.05" y2="691.05"/><text fill="#000000" font-family="sans-serif" font-size="14" lengthAdjust="spacing" textLength="200.0059" x="984.34" y="708.0451">Represents events triggered</text><text fill="#000000" font-family="sans-serif" font-size="14" lengthAdjust="spacing" textLength="120.1074" x="984.34" y="724.342">by smart devices</text><line style="stroke:#181818;stroke-width:0.5;" x1="979.34" x2="1259.9543" y1="731.6438" y2="731.6438"/><text fill="#000000" font-family="sans-serif" font-size="14" lengthAdjust="spacing" textLength="270.6143" x="984.34" y="748.6389">(e.g., motion detected, door unlocked)</text></g><!--class Command--><g id="elem_Command"><rect codeLine="82" fill="#F1F1F1" height="96.8906" id="Command" rx="2.5" ry="2.5" style="stroke:#181818;stroke-width:0.5;" width="237.5518" x="1020.87" y="485.16"/><ellipse cx="1099.4183" cy="501.16" fill="#ADD1B2" rx="11" ry="11" style="stroke:#181818;stroke-width:1;"/><path d="M1102.3871,506.8006 Q1101.809,507.0975 1101.1683,507.2381 Q1100.5277,507.3944 1099.8246,507.3944 Q1097.3246,507.3944 1095.9965,505.7538 Q1094.684,504.0975 1094.684,500.9725 Q1094.684,497.8475 1095.9965,496.1913 Q1097.3246,494.535 1099.8246,494.535 Q1100.5277,494.535 1101.1683,494.6913 Q1101.8246,494.8475 1102.3871,495.1444 L1102.3871,497.8631 Q1101.7621,497.285 1101.1683,497.0194 Q1100.5746,496.7381 1099.9496,496.7381 Q1098.6058,496.7381 1097.9183,497.8163 Q1097.2308,498.8788 1097.2308,500.9725 Q1097.2308,503.0663 1097.9183,504.1444 Q1098.6058,505.2069 1099.9496,505.2069 Q1100.5746,505.2069 1101.1683,504.9413 Q1101.7621,504.66 1102.3871,504.0819 L1102.3871,506.8006 Z " fill="#000000"/><text fill="#000000" font-family="sans-serif" font-size="14" lengthAdjust="spacing" textLength="71.9551" x="1119.9183" y="506.0067">Command</text><line style="stroke:#181818;stroke-width:0.5;" x1="1021.87" x2="1257.4218" y1="517.16" y2="517.16"/><text fill="#000000" font-family="sans-serif" font-size="14" lengthAdjust="spacing" textLength="201.2363" x="1026.87" y="534.1551">Represents a command sent</text><text fill="#000000" font-family="sans-serif" font-size="14" lengthAdjust="spacing" textLength="225.5518" x="1026.87" y="550.452">from the Human via Middleware</text><text fill="#000000" font-family="sans-serif" font-size="14" lengthAdjust="spacing" textLength="120.3398" x="1026.87" y="566.7489">to the Main Node</text><line style="stroke:#181818;stroke-width:0.5;" x1="1021.87" x2="1257.4218" y1="574.0506" y2="574.0506"/></g><!--class Feedback--><g id="elem_Feedback"><rect codeLine="88" fill="#F1F1F1" height="96.8906" id="Feedback" rx="2.5" ry="2.5" style="stroke:#181818;stroke-width:0.5;" width="218.7188" x="1293.28" y="485.16"/><ellipse cx="1364.6711" cy="501.16" fill="#ADD1B2" rx="11" ry="11" style="stroke:#181818;stroke-width:1;"/><path d="M1367.6399,506.8006 Q1367.0617,507.0975 1366.4211,507.2381 Q1365.7805,507.3944 1365.0774,507.3944 Q1362.5774,507.3944 1361.2492,505.7538 Q1359.9367,504.0975 1359.9367,500.9725 Q1359.9367,497.8475 1361.2492,496.1913 Q1362.5774,494.535 1365.0774,494.535 Q1365.7805,494.535 1366.4211,494.6913 Q1367.0774,494.8475 1367.6399,495.1444 L1367.6399,497.8631 Q1367.0149,497.285 1366.4211,497.0194 Q1365.8274,496.7381 1365.2024,496.7381 Q1363.8586,496.7381 1363.1711,497.8163 Q1362.4836,498.8788 1362.4836,500.9725 Q1362.4836,503.0663 1363.1711,504.1444 Q1363.8586,505.2069 1365.2024,505.2069 Q1365.8274,505.2069 1366.4211,504.9413 Q1367.0149,504.66 1367.6399,504.0819 L1367.6399,506.8006 Z " fill="#000000"/><text fill="#000000" font-family="sans-serif" font-size="14" lengthAdjust="spacing" textLength="67.4365" x="1385.1711" y="506.0067">Feedback</text><line style="stroke:#181818;stroke-width:0.5;" x1="1294.28" x2="1510.9988" y1="517.16" y2="517.16"/><text fill="#000000" font-family="sans-serif" font-size="14" lengthAdjust="spacing" textLength="182.6426" x="1299.28" y="534.1551">Represents feedback sent</text><text fill="#000000" font-family="sans-serif" font-size="14" lengthAdjust="spacing" textLength="139.1729" x="1299.28" y="550.452">from the Main Node</text><text fill="#000000" font-family="sans-serif" font-size="14" lengthAdjust="spacing" textLength="206.7188" x="1299.28" y="566.7489">to the Human via Middleware</text><line style="stroke:#181818;stroke-width:0.5;" x1="1294.28" x2="1510.9988" y1="574.0506" y2="574.0506"/></g><!--link MainNode to Room--><g id="link_MainNode_Room"><path codeLine="99" d="M779.21,194.69 C773.35,197.2 767.48,199.55 761.64,201.67 C684.21,229.9 652.25,194.59 578.64,231.67 C555.97,243.1 534.87,260.61 517.14,278.36 " fill="none" id="MainNode-Room" style="stroke:#181818;stroke-width:1;"/><polygon fill="#000000" points="578.8769,241.7571,588.3873,241.8058,586.5996,236.2064,578.8769,241.7571" style="stroke:#000000;stroke-width:1;"/><text fill="#000000" font-family="sans-serif" font-size="13" lengthAdjust="spacing" textLength="59.8584" x="592.64" y="244.7369">manages</text><text fill="#000000" font-family="sans-serif" font-size="13" lengthAdjust="spacing" textLength="6.5" x="516.5812" y="267.4988">*</text></g><!--link MainNode to SmartDevice--><g id="link_MainNode_SmartDevice"><path codeLine="100" d="M779.09,199.68 C749.52,223.17 720.26,249.95 696.64,278.67 C682.5,295.87 625.73,416.01 593.78,484.7 " fill="none" id="MainNode-SmartDevice" style="stroke:#181818;stroke-width:1;"/><polygon fill="#000000" points="698.9146,347.6783,706.3089,341.6971,701.381,338.4931,698.9146,347.6783" style="stroke:#000000;stroke-width:1;"/><text fill="#000000" font-family="sans-serif" font-size="13" lengthAdjust="spacing" textLength="59.8584" x="710.64" y="347.9869">manages</text><text fill="#000000" font-family="sans-serif" font-size="13" lengthAdjust="spacing" textLength="6.5" x="590.3844" y="474.1964">*</text></g><!--reverse link MainNode to HomeAssistant--><g id="link_MainNode_HomeAssistant"><path codeLine="101" d="M884.9393,213.2712 C881.7393,223.2912 882.34,221.94 879.64,231.67 C871.37,261.58 864.55,296.75 860.54,319.3 " fill="none" id="MainNode-backto-HomeAssistant" style="stroke:#181818;stroke-width:1;"/><polygon fill="#181818" points="888.59,201.84,882.9543,206.3387,884.9393,213.2712,890.5751,208.7725,888.59,201.84" style="stroke:#181818;stroke-width:1;"/><polygon fill="#000000" points="883.5187,245.1091,888.4112,236.9534,882.6831,235.6353,883.5187,245.1091" style="stroke:#000000;stroke-width:1;"/><text fill="#000000" font-family="sans-serif" font-size="13" lengthAdjust="spacing" textLength="53.8726" x="893.64" y="244.7369">includes</text></g><!--reverse link MainNode to DataLogger--><g id="link_MainNode_DataLogger"><path codeLine="102" d="M966.4336,213.2649 C983.4936,256.2849 997.7,292.11 1008.49,319.33 " fill="none" id="MainNode-backto-DataLogger" style="stroke:#181818;stroke-width:1;"/><polygon fill="#181818" points="962.01,202.11,960.5035,209.162,966.4336,213.2649,967.9401,206.2129,962.01,202.11" style="stroke:#181818;stroke-width:1;"/><polygon fill="#000000" points="986.483,244.8844,985.881,235.3929,980.417,237.5594,986.483,244.8844" style="stroke:#000000;stroke-width:1;"/><text fill="#000000" font-family="sans-serif" font-size="13" lengthAdjust="spacing" textLength="53.8726" x="993.64" y="244.7369">includes</text></g><!--reverse link MainNode to PhoneApp--><g id="link_MainNode_PhoneApp"><path codeLine="103" d="M1042.3537,209.6171 C1062.6237,225.9071 1074.68,234.57 1095.64,248.67 C1124.8,268.28 1158.5,287.08 1188.57,302.63 " fill="none" id="MainNode-backto-PhoneApp" style="stroke:#181818;stroke-width:1;"/><polygon fill="#181818" points="1033,202.1,1035.1712,208.9765,1042.3537,209.6171,1040.1826,202.7407,1033,202.1" style="stroke:#181818;stroke-width:1;"/><polygon fill="#000000" points="1104.8587,242.9201,1098.8044,235.5855,1095.6495,240.545,1104.8587,242.9201" style="stroke:#000000;stroke-width:1;"/><text fill="#000000" font-family="sans-serif" font-size="13" lengthAdjust="spacing" textLength="53.8726" x="1109.64" y="244.7369">includes</text></g><!--link PhoneApp to MainNode--><g id="link_PhoneApp_MainNode"><path codeLine="121" d="M1240.29,302.84 C1220.98,280.15 1194.79,252.19 1167.64,231.67 C1137.2,208.66 1101.96,187.7 1067.88,169.74 " fill="none" id="PhoneApp-MainNode" style="stroke:#181818;stroke-width:1;"/><polygon fill="#000000" points="1188.6822,237.181,1194.046,245.0346,1197.6379,240.3819,1188.6822,237.181" style="stroke:#000000;stroke-width:1;"/><text fill="#000000" font-family="sans-serif" font-size="13" lengthAdjust="spacing" textLength="95.5005" x="1201.64" y="244.7369">communicates</text></g><!--reverse link Room to SmartDevice--><g id="link_Room_SmartDevice"><path codeLine="106" d="M507.0984,419.0833 C521.2584,444.0033 531.27,461.6 544.4,484.7 " fill="none" id="Room-backto-SmartDevice" style="stroke:#181818;stroke-width:1;"/><polygon fill="#181818" points="501.17,408.65,500.6564,415.8428,507.0984,419.0833,507.612,411.8905,501.17,408.65" style="stroke:#181818;stroke-width:1;"/><polygon fill="#000000" points="532.111,451.0731,530.1958,441.7574,525.086,444.6623,532.111,451.0731" style="stroke:#000000;stroke-width:1;"/><text fill="#000000" font-family="sans-serif" font-size="13" lengthAdjust="spacing" textLength="55.0278" x="538.64" y="451.2269">contains</text><text fill="#000000" font-family="sans-serif" font-size="13" lengthAdjust="spacing" textLength="6.5" x="534.369" y="474.1964">*</text></g><!--reverse link SmartDevice to SmartLight--><g id="link_SmartDevice_SmartLight"><path codeLine="109" d="M397.5003,571.0141 C312.0803,591.5841 223.29,617.96 133.64,659.05 C119.49,665.54 104.95,674.58 92.68,683.04 " fill="none" id="SmartDevice-backto-SmartLight" style="stroke:#181818;stroke-width:1;"/><polygon fill="none" points="415,566.8,396.0955,565.1809,398.905,576.8474,415,566.8" style="stroke:#181818;stroke-width:1;"/></g><!--reverse link SmartDevice to SmartThermostat--><g id="link_SmartDevice_SmartThermostat"><path codeLine="110" d="M460.0072,590.5536 C394.5872,623.3336 326.8,657.31 275.42,683.05 " fill="none" id="SmartDevice-backto-SmartThermostat" style="stroke:#181818;stroke-width:1;"/><polygon fill="none" points="476.1,582.49,457.3193,585.1894,462.6951,595.9179,476.1,582.49" style="stroke:#181818;stroke-width:1;"/></g><!--reverse link SmartDevice to SmartCamera--><g id="link_SmartDevice_SmartCamera"><path codeLine="111" d="M512.8972,595.4392 C481.2472,628.2192 453.15,657.31 428.28,683.05 " fill="none" id="SmartDevice-backto-SmartCamera" style="stroke:#181818;stroke-width:1;"/><polygon fill="none" points="525.4,582.49,508.5808,591.2716,517.2136,599.6067,525.4,582.49" style="stroke:#181818;stroke-width:1;"/></g><!--reverse link SmartDevice to SmartSpeaker--><g id="link_SmartDevice_SmartSpeaker"><path codeLine="112" d="M571.64,600.49 C571.64,633.27 571.64,657.31 571.64,683.05 " fill="none" id="SmartDevice-backto-SmartSpeaker" style="stroke:#181818;stroke-width:1;"/><polygon fill="none" points="571.64,582.49,565.64,600.49,577.64,600.49,571.64,582.49" style="stroke:#181818;stroke-width:1;"/></g><!--reverse link SmartDevice to SmartPlug--><g id="link_SmartDevice_SmartPlug"><path codeLine="113" d="M626.2282,595.9348 C655.4082,628.7148 680.86,657.31 703.78,683.05 " fill="none" id="SmartDevice-backto-SmartPlug" style="stroke:#181818;stroke-width:1;"/><polygon fill="none" points="614.26,582.49,621.7466,599.9242,630.7098,591.9454,614.26,582.49" style="stroke:#181818;stroke-width:1;"/></g><!--reverse link SmartDevice to SmartVacuum--><g id="link_SmartDevice_SmartVacuum"><path codeLine="114" d="M673.5278,591.1641 C714.9578,614.2241 749.57,633.59 794.64,659.05 C808.37,666.8 823.34,675.34 836.74,683 " fill="none" id="SmartDevice-backto-SmartVacuum" style="stroke:#181818;stroke-width:1;"/><polygon fill="none" points="657.8,582.41,670.6098,596.4068,676.4459,585.9215,657.8,582.41" style="stroke:#181818;stroke-width:1;"/></g><!--link SmartDevice to Event--><g id="link_SmartDevice_Event"><path codeLine="117" d="M724.29,582.49 C803.78,607.42 900.35,637.71 978.15,662.11 " fill="none" id="SmartDevice-Event" style="stroke:#181818;stroke-width:1;"/><polygon fill="#000000" points="872.4109,622.1127,864.6598,616.6016,862.9008,622.2101,872.4109,622.1127" style="stroke:#000000;stroke-width:1;"/><text fill="#000000" font-family="sans-serif" font-size="13" lengthAdjust="spacing" textLength="50.6733" x="876.64" y="625.1169">triggers</text><text fill="#000000" font-family="sans-serif" font-size="13" lengthAdjust="spacing" textLength="6.5" x="963.8107" y="656.1233">*</text></g><!--link Human to PhoneApp--><g id="link_Human_PhoneApp"><path codeLine="120" d="M1346.05,153.19 C1339.2,181.4 1329.39,217.55 1317.64,248.67 C1310.73,266.99 1301.46,286.54 1293.06,303.02 " fill="none" id="Human-PhoneApp" style="stroke:#181818;stroke-width:1;"/><polygon fill="#000000" points="1326.9729,244.9503,1332.7595,237.4027,1327.218,235.4429,1326.9729,244.9503" style="stroke:#000000;stroke-width:1;"/><text fill="#000000" font-family="sans-serif" font-size="13" lengthAdjust="spacing" textLength="29.7832" x="1337.64" y="244.7369">uses</text></g><!--reverse link PhoneApp to Feedback--><g id="link_PhoneApp_Feedback"><path codeLine="122" d="M1302.538,388.7943 C1323.018,418.2143 1347.66,453.62 1369.41,484.87 " fill="none" id="PhoneApp-backto-Feedback" style="stroke:#181818;stroke-width:1;"/><polygon fill="#181818" points="1299.11,383.87,1300.969,393.5418,1301.9666,387.9736,1307.5348,388.9712,1299.11,383.87" style="stroke:#181818;stroke-width:1;"/><polygon fill="#000000" points="1353.4964,450.8302,1350.7413,441.7274,1345.917,445.0853,1353.4964,450.8302" style="stroke:#000000;stroke-width:1;"/><text fill="#000000" font-family="sans-serif" font-size="13" lengthAdjust="spacing" textLength="53.8726" x="1359.64" y="451.2269">includes</text></g><!--reverse link PhoneApp to Command--><g id="link_PhoneApp_Command"><path codeLine="123" d="M1240.5241,388.7818 C1219.8841,418.2018 1195.04,453.62 1173.13,484.87 " fill="none" id="PhoneApp-backto-Command" style="stroke:#181818;stroke-width:1;"/><polygon fill="#181818" points="1243.97,383.87,1235.5266,388.9404,1241.0984,387.9632,1242.0756,393.535,1243.97,383.87" style="stroke:#181818;stroke-width:1;"/><polygon fill="#000000" points="1207.7689,450.8199,1215.3689,445.1023,1210.5567,441.7271,1207.7689,450.8199" style="stroke:#000000;stroke-width:1;"/><text fill="#000000" font-family="sans-serif" font-size="13" lengthAdjust="spacing" textLength="53.8726" x="1219.64" y="451.2269">includes</text></g><!--SRC=[hLLVJzim47_lfx1uQSU03r0n92X589KDKJQalRdsDRL8xCXsYggDxxwpOxiE3T1foqDYt_ryTxu_lmp9btUVmP34PogR2ZIrGac3uW_E3G3XPAAa1EQEF6ng8By6pj2Zk19-yLCK2u1sUVn8r-toecp0AcLNVZUrAz0IxE0bcBnJpw3dgj4ishkWreBU-FKj5HYTMyrLIRLVVNCctFdX_fV5Pr9IOs2VgpA7zAw_AXwZ-ao-tv0vw3NeiB-abfAPAeeacQkbVQOQo9XSgmh8kJ72M2fjq5FEBs4j68ou_o1kNb5jM-6dWD9GgJNi0KHpzqfL8uqlHBXrryPRsfeAlOVzHdu8V8dPSkPJfYIjO4ONK3gurK8MGL49mr3GCFjQOxPM3UfccBVJpDFP_yvW2ZoJflXPjyr3EDtcZn7Lhd-1NsmYB6leY5bHoKkOha7Q4RWtOltkTHmpKQniBdZ0LgyKzb17Eg5kSdF9l0RwX7sOYUxAfiZtFoXhcYgwS_sPsZDSV4XkmQuKDmJZ9JY5MYmQY_LWL98540vB8G4rXaW03dmRlPk5TXJ-tTRTIaauh-jK3gkfD9Mm4rLLQ6t4sYycCKYsTMSWrd251XUKFOsMOO78ACioVjtWsKxFlcxAsaM2mXXHx5MG_9rOaWDVuk3W7ceDUD0QuZl0uAs4onVcm0CMctO620z3uAKZE2bEZaYbNDkXoc830ZyYN2cDyragzWIvon34hbDAOgHkxxLBZIEBN1eIiHQKt0gEZUefp4EiyW17XSHnuTPHp6VmbBjAMNVRrixMLp8L5C53NmX_IV7tKBO_ivMezs7vuPRXSH0K4-5NcAJ7n-JWyA1bjZ71-6Y1PJdR0UGCqeixH61ttiP4I5OsV1UN3TBRe3GX7GZUoCUAFL0h8znj1bvms1ieafnrVzVsPAwxaSWw0WDbCCZbfx_HKCPJ_RgCile1WRtwbP78-hMUq_fLaTwwLy7sQgSmAt77G4ZDDB1o6CgGbBOhtT2aZETsMdMt7etnjKWIrARIZVqCDb8mQhieSegugorRfQhkW2Q9RpBC7m00]--></g></svg>