<svg xmlns="http://www.w3.org/2000/svg" xmlns:xlink="http://www.w3.org/1999/xlink" contentStyleType="text/css" height="778px" preserveAspectRatio="none" style="width:1558px;height:778px;background:#FFFFFF;" version="1.1" viewBox="0 0 1558 778" width="1558px" zoomAndPan="magnify"><defs/><g><!--class ConnectionType--><g id="elem_ConnectionType"><rect codeLine="5" fill="#F1F1F1" height="129.4844" id="ConnectionType" rx="2.5" ry="2.5" style="stroke:#181818;stroke-width:0.5;" width="145.5518" x="282.5" y="40"/><ellipse cx="297.5" cy="56" fill="#EB937F" rx="11" ry="11" style="stroke:#181818;stroke-width:1;"/><path d="M301.6094,62 L293.8906,62 L293.8906,49.6094 L301.6094,49.6094 L301.6094,51.7656 L296.3438,51.7656 L296.3438,54.4375 L301.1094,54.4375 L301.1094,56.5938 L296.3438,56.5938 L296.3438,59.8438 L301.6094,59.8438 L301.6094,62 Z " fill="#000000"/><text fill="#000000" font-family="sans-serif" font-size="14" lengthAdjust="spacing" textLength="113.5518" x="311.5" y="60.8467">ConnectionType</text><line style="stroke:#181818;stroke-width:0.5;" x1="283.5" x2="427.0518" y1="72" y2="72"/><text fill="#000000" font-family="sans-serif" font-size="14" lengthAdjust="spacing" textLength="29.6748" x="288.5" y="88.9951">WiFi</text><text fill="#000000" font-family="sans-serif" font-size="14" lengthAdjust="spacing" textLength="48.4805" x="288.5" y="105.292">Zigbee</text><text fill="#000000" font-family="sans-serif" font-size="14" lengthAdjust="spacing" textLength="53.9629" x="288.5" y="121.5889">Z-Wave</text><text fill="#000000" font-family="sans-serif" font-size="14" lengthAdjust="spacing" textLength="67.9629" x="288.5" y="137.8857">Bluetooth</text><text fill="#000000" font-family="sans-serif" font-size="14" lengthAdjust="spacing" textLength="60.5527" x="288.5" y="154.1826">Ethernet</text><line style="stroke:#181818;stroke-width:0.5;" x1="283.5" x2="427.0518" y1="161.4844" y2="161.4844"/></g><!--class PowerSource--><g id="elem_PowerSource"><rect codeLine="13" fill="#F1F1F1" height="113.1875" id="PowerSource" rx="2.5" ry="2.5" style="stroke:#181818;stroke-width:0.5;" width="123.2188" x="464" y="48"/><ellipse cx="479" cy="64" fill="#EB937F" rx="11" ry="11" style="stroke:#181818;stroke-width:1;"/><path d="M483.1094,70 L475.3906,70 L475.3906,57.6094 L483.1094,57.6094 L483.1094,59.7656 L477.8438,59.7656 L477.8438,62.4375 L482.6094,62.4375 L482.6094,64.5938 L477.8438,64.5938 L477.8438,67.8438 L483.1094,67.8438 L483.1094,70 Z " fill="#000000"/><text fill="#000000" font-family="sans-serif" font-size="14" lengthAdjust="spacing" textLength="91.2188" x="493" y="68.8467">PowerSource</text><line style="stroke:#181818;stroke-width:0.5;" x1="465" x2="586.2188" y1="80" y2="80"/><text fill="#000000" font-family="sans-serif" font-size="14" lengthAdjust="spacing" textLength="51.8164" x="470" y="96.9951">Battery</text><text fill="#000000" font-family="sans-serif" font-size="14" lengthAdjust="spacing" textLength="40.7148" x="470" y="113.292">Mains</text><text fill="#000000" font-family="sans-serif" font-size="14" lengthAdjust="spacing" textLength="35.6768" x="470" y="129.5889">Solar</text><text fill="#000000" font-family="sans-serif" font-size="14" lengthAdjust="spacing" textLength="39.751" x="470" y="145.8857">Other</text><line style="stroke:#181818;stroke-width:0.5;" x1="465" x2="586.2188" y1="153.1875" y2="153.1875"/></g><!--class EventType--><g id="elem_EventType"><rect codeLine="20" fill="#F1F1F1" height="80.5938" id="EventType" rx="2.5" ry="2.5" style="stroke:#181818;stroke-width:0.5;" width="117.2461" x="297" y="303"/><ellipse cx="316.8612" cy="319" fill="#EB937F" rx="11" ry="11" style="stroke:#181818;stroke-width:1;"/><path d="M320.9706,325 L313.2519,325 L313.2519,312.6094 L320.9706,312.6094 L320.9706,314.7656 L315.705,314.7656 L315.705,317.4375 L320.4706,317.4375 L320.4706,319.5938 L315.705,319.5938 L315.705,322.8438 L320.9706,322.8438 L320.9706,325 Z " fill="#000000"/><text fill="#000000" font-family="sans-serif" font-size="14" lengthAdjust="spacing" textLength="74.4434" x="331.9415" y="323.8467">EventType</text><line style="stroke:#181818;stroke-width:0.5;" x1="298" x2="413.2461" y1="335" y2="335"/><text fill="#000000" font-family="sans-serif" font-size="14" lengthAdjust="spacing" textLength="105.2461" x="303" y="351.9951">DEVICE_EVENT</text><text fill="#000000" font-family="sans-serif" font-size="14" lengthAdjust="spacing" textLength="79.7549" x="303" y="368.292">APP_EVENT</text><line style="stroke:#181818;stroke-width:0.5;" x1="298" x2="413.2461" y1="375.5938" y2="375.5938"/></g><!--class Direction--><g id="elem_Direction"><rect codeLine="25" fill="#F1F1F1" height="80.5938" id="Direction" rx="2.5" ry="2.5" style="stroke:#181818;stroke-width:0.5;" width="95.5537" x="449.5" y="303"/><ellipse cx="464.5" cy="319" fill="#EB937F" rx="11" ry="11" style="stroke:#181818;stroke-width:1;"/><path d="M468.6094,325 L460.8906,325 L460.8906,312.6094 L468.6094,312.6094 L468.6094,314.7656 L463.3438,314.7656 L463.3438,317.4375 L468.1094,317.4375 L468.1094,319.5938 L463.3438,319.5938 L463.3438,322.8438 L468.6094,322.8438 L468.6094,325 Z " fill="#000000"/><text fill="#000000" font-family="sans-serif" font-size="14" lengthAdjust="spacing" textLength="63.5537" x="478.5" y="323.8467">Direction</text><line style="stroke:#181818;stroke-width:0.5;" x1="450.5" x2="544.0537" y1="335" y2="335"/><text fill="#000000" font-family="sans-serif" font-size="14" lengthAdjust="spacing" textLength="53.0332" x="455.5" y="351.9951">TO_APP</text><text fill="#000000" font-family="sans-serif" font-size="14" lengthAdjust="spacing" textLength="74.3408" x="455.5" y="368.292">FROM_APP</text><line style="stroke:#181818;stroke-width:0.5;" x1="450.5" x2="544.0537" y1="375.5938" y2="375.5938"/></g><!--class MainNode--><g id="elem_MainNode"><rect codeLine="34" fill="#F1F1F1" height="194.6719" id="MainNode" rx="2.5" ry="2.5" style="stroke:#181818;stroke-width:0.5;" width="369.0615" x="875" y="7"/><ellipse cx="1020.3013" cy="23" fill="#ADD1B2" rx="11" ry="11" style="stroke:#181818;stroke-width:1;"/><path d="M1023.27,28.6406 Q1022.6919,28.9375 1022.0513,29.0781 Q1021.4106,29.2344 1020.7075,29.2344 Q1018.2075,29.2344 1016.8794,27.5938 Q1015.5669,25.9375 1015.5669,22.8125 Q1015.5669,19.6875 1016.8794,18.0313 Q1018.2075,16.375 1020.7075,16.375 Q1021.4106,16.375 1022.0513,16.5313 Q1022.7075,16.6875 1023.27,16.9844 L1023.27,19.7031 Q1022.645,19.125 1022.0513,18.8594 Q1021.4575,18.5781 1020.8325,18.5781 Q1019.4888,18.5781 1018.8013,19.6563 Q1018.1138,20.7188 1018.1138,22.8125 Q1018.1138,24.9063 1018.8013,25.9844 Q1019.4888,27.0469 1020.8325,27.0469 Q1021.4575,27.0469 1022.0513,26.7813 Q1022.645,26.5 1023.27,25.9219 L1023.27,28.6406 Z " fill="#000000"/><text fill="#000000" font-family="sans-serif" font-size="14" lengthAdjust="spacing" textLength="69.959" x="1040.8013" y="27.8467">MainNode</text><line style="stroke:#181818;stroke-width:0.5;" x1="876" x2="1243.0615" y1="39" y2="39"/><ellipse cx="886" cy="52.6484" fill="none" rx="3" ry="3" style="stroke:#038048;stroke-width:1;"/><text fill="#000000" font-family="sans-serif" font-size="14" lengthAdjust="spacing" textLength="251.5625" x="895" y="55.9951">pairedDevices : List&lt;SmartDevice&gt;</text><ellipse cx="886" cy="68.9453" fill="none" rx="3" ry="3" style="stroke:#038048;stroke-width:1;"/><text fill="#000000" font-family="sans-serif" font-size="14" lengthAdjust="spacing" textLength="209.1729" x="895" y="72.292">linkedApps : List&lt;PhoneApp&gt;</text><ellipse cx="886" cy="85.2422" fill="none" rx="3" ry="3" style="stroke:#038048;stroke-width:1;"/><text fill="#000000" font-family="sans-serif" font-size="14" lengthAdjust="spacing" textLength="163.0439" x="895" y="88.5889">roomList : List&lt;Room&gt;</text><line style="stroke:#181818;stroke-width:0.5;" x1="876" x2="1243.0615" y1="95.8906" y2="95.8906"/><ellipse cx="886" cy="109.5391" fill="#84BE84" rx="3" ry="3" style="stroke:#038048;stroke-width:1;"/><text fill="#000000" font-family="sans-serif" font-size="14" lengthAdjust="spacing" textLength="192.3428" x="895" y="112.8857">handleEvent(event : Event)</text><ellipse cx="886" cy="125.8359" fill="#84BE84" rx="3" ry="3" style="stroke:#038048;stroke-width:1;"/><text fill="#000000" font-family="sans-serif" font-size="14" lengthAdjust="spacing" textLength="343.0615" x="895" y="129.1826">sendEventToDevice(deviceId : int, event : Event)</text><ellipse cx="886" cy="142.1328" fill="#84BE84" rx="3" ry="3" style="stroke:#038048;stroke-width:1;"/><text fill="#000000" font-family="sans-serif" font-size="14" lengthAdjust="spacing" textLength="234.9854" x="895" y="145.4795">addDevice(device : SmartDevice)</text><ellipse cx="886" cy="158.4297" fill="#84BE84" rx="3" ry="3" style="stroke:#038048;stroke-width:1;"/><text fill="#000000" font-family="sans-serif" font-size="14" lengthAdjust="spacing" textLength="262.1035" x="895" y="161.7764">removeDevice(device : SmartDevice)</text><ellipse cx="886" cy="174.7266" fill="#84BE84" rx="3" ry="3" style="stroke:#038048;stroke-width:1;"/><text fill="#000000" font-family="sans-serif" font-size="14" lengthAdjust="spacing" textLength="168.4102" x="895" y="178.0732">addRoom(room : Room)</text><ellipse cx="886" cy="191.0234" fill="#84BE84" rx="3" ry="3" style="stroke:#038048;stroke-width:1;"/><text fill="#000000" font-family="sans-serif" font-size="14" lengthAdjust="spacing" textLength="195.5283" x="895" y="194.3701">removeRoom(room : Room)</text></g><!--class Room--><g id="elem_Room"><rect codeLine="46" fill="#F1F1F1" height="129.4844" id="Room" rx="2.5" ry="2.5" style="stroke:#181818;stroke-width:0.5;" width="288.1035" x="580.5" y="279"/><ellipse cx="700.0537" cy="295" fill="#ADD1B2" rx="11" ry="11" style="stroke:#181818;stroke-width:1;"/><path d="M703.0225,300.6406 Q702.4443,300.9375 701.8037,301.0781 Q701.1631,301.2344 700.46,301.2344 Q697.96,301.2344 696.6318,299.5938 Q695.3193,297.9375 695.3193,294.8125 Q695.3193,291.6875 696.6318,290.0313 Q697.96,288.375 700.46,288.375 Q701.1631,288.375 701.8037,288.5313 Q702.46,288.6875 703.0225,288.9844 L703.0225,291.7031 Q702.3975,291.125 701.8037,290.8594 Q701.21,290.5781 700.585,290.5781 Q699.2412,290.5781 698.5537,291.6563 Q697.8662,292.7188 697.8662,294.8125 Q697.8662,296.9063 698.5537,297.9844 Q699.2412,299.0469 700.585,299.0469 Q701.21,299.0469 701.8037,298.7813 Q702.3975,298.5 703.0225,297.9219 L703.0225,300.6406 Z " fill="#000000"/><text fill="#000000" font-family="sans-serif" font-size="14" lengthAdjust="spacing" textLength="40.4961" x="720.5537" y="299.8467">Room</text><line style="stroke:#181818;stroke-width:0.5;" x1="581.5" x2="867.6035" y1="311" y2="311"/><ellipse cx="591.5" cy="324.6484" fill="none" rx="3" ry="3" style="stroke:#038048;stroke-width:1;"/><text fill="#000000" font-family="sans-serif" font-size="14" lengthAdjust="spacing" textLength="132.8701" x="600.5" y="327.9951">nameLabel : String</text><ellipse cx="591.5" cy="340.9453" fill="none" rx="3" ry="3" style="stroke:#038048;stroke-width:1;"/><text fill="#000000" font-family="sans-serif" font-size="14" lengthAdjust="spacing" textLength="114.4131" x="600.5" y="344.292">miscInfo : String</text><ellipse cx="591.5" cy="357.2422" fill="none" rx="3" ry="3" style="stroke:#038048;stroke-width:1;"/><text fill="#000000" font-family="sans-serif" font-size="14" lengthAdjust="spacing" textLength="222.2363" x="600.5" y="360.5889">deviceList : List&lt;SmartDevice&gt;</text><line style="stroke:#181818;stroke-width:0.5;" x1="581.5" x2="867.6035" y1="367.8906" y2="367.8906"/><ellipse cx="591.5" cy="381.5391" fill="#84BE84" rx="3" ry="3" style="stroke:#038048;stroke-width:1;"/><text fill="#000000" font-family="sans-serif" font-size="14" lengthAdjust="spacing" textLength="234.9854" x="600.5" y="384.8857">addDevice(device : SmartDevice)</text><ellipse cx="591.5" cy="397.8359" fill="#84BE84" rx="3" ry="3" style="stroke:#038048;stroke-width:1;"/><text fill="#000000" font-family="sans-serif" font-size="14" lengthAdjust="spacing" textLength="262.1035" x="600.5" y="401.1826">removeDevice(device : SmartDevice)</text></g><!--class SmartDevice--><g id="elem_SmartDevice"><rect codeLine="54" fill="#F1F1F1" height="113.1875" id="SmartDevice" rx="2.5" ry="2.5" style="stroke:#181818;stroke-width:0.5;" width="312.5762" x="568" y="485"/><ellipse cx="674.9243" cy="501" fill="#A9DCDF" rx="11" ry="11" style="stroke:#181818;stroke-width:1;"/><path d="M675.0337,496.3438 L673.8774,501.4219 L676.2056,501.4219 L675.0337,496.3438 Z M673.5493,494.1094 L676.5337,494.1094 L679.8931,506.5 L677.4399,506.5 L676.6743,503.4375 L673.3931,503.4375 L672.6431,506.5 L670.2056,506.5 L673.5493,494.1094 Z " fill="#000000"/><text fill="#000000" font-family="sans-serif" font-size="14" font-style="italic" lengthAdjust="spacing" textLength="90.2275" x="695.4243" y="505.8467">SmartDevice</text><line style="stroke:#181818;stroke-width:0.5;" x1="569" x2="879.5762" y1="517" y2="517"/><ellipse cx="579" cy="530.6484" fill="none" rx="3" ry="3" style="stroke:#038048;stroke-width:1;"/><text fill="#000000" font-family="sans-serif" font-size="14" lengthAdjust="spacing" textLength="286.5762" x="588" y="533.9951">connectionType : List&lt;ConnectionType&gt;</text><ellipse cx="579" cy="546.9453" fill="none" rx="3" ry="3" style="stroke:#038048;stroke-width:1;"/><text fill="#000000" font-family="sans-serif" font-size="14" lengthAdjust="spacing" textLength="231.4307" x="588" y="550.292">poweredBy : List&lt;PowerSource&gt;</text><line style="stroke:#181818;stroke-width:0.5;" x1="569" x2="879.5762" y1="557.5938" y2="557.5938"/><ellipse cx="579" cy="571.2422" fill="#84BE84" rx="3" ry="3" style="stroke:#038048;stroke-width:1;"/><text fill="#000000" font-family="sans-serif" font-size="14" lengthAdjust="spacing" textLength="178.2949" x="588" y="574.5889">sendEvent(event : Event)</text><ellipse cx="579" cy="587.5391" fill="#84BE84" rx="3" ry="3" style="stroke:#038048;stroke-width:1;"/><text fill="#000000" font-family="sans-serif" font-size="14" font-style="italic" lengthAdjust="spacing" textLength="192.3428" x="588" y="590.8857">handleEvent(event : Event)</text></g><!--class SmartLight--><g id="elem_SmartLight"><rect codeLine="61" fill="#F1F1F1" height="48" id="SmartLight" rx="2.5" ry="2.5" style="stroke:#181818;stroke-width:0.5;" width="109.2871" x="7" y="699.5"/><ellipse cx="22" cy="715.5" fill="#ADD1B2" rx="11" ry="11" style="stroke:#181818;stroke-width:1;"/><path d="M24.9688,721.1406 Q24.3906,721.4375 23.75,721.5781 Q23.1094,721.7344 22.4063,721.7344 Q19.9063,721.7344 18.5781,720.0938 Q17.2656,718.4375 17.2656,715.3125 Q17.2656,712.1875 18.5781,710.5313 Q19.9063,708.875 22.4063,708.875 Q23.1094,708.875 23.75,709.0313 Q24.4063,709.1875 24.9688,709.4844 L24.9688,712.2031 Q24.3438,711.625 23.75,711.3594 Q23.1563,711.0781 22.5313,711.0781 Q21.1875,711.0781 20.5,712.1563 Q19.8125,713.2188 19.8125,715.3125 Q19.8125,717.4063 20.5,718.4844 Q21.1875,719.5469 22.5313,719.5469 Q23.1563,719.5469 23.75,719.2813 Q24.3438,719 24.9688,718.4219 L24.9688,721.1406 Z " fill="#000000"/><text fill="#000000" font-family="sans-serif" font-size="14" lengthAdjust="spacing" textLength="77.2871" x="36" y="720.3467">SmartLight</text><line style="stroke:#181818;stroke-width:0.5;" x1="8" x2="115.2871" y1="731.5" y2="731.5"/><line style="stroke:#181818;stroke-width:0.5;" x1="8" x2="115.2871" y1="739.5" y2="739.5"/></g><!--class SmartThermostat--><g id="elem_SmartThermostat"><rect codeLine="62" fill="#F1F1F1" height="48" id="SmartThermostat" rx="2.5" ry="2.5" style="stroke:#181818;stroke-width:0.5;" width="155.1973" x="151" y="699.5"/><ellipse cx="166" cy="715.5" fill="#ADD1B2" rx="11" ry="11" style="stroke:#181818;stroke-width:1;"/><path d="M168.9688,721.1406 Q168.3906,721.4375 167.75,721.5781 Q167.1094,721.7344 166.4063,721.7344 Q163.9063,721.7344 162.5781,720.0938 Q161.2656,718.4375 161.2656,715.3125 Q161.2656,712.1875 162.5781,710.5313 Q163.9063,708.875 166.4063,708.875 Q167.1094,708.875 167.75,709.0313 Q168.4063,709.1875 168.9688,709.4844 L168.9688,712.2031 Q168.3438,711.625 167.75,711.3594 Q167.1563,711.0781 166.5313,711.0781 Q165.1875,711.0781 164.5,712.1563 Q163.8125,713.2188 163.8125,715.3125 Q163.8125,717.4063 164.5,718.4844 Q165.1875,719.5469 166.5313,719.5469 Q167.1563,719.5469 167.75,719.2813 Q168.3438,719 168.9688,718.4219 L168.9688,721.1406 Z " fill="#000000"/><text fill="#000000" font-family="sans-serif" font-size="14" lengthAdjust="spacing" textLength="123.1973" x="180" y="720.3467">SmartThermostat</text><line style="stroke:#181818;stroke-width:0.5;" x1="152" x2="305.1973" y1="731.5" y2="731.5"/><line style="stroke:#181818;stroke-width:0.5;" x1="152" x2="305.1973" y1="739.5" y2="739.5"/></g><!--class SmartCamera--><g id="elem_SmartCamera"><rect codeLine="63" fill="#F1F1F1" height="48" id="SmartCamera" rx="2.5" ry="2.5" style="stroke:#181818;stroke-width:0.5;" width="129.2891" x="341" y="699.5"/><ellipse cx="356" cy="715.5" fill="#ADD1B2" rx="11" ry="11" style="stroke:#181818;stroke-width:1;"/><path d="M358.9688,721.1406 Q358.3906,721.4375 357.75,721.5781 Q357.1094,721.7344 356.4063,721.7344 Q353.9063,721.7344 352.5781,720.0938 Q351.2656,718.4375 351.2656,715.3125 Q351.2656,712.1875 352.5781,710.5313 Q353.9063,708.875 356.4063,708.875 Q357.1094,708.875 357.75,709.0313 Q358.4063,709.1875 358.9688,709.4844 L358.9688,712.2031 Q358.3438,711.625 357.75,711.3594 Q357.1563,711.0781 356.5313,711.0781 Q355.1875,711.0781 354.5,712.1563 Q353.8125,713.2188 353.8125,715.3125 Q353.8125,717.4063 354.5,718.4844 Q355.1875,719.5469 356.5313,719.5469 Q357.1563,719.5469 357.75,719.2813 Q358.3438,719 358.9688,718.4219 L358.9688,721.1406 Z " fill="#000000"/><text fill="#000000" font-family="sans-serif" font-size="14" lengthAdjust="spacing" textLength="97.2891" x="370" y="720.3467">SmartCamera</text><line style="stroke:#181818;stroke-width:0.5;" x1="342" x2="469.2891" y1="731.5" y2="731.5"/><line style="stroke:#181818;stroke-width:0.5;" x1="342" x2="469.2891" y1="739.5" y2="739.5"/></g><!--class SmartSpeaker--><g id="elem_SmartSpeaker"><rect codeLine="64" fill="#F1F1F1" height="48" id="SmartSpeaker" rx="2.5" ry="2.5" style="stroke:#181818;stroke-width:0.5;" width="131.791" x="505.5" y="699.5"/><ellipse cx="520.5" cy="715.5" fill="#ADD1B2" rx="11" ry="11" style="stroke:#181818;stroke-width:1;"/><path d="M523.4688,721.1406 Q522.8906,721.4375 522.25,721.5781 Q521.6094,721.7344 520.9063,721.7344 Q518.4063,721.7344 517.0781,720.0938 Q515.7656,718.4375 515.7656,715.3125 Q515.7656,712.1875 517.0781,710.5313 Q518.4063,708.875 520.9063,708.875 Q521.6094,708.875 522.25,709.0313 Q522.9063,709.1875 523.4688,709.4844 L523.4688,712.2031 Q522.8438,711.625 522.25,711.3594 Q521.6563,711.0781 521.0313,711.0781 Q519.6875,711.0781 519,712.1563 Q518.3125,713.2188 518.3125,715.3125 Q518.3125,717.4063 519,718.4844 Q519.6875,719.5469 521.0313,719.5469 Q521.6563,719.5469 522.25,719.2813 Q522.8438,719 523.4688,718.4219 L523.4688,721.1406 Z " fill="#000000"/><text fill="#000000" font-family="sans-serif" font-size="14" lengthAdjust="spacing" textLength="99.791" x="534.5" y="720.3467">SmartSpeaker</text><line style="stroke:#181818;stroke-width:0.5;" x1="506.5" x2="636.291" y1="731.5" y2="731.5"/><line style="stroke:#181818;stroke-width:0.5;" x1="506.5" x2="636.291" y1="739.5" y2="739.5"/></g><!--class SmartPlug--><g id="elem_SmartPlug"><rect codeLine="65" fill="#F1F1F1" height="48" id="SmartPlug" rx="2.5" ry="2.5" style="stroke:#181818;stroke-width:0.5;" width="104.4404" x="672.5" y="699.5"/><ellipse cx="687.5" cy="715.5" fill="#ADD1B2" rx="11" ry="11" style="stroke:#181818;stroke-width:1;"/><path d="M690.4688,721.1406 Q689.8906,721.4375 689.25,721.5781 Q688.6094,721.7344 687.9063,721.7344 Q685.4063,721.7344 684.0781,720.0938 Q682.7656,718.4375 682.7656,715.3125 Q682.7656,712.1875 684.0781,710.5313 Q685.4063,708.875 687.9063,708.875 Q688.6094,708.875 689.25,709.0313 Q689.9063,709.1875 690.4688,709.4844 L690.4688,712.2031 Q689.8438,711.625 689.25,711.3594 Q688.6563,711.0781 688.0313,711.0781 Q686.6875,711.0781 686,712.1563 Q685.3125,713.2188 685.3125,715.3125 Q685.3125,717.4063 686,718.4844 Q686.6875,719.5469 688.0313,719.5469 Q688.6563,719.5469 689.25,719.2813 Q689.8438,719 690.4688,718.4219 L690.4688,721.1406 Z " fill="#000000"/><text fill="#000000" font-family="sans-serif" font-size="14" lengthAdjust="spacing" textLength="72.4404" x="701.5" y="720.3467">SmartPlug</text><line style="stroke:#181818;stroke-width:0.5;" x1="673.5" x2="775.9404" y1="731.5" y2="731.5"/><line style="stroke:#181818;stroke-width:0.5;" x1="673.5" x2="775.9404" y1="739.5" y2="739.5"/></g><!--class SmartVacuum--><g id="elem_SmartVacuum"><rect codeLine="66" fill="#F1F1F1" height="48" id="SmartVacuum" rx="2.5" ry="2.5" style="stroke:#181818;stroke-width:0.5;" width="131.5859" x="811.5" y="699.5"/><ellipse cx="826.5" cy="715.5" fill="#ADD1B2" rx="11" ry="11" style="stroke:#181818;stroke-width:1;"/><path d="M829.4688,721.1406 Q828.8906,721.4375 828.25,721.5781 Q827.6094,721.7344 826.9063,721.7344 Q824.4063,721.7344 823.0781,720.0938 Q821.7656,718.4375 821.7656,715.3125 Q821.7656,712.1875 823.0781,710.5313 Q824.4063,708.875 826.9063,708.875 Q827.6094,708.875 828.25,709.0313 Q828.9063,709.1875 829.4688,709.4844 L829.4688,712.2031 Q828.8438,711.625 828.25,711.3594 Q827.6563,711.0781 827.0313,711.0781 Q825.6875,711.0781 825,712.1563 Q824.3125,713.2188 824.3125,715.3125 Q824.3125,717.4063 825,718.4844 Q825.6875,719.5469 827.0313,719.5469 Q827.6563,719.5469 828.25,719.2813 Q828.8438,719 829.4688,718.4219 L829.4688,721.1406 Z " fill="#000000"/><text fill="#000000" font-family="sans-serif" font-size="14" lengthAdjust="spacing" textLength="99.5859" x="840.5" y="720.3467">SmartVacuum</text><line style="stroke:#181818;stroke-width:0.5;" x1="812.5" x2="942.0859" y1="731.5" y2="731.5"/><line style="stroke:#181818;stroke-width:0.5;" x1="812.5" x2="942.0859" y1="739.5" y2="739.5"/></g><!--class PhoneApp--><g id="elem_PhoneApp"><rect codeLine="68" fill="#F1F1F1" height="80.5938" id="PhoneApp" rx="2.5" ry="2.5" style="stroke:#181818;stroke-width:0.5;" width="249.4463" x="1269" y="303"/><ellipse cx="1354.1143" cy="319" fill="#ADD1B2" rx="11" ry="11" style="stroke:#181818;stroke-width:1;"/><path d="M1357.083,324.6406 Q1356.5049,324.9375 1355.8643,325.0781 Q1355.2236,325.2344 1354.5205,325.2344 Q1352.0205,325.2344 1350.6924,323.5938 Q1349.3799,321.9375 1349.3799,318.8125 Q1349.3799,315.6875 1350.6924,314.0313 Q1352.0205,312.375 1354.5205,312.375 Q1355.2236,312.375 1355.8643,312.5313 Q1356.5205,312.6875 1357.083,312.9844 L1357.083,315.7031 Q1356.458,315.125 1355.8643,314.8594 Q1355.2705,314.5781 1354.6455,314.5781 Q1353.3018,314.5781 1352.6143,315.6563 Q1351.9268,316.7188 1351.9268,318.8125 Q1351.9268,320.9063 1352.6143,321.9844 Q1353.3018,323.0469 1354.6455,323.0469 Q1355.2705,323.0469 1355.8643,322.7813 Q1356.458,322.5 1357.083,321.9219 L1357.083,324.6406 Z " fill="#000000"/><text fill="#000000" font-family="sans-serif" font-size="14" lengthAdjust="spacing" textLength="70.7178" x="1374.6143" y="323.8467">PhoneApp</text><line style="stroke:#181818;stroke-width:0.5;" x1="1270" x2="1517.4463" y1="335" y2="335"/><line style="stroke:#181818;stroke-width:0.5;" x1="1270" x2="1517.4463" y1="343" y2="343"/><ellipse cx="1280" cy="356.6484" fill="#84BE84" rx="3" ry="3" style="stroke:#038048;stroke-width:1;"/><text fill="#000000" font-family="sans-serif" font-size="14" lengthAdjust="spacing" textLength="205.6455" x="1289" y="359.9951">sendEvent(event : AppEvent)</text><ellipse cx="1280" cy="372.9453" fill="#84BE84" rx="3" ry="3" style="stroke:#038048;stroke-width:1;"/><text fill="#000000" font-family="sans-serif" font-size="14" lengthAdjust="spacing" textLength="223.4463" x="1289" y="376.292">receiveEvent(event : AppEvent)</text></g><!--class Human--><g id="elem_Human"><rect codeLine="73" fill="#F1F1F1" height="113.1875" id="Human" rx="2.5" ry="2.5" style="stroke:#181818;stroke-width:0.5;" width="272.7021" x="1279" y="48"/><ellipse cx="1385.856" cy="64" fill="#ADD1B2" rx="11" ry="11" style="stroke:#181818;stroke-width:1;"/><path d="M1388.8247,69.6406 Q1388.2466,69.9375 1387.606,70.0781 Q1386.9653,70.2344 1386.2622,70.2344 Q1383.7622,70.2344 1382.4341,68.5938 Q1381.1216,66.9375 1381.1216,63.8125 Q1381.1216,60.6875 1382.4341,59.0313 Q1383.7622,57.375 1386.2622,57.375 Q1386.9653,57.375 1387.606,57.5313 Q1388.2622,57.6875 1388.8247,57.9844 L1388.8247,60.7031 Q1388.1997,60.125 1387.606,59.8594 Q1387.0122,59.5781 1386.3872,59.5781 Q1385.0435,59.5781 1384.356,60.6563 Q1383.6685,61.7188 1383.6685,63.8125 Q1383.6685,65.9063 1384.356,66.9844 Q1385.0435,68.0469 1386.3872,68.0469 Q1387.0122,68.0469 1387.606,67.7813 Q1388.1997,67.5 1388.8247,66.9219 L1388.8247,69.6406 Z " fill="#000000"/><text fill="#000000" font-family="sans-serif" font-size="14" lengthAdjust="spacing" textLength="50.4902" x="1406.356" y="68.8467">Human</text><line style="stroke:#181818;stroke-width:0.5;" x1="1280" x2="1550.7021" y1="80" y2="80"/><ellipse cx="1290" cy="93.6484" fill="none" rx="3" ry="3" style="stroke:#038048;stroke-width:1;"/><text fill="#000000" font-family="sans-serif" font-size="14" lengthAdjust="spacing" textLength="95.1016" x="1299" y="96.9951">name : String</text><ellipse cx="1290" cy="109.9453" fill="none" rx="3" ry="3" style="stroke:#038048;stroke-width:1;"/><text fill="#000000" font-family="sans-serif" font-size="14" lengthAdjust="spacing" textLength="128.1465" x="1299" y="113.292">phone : PhoneApp</text><line style="stroke:#181818;stroke-width:0.5;" x1="1280" x2="1550.7021" y1="120.5938" y2="120.5938"/><ellipse cx="1290" cy="134.2422" fill="#84BE84" rx="3" ry="3" style="stroke:#038048;stroke-width:1;"/><text fill="#000000" font-family="sans-serif" font-size="14" lengthAdjust="spacing" textLength="93.9531" x="1299" y="137.5889">makeAction()</text><ellipse cx="1290" cy="150.5391" fill="#84BE84" rx="3" ry="3" style="stroke:#038048;stroke-width:1;"/><text fill="#000000" font-family="sans-serif" font-size="14" lengthAdjust="spacing" textLength="246.7021" x="1299" y="153.8857">acceptResponse(event : AppEvent)</text></g><!--class Event--><g id="elem_Event"><rect codeLine="80" fill="#F1F1F1" height="113.1875" id="Event" rx="2.5" ry="2.5" style="stroke:#181818;stroke-width:0.5;" width="145.3486" x="1013" y="485"/><ellipse cx="1061.3711" cy="501" fill="#A9DCDF" rx="11" ry="11" style="stroke:#181818;stroke-width:1;"/><path d="M1061.4805,496.3438 L1060.3242,501.4219 L1062.6523,501.4219 L1061.4805,496.3438 Z M1059.9961,494.1094 L1062.9805,494.1094 L1066.3398,506.5 L1063.8867,506.5 L1063.1211,503.4375 L1059.8398,503.4375 L1059.0898,506.5 L1056.6523,506.5 L1059.9961,494.1094 Z " fill="#000000"/><text fill="#000000" font-family="sans-serif" font-size="14" font-style="italic" lengthAdjust="spacing" textLength="40.1064" x="1081.8711" y="505.8467">Event</text><line style="stroke:#181818;stroke-width:0.5;" x1="1014" x2="1157.3486" y1="517" y2="517"/><ellipse cx="1024" cy="530.6484" fill="none" rx="3" ry="3" style="stroke:#038048;stroke-width:1;"/><text fill="#000000" font-family="sans-serif" font-size="14" lengthAdjust="spacing" textLength="119.335" x="1033" y="533.9951">type : EventType</text><ellipse cx="1024" cy="546.9453" fill="none" rx="3" ry="3" style="stroke:#038048;stroke-width:1;"/><text fill="#000000" font-family="sans-serif" font-size="14" lengthAdjust="spacing" textLength="90.8701" x="1033" y="550.292">deviceId : int</text><ellipse cx="1024" cy="563.2422" fill="none" rx="3" ry="3" style="stroke:#038048;stroke-width:1;"/><text fill="#000000" font-family="sans-serif" font-size="14" lengthAdjust="spacing" textLength="119.3486" x="1033" y="566.5889">timestamp : long</text><line style="stroke:#181818;stroke-width:0.5;" x1="1014" x2="1157.3486" y1="573.8906" y2="573.8906"/><ellipse cx="1024" cy="587.5391" fill="#84BE84" rx="3" ry="3" style="stroke:#038048;stroke-width:1;"/><text fill="#000000" font-family="sans-serif" font-size="14" lengthAdjust="spacing" textLength="109.2383" x="1033" y="590.8857">toJson() : String</text></g><!--class DeviceEvent--><g id="elem_DeviceEvent"><rect codeLine="87" fill="#F1F1F1" height="80.5938" id="DeviceEvent" rx="2.5" ry="2.5" style="stroke:#181818;stroke-width:0.5;" width="154.7002" x="979" y="683"/><ellipse cx="1009.6217" cy="699" fill="#ADD1B2" rx="11" ry="11" style="stroke:#181818;stroke-width:1;"/><path d="M1012.5904,704.6406 Q1012.0123,704.9375 1011.3717,705.0781 Q1010.7311,705.2344 1010.0279,705.2344 Q1007.5279,705.2344 1006.1998,703.5938 Q1004.8873,701.9375 1004.8873,698.8125 Q1004.8873,695.6875 1006.1998,694.0313 Q1007.5279,692.375 1010.0279,692.375 Q1010.7311,692.375 1011.3717,692.5313 Q1012.0279,692.6875 1012.5904,692.9844 L1012.5904,695.7031 Q1011.9654,695.125 1011.3717,694.8594 Q1010.7779,694.5781 1010.1529,694.5781 Q1008.8092,694.5781 1008.1217,695.6563 Q1007.4342,696.7188 1007.4342,698.8125 Q1007.4342,700.9063 1008.1217,701.9844 Q1008.8092,703.0469 1010.1529,703.0469 Q1010.7779,703.0469 1011.3717,702.7813 Q1011.9654,702.5 1012.5904,701.9219 L1012.5904,704.6406 Z " fill="#000000"/><text fill="#000000" font-family="sans-serif" font-size="14" lengthAdjust="spacing" textLength="87.9854" x="1027.0932" y="703.8467">DeviceEvent</text><line style="stroke:#181818;stroke-width:0.5;" x1="980" x2="1132.7002" y1="715" y2="715"/><rect fill="none" height="6" style="stroke:#C82930;stroke-width:1;" width="6" x="987" y="725.6484"/><text fill="#000000" font-family="sans-serif" font-size="14" lengthAdjust="spacing" textLength="128.7002" x="999" y="731.9951">eventData : String</text><line style="stroke:#181818;stroke-width:0.5;" x1="980" x2="1132.7002" y1="739.2969" y2="739.2969"/><ellipse cx="990" cy="752.9453" fill="#84BE84" rx="3" ry="3" style="stroke:#038048;stroke-width:1;"/><text fill="#000000" font-family="sans-serif" font-size="14" lengthAdjust="spacing" textLength="109.2383" x="999" y="756.292">toJson() : String</text></g><!--class AppEvent--><g id="elem_AppEvent"><rect codeLine="92" fill="#F1F1F1" height="96.8906" id="AppEvent" rx="2.5" ry="2.5" style="stroke:#181818;stroke-width:0.5;" width="164.8311" x="1169" y="675"/><ellipse cx="1213.437" cy="691" fill="#ADD1B2" rx="11" ry="11" style="stroke:#181818;stroke-width:1;"/><path d="M1216.4058,696.6406 Q1215.8276,696.9375 1215.187,697.0781 Q1214.5464,697.2344 1213.8433,697.2344 Q1211.3433,697.2344 1210.0151,695.5938 Q1208.7026,693.9375 1208.7026,690.8125 Q1208.7026,687.6875 1210.0151,686.0313 Q1211.3433,684.375 1213.8433,684.375 Q1214.5464,684.375 1215.187,684.5313 Q1215.8433,684.6875 1216.4058,684.9844 L1216.4058,687.7031 Q1215.7808,687.125 1215.187,686.8594 Q1214.5933,686.5781 1213.9683,686.5781 Q1212.6245,686.5781 1211.937,687.6563 Q1211.2495,688.7188 1211.2495,690.8125 Q1211.2495,692.9063 1211.937,693.9844 Q1212.6245,695.0469 1213.9683,695.0469 Q1214.5933,695.0469 1215.187,694.7813 Q1215.7808,694.5 1216.4058,693.9219 L1216.4058,696.6406 Z " fill="#000000"/><text fill="#000000" font-family="sans-serif" font-size="14" lengthAdjust="spacing" textLength="67.457" x="1233.937" y="695.8467">AppEvent</text><line style="stroke:#181818;stroke-width:0.5;" x1="1170" x2="1332.8311" y1="707" y2="707"/><rect fill="none" height="6" style="stroke:#C82930;stroke-width:1;" width="6" x="1177" y="717.6484"/><text fill="#000000" font-family="sans-serif" font-size="14" lengthAdjust="spacing" textLength="86.9326" x="1189" y="723.9951">data : String</text><rect fill="none" height="6" style="stroke:#C82930;stroke-width:1;" width="6" x="1177" y="733.9453"/><text fill="#000000" font-family="sans-serif" font-size="14" lengthAdjust="spacing" textLength="138.8311" x="1189" y="740.292">direction : Direction</text><line style="stroke:#181818;stroke-width:0.5;" x1="1170" x2="1332.8311" y1="747.5938" y2="747.5938"/><ellipse cx="1180" cy="761.2422" fill="#84BE84" rx="3" ry="3" style="stroke:#038048;stroke-width:1;"/><text fill="#000000" font-family="sans-serif" font-size="14" lengthAdjust="spacing" textLength="109.2383" x="1189" y="764.5889">toJson() : String</text></g><!--link MainNode to Room--><g id="link_MainNode_Room"><path codeLine="103" d="M881.45,202.12 C866.61,211.76 852.1,221.77 838.5,232 C820,245.92 801.36,262.6 784.67,278.73 " fill="none" id="MainNode-Room" style="stroke:#181818;stroke-width:1;"/><polygon fill="#000000" points="839.5796,243.6697,848.4957,240.3601,844.8476,235.7514,839.5796,243.6697" style="stroke:#000000;stroke-width:1;"/><text fill="#000000" font-family="sans-serif" font-size="13" lengthAdjust="spacing" textLength="59.8584" x="852.5" y="245.0669">manages</text><text fill="#000000" font-family="sans-serif" font-size="13" lengthAdjust="spacing" textLength="6.5" x="784.9447" y="267.8731">*</text></g><!--link MainNode to SmartDevice--><g id="link_MainNode_SmartDevice"><path codeLine="104" d="M1015.2,202.16 C983.99,264.55 938.42,345.44 885.5,408 C861.65,436.19 831.25,462.95 803.3,484.95 " fill="none" id="MainNode-SmartDevice" style="stroke:#181818;stroke-width:1;"/><polygon fill="#000000" points="975.5017,347.5677,983.2775,342.0916,978.5737,338.5669,975.5017,347.5677" style="stroke:#000000;stroke-width:1;"/><text fill="#000000" font-family="sans-serif" font-size="13" lengthAdjust="spacing" textLength="59.8584" x="987.5" y="348.0669">manages</text><text fill="#000000" font-family="sans-serif" font-size="13" lengthAdjust="spacing" textLength="6.5" x="807.0711" y="473.807">*</text></g><!--link MainNode to PhoneApp--><g id="link_MainNode_PhoneApp"><path codeLine="105" d="M1199.32,202.24 C1213.6,212.25 1227.86,222.3 1241.5,232 C1274.21,255.25 1310.57,281.67 1339.53,302.84 " fill="none" id="MainNode-PhoneApp" style="stroke:#181818;stroke-width:1;"/><polygon fill="#000000" points="1270.5625,243.4812,1264.9267,235.8204,1261.5001,240.5961,1270.5625,243.4812" style="stroke:#000000;stroke-width:1;"/><text fill="#000000" font-family="sans-serif" font-size="13" lengthAdjust="spacing" textLength="59.8584" x="1275.5" y="245.0669">manages</text><text fill="#000000" font-family="sans-serif" font-size="13" lengthAdjust="spacing" textLength="6.5" x="1324.0988" y="291.975">*</text></g><!--reverse link Room to SmartDevice--><g id="link_Room_SmartDevice"><path codeLine="108" d="M724.5,420.14 C724.5,444.84 724.5,460.88 724.5,484.77 " fill="none" id="Room-backto-SmartDevice" style="stroke:#181818;stroke-width:1;"/><polygon fill="none" points="724.5,408.14,720.5,414.14,724.5,420.14,728.5,414.14,724.5,408.14" style="stroke:#181818;stroke-width:1;"/><polygon fill="#000000" points="729.5,451.5664,732.4389,442.5213,726.5611,442.5213,729.5,451.5664" style="stroke:#000000;stroke-width:1;"/><text fill="#000000" font-family="sans-serif" font-size="13" lengthAdjust="spacing" textLength="55.0278" x="738.5" y="451.0669">contains</text><text fill="#000000" font-family="sans-serif" font-size="13" lengthAdjust="spacing" textLength="6.5" x="718.1907" y="474.0055">*</text></g><!--reverse link SmartDevice to SmartLight--><g id="link_SmartDevice_SmartLight"><path codeLine="111" d="M550.1388,564.5337 C428.1788,583.2737 274.31,615.16 133.5,675 C118.75,681.27 103.76,690.59 91.29,699.33 " fill="none" id="SmartDevice-backto-SmartLight" style="stroke:#181818;stroke-width:1;"/><polygon fill="none" points="567.93,561.8,549.2276,558.6033,551.0501,570.4641,567.93,561.8" style="stroke:#181818;stroke-width:1;"/></g><!--reverse link SmartDevice to SmartThermostat--><g id="link_SmartDevice_SmartThermostat"><path codeLine="112" d="M550.6918,593.8567 C475.8018,617.2967 402.63,642.35 323.5,675 C306.11,682.17 287.5,691.17 271.4,699.4 " fill="none" id="SmartDevice-backto-SmartThermostat" style="stroke:#181818;stroke-width:1;"/><polygon fill="none" points="567.87,588.48,548.8996,588.1306,552.484,599.5827,567.87,588.48" style="stroke:#181818;stroke-width:1;"/></g><!--reverse link SmartDevice to SmartCamera--><g id="link_SmartDevice_SmartCamera"><path codeLine="113" d="M608.5471,606.853 C566.2571,630.423 532.26,649.53 487.5,675 C473.63,682.89 458.5,691.62 445.05,699.43 " fill="none" id="SmartDevice-backto-SmartCamera" style="stroke:#181818;stroke-width:1;"/><polygon fill="none" points="624.27,598.09,605.6261,601.6121,611.4681,612.094,624.27,598.09" style="stroke:#181818;stroke-width:1;"/></g><!--reverse link SmartDevice to SmartSpeaker--><g id="link_SmartDevice_SmartSpeaker"><path codeLine="114" d="M665.2729,612.1854 C636.5029,646.0354 612.98,673.7 591.41,699.07 " fill="none" id="SmartDevice-backto-SmartSpeaker" style="stroke:#181818;stroke-width:1;"/><polygon fill="none" points="676.93,598.47,660.7011,608.2997,669.8447,616.0711,676.93,598.47" style="stroke:#181818;stroke-width:1;"/></g><!--reverse link SmartDevice to SmartPlug--><g id="link_SmartDevice_SmartPlug"><path codeLine="115" d="M724.5,616.47 C724.5,650.32 724.5,673.7 724.5,699.07 " fill="none" id="SmartDevice-backto-SmartPlug" style="stroke:#181818;stroke-width:1;"/><polygon fill="none" points="724.5,598.47,718.5,616.47,730.5,616.47,724.5,598.47" style="stroke:#181818;stroke-width:1;"/></g><!--reverse link SmartDevice to SmartVacuum--><g id="link_SmartDevice_SmartVacuum"><path codeLine="116" d="M783.7271,612.1854 C812.4971,646.0354 836.02,673.7 857.59,699.07 " fill="none" id="SmartDevice-backto-SmartVacuum" style="stroke:#181818;stroke-width:1;"/><polygon fill="none" points="772.07,598.47,779.1553,616.0711,788.2989,608.2997,772.07,598.47" style="stroke:#181818;stroke-width:1;"/></g><!--reverse link Event to DeviceEvent--><g id="link_Event_DeviceEvent"><path codeLine="119" d="M1073.6199,616.2413 C1069.2199,643.5813 1066.88,658.08 1062.89,682.85 " fill="none" id="Event-backto-DeviceEvent" style="stroke:#181818;stroke-width:1;"/><polygon fill="none" points="1076.48,598.47,1067.6962,615.288,1079.5437,617.1947,1076.48,598.47" style="stroke:#181818;stroke-width:1;"/></g><!--reverse link Event to AppEvent--><g id="link_Event_AppEvent"><path codeLine="120" d="M1149.3136,611.7014 C1171.8736,636.1614 1185.85,651.32 1207.47,674.76 " fill="none" id="Event-backto-AppEvent" style="stroke:#181818;stroke-width:1;"/><polygon fill="none" points="1137.11,598.47,1144.9032,615.7693,1153.7241,607.6336,1137.11,598.47" style="stroke:#181818;stroke-width:1;"/></g><!--link Human to PhoneApp--><g id="link_Human_PhoneApp"><path codeLine="123" d="M1410.34,161.07 C1406.3,204.57 1400.78,264.03 1397.18,302.83 " fill="none" id="Human-PhoneApp" style="stroke:#181818;stroke-width:1;"/><polygon fill="#000000" points="1407.0378,245.545,1410.8003,236.8103,1404.9476,236.267,1407.0378,245.545" style="stroke:#000000;stroke-width:1;"/><text fill="#000000" font-family="sans-serif" font-size="13" lengthAdjust="spacing" textLength="29.7832" x="1416.5" y="245.0669">uses</text></g><!--link SmartDevice to DeviceEvent--><g id="link_SmartDevice_DeviceEvent"><path codeLine="126" d="M814.75,598.06 C841.15,613.74 870.23,630.47 897.5,645 C924.87,659.59 932.6,661.46 960.5,675 C966.44,677.88 967.1926,678.2388 973.3526,681.2588 " fill="none" id="SmartDevice-to-DeviceEvent" style="stroke:#181818;stroke-width:1;stroke-dasharray:7.0,7.0;"/><polygon fill="#181818" points="978.74,683.9,972.4197,676.3466,974.2505,681.699,968.8981,683.5298,978.74,683.9" style="stroke:#181818;stroke-width:1;"/><polygon fill="#000000" points="906.9278,638.8891,900.2831,632.0847,897.5526,637.2899,906.9278,638.8891" style="stroke:#000000;stroke-width:1;"/><text fill="#000000" font-family="sans-serif" font-size="13" lengthAdjust="spacing" textLength="38.0352" x="911.5" y="641.0669">sends</text></g><!--link MainNode to Event--><g id="link_MainNode_Event"><path codeLine="127" d="M1065.27,202.04 C1070.46,288.9 1077.5521,407.4907 1081.8121,478.7707 " fill="none" id="MainNode-to-Event" style="stroke:#181818;stroke-width:1;stroke-dasharray:7.0,7.0;"/><polygon fill="#181818" points="1082.17,484.76,1085.626,475.5374,1081.8717,479.7689,1077.6402,476.0147,1082.17,484.76" style="stroke:#181818;stroke-width:1;"/><polygon fill="#000000" points="1083.7984,348.5575,1086.1923,339.3532,1080.3249,339.7039,1083.7984,348.5575" style="stroke:#000000;stroke-width:1;"/><text fill="#000000" font-family="sans-serif" font-size="13" lengthAdjust="spacing" textLength="65.0127" x="1092.5" y="348.0669">processes</text></g><!--link PhoneApp to AppEvent--><g id="link_PhoneApp_AppEvent"><path codeLine="128" d="M1378.57,384.24 C1352.26,454.28 1299.8496,593.7831 1271.5496,669.1331 " fill="none" id="PhoneApp-to-AppEvent" style="stroke:#181818;stroke-width:1;stroke-dasharray:7.0,7.0;"/><polygon fill="#181818" points="1269.44,674.75,1276.349,667.731,1271.198,670.0692,1268.8598,664.9182,1269.44,674.75" style="stroke:#181818;stroke-width:1;"/><polygon fill="#000000" points="1341.7417,546.247,1347.6737,538.8132,1342.1713,536.7462,1341.7417,546.247" style="stroke:#000000;stroke-width:1;"/><text fill="#000000" font-family="sans-serif" font-size="13" lengthAdjust="spacing" textLength="96.9795" x="1352.5" y="546.0669">sends/receives</text></g><!--link MainNode to AppEvent--><g id="link_MainNode_AppEvent"><path codeLine="129" d="M1127.68,202.26 C1142.29,226.45 1156.36,252.94 1166.5,279 C1220.08,416.73 1240.3194,586.1126 1247.5394,669.0126 " fill="none" id="MainNode-to-AppEvent" style="stroke:#181818;stroke-width:1;stroke-dasharray:7.0,7.0;"/><polygon fill="#181818" points="1248.06,674.99,1251.264,665.6769,1247.6262,670.0089,1243.2942,666.371,1248.06,674.99" style="stroke:#181818;stroke-width:1;"/><polygon fill="#000000" points="1222.7436,451.4093,1223.3405,441.9175,1217.6473,443.3794,1222.7436,451.4093" style="stroke:#000000;stroke-width:1;"/><text fill="#000000" font-family="sans-serif" font-size="13" lengthAdjust="spacing" textLength="96.9795" x="1230.5" y="451.0669">sends/receives</text></g><!--link SmartDevice to AppEvent--><g id="link_SmartDevice_AppEvent"><path codeLine="130" d="M881.25,585.32 C962.8,609.05 1063.56,640.67 1151.5,675 C1157.23,677.24 1157.5766,677.2931 1163.4466,679.8131 " fill="none" id="SmartDevice-to-AppEvent" style="stroke:#181818;stroke-width:1;stroke-dasharray:7.0,7.0;"/><polygon fill="#181818" points="1168.96,682.18,1162.2678,674.954,1164.3655,680.2076,1159.1119,682.3052,1168.96,682.18" style="stroke:#181818;stroke-width:1;"/><polygon fill="#000000" points="1070.2413,638.154,1062.5974,632.4952,1060.7311,638.0688,1070.2413,638.154" style="stroke:#000000;stroke-width:1;"/><text fill="#000000" font-family="sans-serif" font-size="13" lengthAdjust="spacing" textLength="54.5645" x="1074.5" y="641.0669">receives</text></g><!--SRC=[hLLBRnen4BxpArQvG9kItb6AH62ZKf440KgaNYApEmKhk_RAzb95QVvxnq-yiALKAeV4dldcvPbljfjyEVdhT1F_IrbTWY2ASYPH_1Ux3Y0y6NF68DCcgzSAahUETlH4RwavVAURDO0zzf_8pXvlYXeKvsfhRgdQWc2WEk_EvPp_1B7ajSYylnkY58XNSxuZ5BFJfoKlY32d1-qYsASxO2hAPf8-JiVfS_gOtg-CO3IVkvitcL1XYt0cguTd19dZxUBXpbmGspt_BV4tBeYKSCvBPXffAhldEQQTcCYNoPQml01JJm_qtsHWg_lW019ORilb4zZH37gv-JVD4KcP-fIqcbK4wysjXKJbZ4frlIo9K5OsTBY2iXV8HrKLGFCjPu02Zn2SbrhXzGkyUnt9yqPIY8bY-5m4b7m7Pm3HdVRUqo4HeSzD7yVQT_-q-kfQUvamKiAChA7GSPIWRECK9PNPbFtWXtARLLncorlzjsenQRAMIf1C9JRxI1sAo9gyStarsUXJgpIX8Bzv3LtSCsnuE4djW_RcKte_DPJXlKt6CxhPgbYmGfQMN2hIa8w9NZgnP5a1UK52Hw9vKM_Y-oF9whhquVnKXjSvhWQrZOAGxq1ty2TGgEHhNHBM69t3wQXqS1Jw9FmmOGaZqufUcE0iWqejG5QuOA4zwa7hZIA4LxRLOS4rvjDptcDf2VZKPONIWeTi5VycTKhxAaAfTiBYY7sxFYP4aSEgJ_ZnzGGd-P4zoiB67UotxodV_x1x5r3OZzYMLkUit-v-zOwav1brdy0WxVUJYuyNTeiCiBECR71l3ey0CL5FuSAynY1CmmGOyxBYafhtC0BUwXqNWDAVGciPwwOCUKOLOHbqOldrBtGKCRDT5v6q7U3usgxqr6tN6XQtgpoXksxauoAin62Z6Ot5VkIqlMKiBgdzCqTTxLWrsaHDgANlWFNPc88utwkhOOCc0xDf6YtM4A-i1CSFh7KUmcb0e8XpyDcjeoDFfu27YKNOFUet]--></g></svg>