<svg xmlns="http://www.w3.org/2000/svg" xmlns:xlink="http://www.w3.org/1999/xlink" contentStyleType="text/css" data-diagram-type="CLASS" height="969px" preserveAspectRatio="none" style="width:2222px;height:969px;background:#FFFFFF;" version="1.1" viewBox="0 0 2222 969" width="2222px" zoomAndPan="magnify"><defs/><g><!--class ConnectionType--><g id="elem_ConnectionType"><rect codeLine="5" fill="#F1F1F1" height="129.4844" id="ConnectionType" rx="2.5" ry="2.5" style="stroke:#181818;stroke-width:0.5;" width="145.5518" x="1911.87" y="7"/><ellipse cx="1926.87" cy="23" fill="#EB937F" rx="11" ry="11" style="stroke:#181818;stroke-width:1;"/><path d="M1930.9794,29 L1923.2606,29 L1923.2606,16.6094 L1930.9794,16.6094 L1930.9794,18.7656 L1925.7138,18.7656 L1925.7138,21.4375 L1930.4794,21.4375 L1930.4794,23.5938 L1925.7138,23.5938 L1925.7138,26.8438 L1930.9794,26.8438 L1930.9794,29 Z " fill="#000000"/><text fill="#000000" font-family="sans-serif" font-size="14" lengthAdjust="spacing" textLength="113.5518" x="1940.87" y="27.8467">ConnectionType</text><line style="stroke:#181818;stroke-width:0.5;" x1="1912.87" x2="2056.4218" y1="39" y2="39"/><text fill="#000000" font-family="sans-serif" font-size="14" lengthAdjust="spacing" textLength="29.6748" x="1917.87" y="55.9951">WiFi</text><text fill="#000000" font-family="sans-serif" font-size="14" lengthAdjust="spacing" textLength="48.4805" x="1917.87" y="72.292">Zigbee</text><text fill="#000000" font-family="sans-serif" font-size="14" lengthAdjust="spacing" textLength="53.9629" x="1917.87" y="88.5889">Z-Wave</text><text fill="#000000" font-family="sans-serif" font-size="14" lengthAdjust="spacing" textLength="67.9629" x="1917.87" y="104.8857">Bluetooth</text><text fill="#000000" font-family="sans-serif" font-size="14" lengthAdjust="spacing" textLength="60.5527" x="1917.87" y="121.1826">Ethernet</text><line style="stroke:#181818;stroke-width:0.5;" x1="1912.87" x2="2056.4218" y1="128.4844" y2="128.4844"/></g><!--class PowerSource--><g id="elem_PowerSource"><rect codeLine="13" fill="#F1F1F1" height="113.1875" id="PowerSource" rx="2.5" ry="2.5" style="stroke:#181818;stroke-width:0.5;" width="123.2188" x="2092.03" y="15.15"/><ellipse cx="2107.03" cy="31.15" fill="#EB937F" rx="11" ry="11" style="stroke:#181818;stroke-width:1;"/><path d="M2111.1394,37.15 L2103.4206,37.15 L2103.4206,24.7594 L2111.1394,24.7594 L2111.1394,26.9156 L2105.8738,26.9156 L2105.8738,29.5875 L2110.6394,29.5875 L2110.6394,31.7437 L2105.8738,31.7437 L2105.8738,34.9937 L2111.1394,34.9937 L2111.1394,37.15 Z " fill="#000000"/><text fill="#000000" font-family="sans-serif" font-size="14" lengthAdjust="spacing" textLength="91.2188" x="2121.03" y="35.9967">PowerSource</text><line style="stroke:#181818;stroke-width:0.5;" x1="2093.03" x2="2214.2488" y1="47.15" y2="47.15"/><text fill="#000000" font-family="sans-serif" font-size="14" lengthAdjust="spacing" textLength="51.8164" x="2098.03" y="64.1451">Battery</text><text fill="#000000" font-family="sans-serif" font-size="14" lengthAdjust="spacing" textLength="40.7148" x="2098.03" y="80.442">Mains</text><text fill="#000000" font-family="sans-serif" font-size="14" lengthAdjust="spacing" textLength="35.6768" x="2098.03" y="96.7389">Solar</text><text fill="#000000" font-family="sans-serif" font-size="14" lengthAdjust="spacing" textLength="39.751" x="2098.03" y="113.0357">Other</text><line style="stroke:#181818;stroke-width:0.5;" x1="2093.03" x2="2214.2488" y1="120.3375" y2="120.3375"/></g><!--class MainNode--><g id="elem_MainNode"><rect codeLine="24" fill="#F1F1F1" height="194.6719" id="MainNode" rx="2.5" ry="2.5" style="stroke:#181818;stroke-width:0.5;" width="288.1035" x="978.59" y="213.48"/><ellipse cx="1083.4123" cy="229.48" fill="#ADD1B2" rx="11" ry="11" style="stroke:#181818;stroke-width:1;"/><path d="M1086.381,235.1206 Q1085.8029,235.4175 1085.1623,235.5581 Q1084.5216,235.7144 1083.8185,235.7144 Q1081.3185,235.7144 1079.9904,234.0737 Q1078.6779,232.4175 1078.6779,229.2925 Q1078.6779,226.1675 1079.9904,224.5112 Q1081.3185,222.855 1083.8185,222.855 Q1084.5216,222.855 1085.1623,223.0112 Q1085.8185,223.1675 1086.381,223.4644 L1086.381,226.1831 Q1085.756,225.605 1085.1623,225.3394 Q1084.5685,225.0581 1083.9435,225.0581 Q1082.5998,225.0581 1081.9123,226.1362 Q1081.2248,227.1987 1081.2248,229.2925 Q1081.2248,231.3862 1081.9123,232.4644 Q1082.5998,233.5269 1083.9435,233.5269 Q1084.5685,233.5269 1085.1623,233.2612 Q1085.756,232.98 1086.381,232.4019 L1086.381,235.1206 Z " fill="#000000"/><text fill="#000000" font-family="sans-serif" font-size="14" lengthAdjust="spacing" textLength="69.959" x="1103.9123" y="234.3267">MainNode</text><line style="stroke:#181818;stroke-width:0.5;" x1="979.59" x2="1265.6935" y1="245.48" y2="245.48"/><ellipse cx="989.59" cy="259.1284" fill="none" rx="3" ry="3" style="stroke:#038048;stroke-width:1;"/><text fill="#000000" font-family="sans-serif" font-size="14" lengthAdjust="spacing" textLength="64.7363" x="998.59" y="262.4751">UI Server</text><ellipse cx="989.59" cy="275.4253" fill="none" rx="3" ry="3" style="stroke:#038048;stroke-width:1;"/><text fill="#000000" font-family="sans-serif" font-size="14" lengthAdjust="spacing" textLength="86.3857" x="998.59" y="278.772">Data Logger</text><ellipse cx="989.59" cy="291.7222" fill="none" rx="3" ry="3" style="stroke:#038048;stroke-width:1;"/><text fill="#000000" font-family="sans-serif" font-size="14" lengthAdjust="spacing" textLength="185.459" x="998.59" y="295.0689">Software : Home Assistant</text><line style="stroke:#181818;stroke-width:0.5;" x1="979.59" x2="1265.6935" y1="302.3706" y2="302.3706"/><ellipse cx="989.59" cy="316.0191" fill="#84BE84" rx="3" ry="3" style="stroke:#038048;stroke-width:1;"/><text fill="#000000" font-family="sans-serif" font-size="14" lengthAdjust="spacing" textLength="234.9854" x="998.59" y="319.3657">addDevice(device : SmartDevice)</text><ellipse cx="989.59" cy="332.3159" fill="#84BE84" rx="3" ry="3" style="stroke:#038048;stroke-width:1;"/><text fill="#000000" font-family="sans-serif" font-size="14" lengthAdjust="spacing" textLength="262.1035" x="998.59" y="335.6626">removeDevice(device : SmartDevice)</text><ellipse cx="989.59" cy="348.6128" fill="#84BE84" rx="3" ry="3" style="stroke:#038048;stroke-width:1;"/><text fill="#000000" font-family="sans-serif" font-size="14" lengthAdjust="spacing" textLength="168.4102" x="998.59" y="351.9595">addRoom(room : Room)</text><ellipse cx="989.59" cy="364.9097" fill="#84BE84" rx="3" ry="3" style="stroke:#038048;stroke-width:1;"/><text fill="#000000" font-family="sans-serif" font-size="14" lengthAdjust="spacing" textLength="195.5283" x="998.59" y="368.2564">removeRoom(room : Room)</text><ellipse cx="989.59" cy="381.2066" fill="#84BE84" rx="3" ry="3" style="stroke:#038048;stroke-width:1;"/><text fill="#000000" font-family="sans-serif" font-size="14" lengthAdjust="spacing" textLength="235.7441" x="998.59" y="384.5532">pairDevice(device : SmartDevice)</text><ellipse cx="989.59" cy="397.5034" fill="#84BE84" rx="3" ry="3" style="stroke:#038048;stroke-width:1;"/><text fill="#000000" font-family="sans-serif" font-size="14" lengthAdjust="spacing" textLength="253.4902" x="998.59" y="400.8501">unpairDevice(device : SmartDevice)</text></g><!--class Room--><g id="elem_Room"><rect codeLine="36" fill="#F1F1F1" height="129.4844" id="Room" rx="2.5" ry="2.5" style="stroke:#181818;stroke-width:0.5;" width="288.1035" x="315.59" y="485.15"/><ellipse cx="435.1437" cy="501.15" fill="#ADD1B2" rx="11" ry="11" style="stroke:#181818;stroke-width:1;"/><path d="M438.1125,506.7906 Q437.5343,507.0875 436.8937,507.2281 Q436.2531,507.3844 435.55,507.3844 Q433.05,507.3844 431.7218,505.7438 Q430.4093,504.0875 430.4093,500.9625 Q430.4093,497.8375 431.7218,496.1813 Q433.05,494.525 435.55,494.525 Q436.2531,494.525 436.8937,494.6813 Q437.55,494.8375 438.1125,495.1344 L438.1125,497.8531 Q437.4875,497.275 436.8937,497.0094 Q436.3,496.7281 435.675,496.7281 Q434.3312,496.7281 433.6437,497.8063 Q432.9562,498.8688 432.9562,500.9625 Q432.9562,503.0563 433.6437,504.1344 Q434.3312,505.1969 435.675,505.1969 Q436.3,505.1969 436.8937,504.9313 Q437.4875,504.65 438.1125,504.0719 L438.1125,506.7906 Z " fill="#000000"/><text fill="#000000" font-family="sans-serif" font-size="14" lengthAdjust="spacing" textLength="40.4961" x="455.6437" y="505.9967">Room</text><line style="stroke:#181818;stroke-width:0.5;" x1="316.59" x2="602.6935" y1="517.15" y2="517.15"/><ellipse cx="326.59" cy="530.7984" fill="none" rx="3" ry="3" style="stroke:#038048;stroke-width:1;"/><text fill="#000000" font-family="sans-serif" font-size="14" lengthAdjust="spacing" textLength="132.8701" x="335.59" y="534.1451">nameLabel : String</text><ellipse cx="326.59" cy="547.0953" fill="none" rx="3" ry="3" style="stroke:#038048;stroke-width:1;"/><text fill="#000000" font-family="sans-serif" font-size="14" lengthAdjust="spacing" textLength="130.1084" x="335.59" y="550.442">miscStruct : String</text><ellipse cx="326.59" cy="563.3922" fill="none" rx="3" ry="3" style="stroke:#038048;stroke-width:1;"/><text fill="#000000" font-family="sans-serif" font-size="14" lengthAdjust="spacing" textLength="247.707" x="335.59" y="566.7389">smartDevices : List&lt;SmartDevice&gt;</text><line style="stroke:#181818;stroke-width:0.5;" x1="316.59" x2="602.6935" y1="574.0406" y2="574.0406"/><ellipse cx="326.59" cy="587.6891" fill="#84BE84" rx="3" ry="3" style="stroke:#038048;stroke-width:1;"/><text fill="#000000" font-family="sans-serif" font-size="14" lengthAdjust="spacing" textLength="234.9854" x="335.59" y="591.0357">addDevice(device : SmartDevice)</text><ellipse cx="326.59" cy="603.9859" fill="#84BE84" rx="3" ry="3" style="stroke:#038048;stroke-width:1;"/><text fill="#000000" font-family="sans-serif" font-size="14" lengthAdjust="spacing" textLength="262.1035" x="335.59" y="607.3326">removeDevice(device : SmartDevice)</text></g><!--class SmartDevice--><g id="elem_SmartDevice"><rect codeLine="44" fill="#F1F1F1" height="96.8906" id="SmartDevice" rx="2.5" ry="2.5" style="stroke:#181818;stroke-width:0.5;" width="312.5762" x="491.36" y="691.64"/><ellipse cx="598.2843" cy="707.64" fill="#ADD1B2" rx="11" ry="11" style="stroke:#181818;stroke-width:1;"/><path d="M601.2531,713.2806 Q600.6749,713.5775 600.0343,713.7181 Q599.3937,713.8744 598.6906,713.8744 Q596.1906,713.8744 594.8624,712.2338 Q593.5499,710.5775 593.5499,707.4525 Q593.5499,704.3275 594.8624,702.6713 Q596.1906,701.015 598.6906,701.015 Q599.3937,701.015 600.0343,701.1713 Q600.6906,701.3275 601.2531,701.6244 L601.2531,704.3431 Q600.6281,703.765 600.0343,703.4994 Q599.4406,703.2181 598.8156,703.2181 Q597.4718,703.2181 596.7843,704.2963 Q596.0968,705.3588 596.0968,707.4525 Q596.0968,709.5463 596.7843,710.6244 Q597.4718,711.6869 598.8156,711.6869 Q599.4406,711.6869 600.0343,711.4213 Q600.6281,711.14 601.2531,710.5619 L601.2531,713.2806 Z " fill="#000000"/><text fill="#000000" font-family="sans-serif" font-size="14" lengthAdjust="spacing" textLength="90.2275" x="618.7843" y="712.4867">SmartDevice</text><line style="stroke:#181818;stroke-width:0.5;" x1="492.36" x2="802.9362" y1="723.64" y2="723.64"/><ellipse cx="502.36" cy="737.2884" fill="none" rx="3" ry="3" style="stroke:#038048;stroke-width:1;"/><text fill="#000000" font-family="sans-serif" font-size="14" lengthAdjust="spacing" textLength="286.5762" x="511.36" y="740.6351">connectionType : List&lt;ConnectionType&gt;</text><ellipse cx="502.36" cy="753.5853" fill="none" rx="3" ry="3" style="stroke:#038048;stroke-width:1;"/><text fill="#000000" font-family="sans-serif" font-size="14" lengthAdjust="spacing" textLength="231.4307" x="511.36" y="756.932">poweredBy : List&lt;PowerSource&gt;</text><line style="stroke:#181818;stroke-width:0.5;" x1="492.36" x2="802.9362" y1="764.2338" y2="764.2338"/><ellipse cx="502.36" cy="777.8822" fill="#84BE84" rx="3" ry="3" style="stroke:#038048;stroke-width:1;"/><text fill="#000000" font-family="sans-serif" font-size="14" lengthAdjust="spacing" textLength="192.3428" x="511.36" y="781.2289">handleEvent(event : Event)</text></g><!--class SmartLight--><g id="elem_SmartLight"><rect codeLine="50" fill="#F1F1F1" height="48" id="SmartLight" rx="2.5" ry="2.5" style="stroke:#181818;stroke-width:0.5;" width="109.2871" x="7" y="889.97"/><ellipse cx="22" cy="905.97" fill="#ADD1B2" rx="11" ry="11" style="stroke:#181818;stroke-width:1;"/><path d="M24.9688,911.6106 Q24.3906,911.9075 23.75,912.0481 Q23.1094,912.2044 22.4063,912.2044 Q19.9063,912.2044 18.5781,910.5637 Q17.2656,908.9075 17.2656,905.7825 Q17.2656,902.6575 18.5781,901.0012 Q19.9063,899.345 22.4063,899.345 Q23.1094,899.345 23.75,899.5012 Q24.4063,899.6575 24.9688,899.9544 L24.9688,902.6731 Q24.3438,902.095 23.75,901.8294 Q23.1563,901.5481 22.5313,901.5481 Q21.1875,901.5481 20.5,902.6262 Q19.8125,903.6887 19.8125,905.7825 Q19.8125,907.8762 20.5,908.9544 Q21.1875,910.0169 22.5313,910.0169 Q23.1563,910.0169 23.75,909.7512 Q24.3438,909.47 24.9688,908.8919 L24.9688,911.6106 Z " fill="#000000"/><text fill="#000000" font-family="sans-serif" font-size="14" lengthAdjust="spacing" textLength="77.2871" x="36" y="910.8167">SmartLight</text><line style="stroke:#181818;stroke-width:0.5;" x1="8" x2="115.2871" y1="921.97" y2="921.97"/><line style="stroke:#181818;stroke-width:0.5;" x1="8" x2="115.2871" y1="929.97" y2="929.97"/></g><!--class SmartThermostat--><g id="elem_SmartThermostat"><rect codeLine="51" fill="#F1F1F1" height="48" id="SmartThermostat" rx="2.5" ry="2.5" style="stroke:#181818;stroke-width:0.5;" width="155.1973" x="151.04" y="889.97"/><ellipse cx="166.04" cy="905.97" fill="#ADD1B2" rx="11" ry="11" style="stroke:#181818;stroke-width:1;"/><path d="M169.0088,911.6106 Q168.4306,911.9075 167.79,912.0481 Q167.1494,912.2044 166.4463,912.2044 Q163.9463,912.2044 162.6181,910.5637 Q161.3056,908.9075 161.3056,905.7825 Q161.3056,902.6575 162.6181,901.0012 Q163.9463,899.345 166.4463,899.345 Q167.1494,899.345 167.79,899.5012 Q168.4463,899.6575 169.0088,899.9544 L169.0088,902.6731 Q168.3838,902.095 167.79,901.8294 Q167.1963,901.5481 166.5713,901.5481 Q165.2275,901.5481 164.54,902.6262 Q163.8525,903.6887 163.8525,905.7825 Q163.8525,907.8762 164.54,908.9544 Q165.2275,910.0169 166.5713,910.0169 Q167.1963,910.0169 167.79,909.7512 Q168.3838,909.47 169.0088,908.8919 L169.0088,911.6106 Z " fill="#000000"/><text fill="#000000" font-family="sans-serif" font-size="14" lengthAdjust="spacing" textLength="123.1973" x="180.04" y="910.8167">SmartThermostat</text><line style="stroke:#181818;stroke-width:0.5;" x1="152.04" x2="305.2373" y1="921.97" y2="921.97"/><line style="stroke:#181818;stroke-width:0.5;" x1="152.04" x2="305.2373" y1="929.97" y2="929.97"/></g><!--class SmartCamera--><g id="elem_SmartCamera"><rect codeLine="52" fill="#F1F1F1" height="48" id="SmartCamera" rx="2.5" ry="2.5" style="stroke:#181818;stroke-width:0.5;" width="129.2891" x="341" y="889.97"/><ellipse cx="356" cy="905.97" fill="#ADD1B2" rx="11" ry="11" style="stroke:#181818;stroke-width:1;"/><path d="M358.9688,911.6106 Q358.3906,911.9075 357.75,912.0481 Q357.1094,912.2044 356.4063,912.2044 Q353.9063,912.2044 352.5781,910.5637 Q351.2656,908.9075 351.2656,905.7825 Q351.2656,902.6575 352.5781,901.0012 Q353.9063,899.345 356.4063,899.345 Q357.1094,899.345 357.75,899.5012 Q358.4063,899.6575 358.9688,899.9544 L358.9688,902.6731 Q358.3438,902.095 357.75,901.8294 Q357.1563,901.5481 356.5313,901.5481 Q355.1875,901.5481 354.5,902.6262 Q353.8125,903.6887 353.8125,905.7825 Q353.8125,907.8762 354.5,908.9544 Q355.1875,910.0169 356.5313,910.0169 Q357.1563,910.0169 357.75,909.7512 Q358.3438,909.47 358.9688,908.8919 L358.9688,911.6106 Z " fill="#000000"/><text fill="#000000" font-family="sans-serif" font-size="14" lengthAdjust="spacing" textLength="97.2891" x="370" y="910.8167">SmartCamera</text><line style="stroke:#181818;stroke-width:0.5;" x1="342" x2="469.2891" y1="921.97" y2="921.97"/><line style="stroke:#181818;stroke-width:0.5;" x1="342" x2="469.2891" y1="929.97" y2="929.97"/></g><!--class SmartSpeaker--><g id="elem_SmartSpeaker"><rect codeLine="53" fill="#F1F1F1" height="48" id="SmartSpeaker" rx="2.5" ry="2.5" style="stroke:#181818;stroke-width:0.5;" width="131.791" x="505.75" y="889.97"/><ellipse cx="520.75" cy="905.97" fill="#ADD1B2" rx="11" ry="11" style="stroke:#181818;stroke-width:1;"/><path d="M523.7188,911.6106 Q523.1406,911.9075 522.5,912.0481 Q521.8594,912.2044 521.1563,912.2044 Q518.6563,912.2044 517.3281,910.5637 Q516.0156,908.9075 516.0156,905.7825 Q516.0156,902.6575 517.3281,901.0012 Q518.6563,899.345 521.1563,899.345 Q521.8594,899.345 522.5,899.5012 Q523.1563,899.6575 523.7188,899.9544 L523.7188,902.6731 Q523.0938,902.095 522.5,901.8294 Q521.9063,901.5481 521.2813,901.5481 Q519.9375,901.5481 519.25,902.6262 Q518.5625,903.6887 518.5625,905.7825 Q518.5625,907.8762 519.25,908.9544 Q519.9375,910.0169 521.2813,910.0169 Q521.9063,910.0169 522.5,909.7512 Q523.0938,909.47 523.7188,908.8919 L523.7188,911.6106 Z " fill="#000000"/><text fill="#000000" font-family="sans-serif" font-size="14" lengthAdjust="spacing" textLength="99.791" x="534.75" y="910.8167">SmartSpeaker</text><line style="stroke:#181818;stroke-width:0.5;" x1="506.75" x2="636.541" y1="921.97" y2="921.97"/><line style="stroke:#181818;stroke-width:0.5;" x1="506.75" x2="636.541" y1="929.97" y2="929.97"/></g><!--class SmartPlug--><g id="elem_SmartPlug"><rect codeLine="54" fill="#F1F1F1" height="48" id="SmartPlug" rx="2.5" ry="2.5" style="stroke:#181818;stroke-width:0.5;" width="104.4404" x="672.42" y="889.97"/><ellipse cx="687.42" cy="905.97" fill="#ADD1B2" rx="11" ry="11" style="stroke:#181818;stroke-width:1;"/><path d="M690.3888,911.6106 Q689.8106,911.9075 689.17,912.0481 Q688.5294,912.2044 687.8263,912.2044 Q685.3263,912.2044 683.9981,910.5637 Q682.6856,908.9075 682.6856,905.7825 Q682.6856,902.6575 683.9981,901.0012 Q685.3263,899.345 687.8263,899.345 Q688.5294,899.345 689.17,899.5012 Q689.8263,899.6575 690.3888,899.9544 L690.3888,902.6731 Q689.7638,902.095 689.17,901.8294 Q688.5763,901.5481 687.9513,901.5481 Q686.6075,901.5481 685.92,902.6262 Q685.2325,903.6887 685.2325,905.7825 Q685.2325,907.8762 685.92,908.9544 Q686.6075,910.0169 687.9513,910.0169 Q688.5763,910.0169 689.17,909.7512 Q689.7638,909.47 690.3888,908.8919 L690.3888,911.6106 Z " fill="#000000"/><text fill="#000000" font-family="sans-serif" font-size="14" lengthAdjust="spacing" textLength="72.4404" x="701.42" y="910.8167">SmartPlug</text><line style="stroke:#181818;stroke-width:0.5;" x1="673.42" x2="775.8604" y1="921.97" y2="921.97"/><line style="stroke:#181818;stroke-width:0.5;" x1="673.42" x2="775.8604" y1="929.97" y2="929.97"/></g><!--class SmartVacuum--><g id="elem_SmartVacuum"><rect codeLine="55" fill="#F1F1F1" height="48" id="SmartVacuum" rx="2.5" ry="2.5" style="stroke:#181818;stroke-width:0.5;" width="131.5859" x="811.85" y="889.97"/><ellipse cx="826.85" cy="905.97" fill="#ADD1B2" rx="11" ry="11" style="stroke:#181818;stroke-width:1;"/><path d="M829.8188,911.6106 Q829.2406,911.9075 828.6,912.0481 Q827.9594,912.2044 827.2563,912.2044 Q824.7563,912.2044 823.4281,910.5637 Q822.1156,908.9075 822.1156,905.7825 Q822.1156,902.6575 823.4281,901.0012 Q824.7563,899.345 827.2563,899.345 Q827.9594,899.345 828.6,899.5012 Q829.2563,899.6575 829.8188,899.9544 L829.8188,902.6731 Q829.1938,902.095 828.6,901.8294 Q828.0063,901.5481 827.3813,901.5481 Q826.0375,901.5481 825.35,902.6262 Q824.6625,903.6887 824.6625,905.7825 Q824.6625,907.8762 825.35,908.9544 Q826.0375,910.0169 827.3813,910.0169 Q828.0063,910.0169 828.6,909.7512 Q829.1938,909.47 829.8188,908.8919 L829.8188,911.6106 Z " fill="#000000"/><text fill="#000000" font-family="sans-serif" font-size="14" lengthAdjust="spacing" textLength="99.5859" x="840.85" y="910.8167">SmartVacuum</text><line style="stroke:#181818;stroke-width:0.5;" x1="812.85" x2="942.4359" y1="921.97" y2="921.97"/><line style="stroke:#181818;stroke-width:0.5;" x1="812.85" x2="942.4359" y1="929.97" y2="929.97"/></g><!--class HomeAssistant--><g id="elem_HomeAssistant"><rect codeLine="57" fill="#F1F1F1" height="48" id="HomeAssistant" rx="2.5" ry="2.5" style="stroke:#181818;stroke-width:0.5;" width="137.123" x="639.08" y="525.9"/><ellipse cx="654.08" cy="541.9" fill="#ADD1B2" rx="11" ry="11" style="stroke:#181818;stroke-width:1;"/><path d="M657.0488,547.5406 Q656.4706,547.8375 655.83,547.9781 Q655.1894,548.1344 654.4863,548.1344 Q651.9863,548.1344 650.6581,546.4938 Q649.3456,544.8375 649.3456,541.7125 Q649.3456,538.5875 650.6581,536.9313 Q651.9863,535.275 654.4863,535.275 Q655.1894,535.275 655.83,535.4313 Q656.4863,535.5875 657.0488,535.8844 L657.0488,538.6031 Q656.4238,538.025 655.83,537.7594 Q655.2363,537.4781 654.6113,537.4781 Q653.2675,537.4781 652.58,538.5563 Q651.8925,539.6188 651.8925,541.7125 Q651.8925,543.8063 652.58,544.8844 Q653.2675,545.9469 654.6113,545.9469 Q655.2363,545.9469 655.83,545.6813 Q656.4238,545.4 657.0488,544.8219 L657.0488,547.5406 Z " fill="#000000"/><text fill="#000000" font-family="sans-serif" font-size="14" lengthAdjust="spacing" textLength="105.123" x="668.08" y="546.7467">HomeAssistant</text><line style="stroke:#181818;stroke-width:0.5;" x1="640.08" x2="775.203" y1="557.9" y2="557.9"/><line style="stroke:#181818;stroke-width:0.5;" x1="640.08" x2="775.203" y1="565.9" y2="565.9"/></g><!--class DataLogger--><g id="elem_DataLogger"><rect codeLine="61" fill="#F1F1F1" height="48" id="DataLogger" rx="2.5" ry="2.5" style="stroke:#181818;stroke-width:0.5;" width="113.9355" x="811.68" y="525.9"/><ellipse cx="826.68" cy="541.9" fill="#ADD1B2" rx="11" ry="11" style="stroke:#181818;stroke-width:1;"/><path d="M829.6488,547.5406 Q829.0706,547.8375 828.43,547.9781 Q827.7894,548.1344 827.0863,548.1344 Q824.5863,548.1344 823.2581,546.4938 Q821.9456,544.8375 821.9456,541.7125 Q821.9456,538.5875 823.2581,536.9313 Q824.5863,535.275 827.0863,535.275 Q827.7894,535.275 828.43,535.4313 Q829.0863,535.5875 829.6488,535.8844 L829.6488,538.6031 Q829.0238,538.025 828.43,537.7594 Q827.8363,537.4781 827.2113,537.4781 Q825.8675,537.4781 825.18,538.5563 Q824.4925,539.6188 824.4925,541.7125 Q824.4925,543.8063 825.18,544.8844 Q825.8675,545.9469 827.2113,545.9469 Q827.8363,545.9469 828.43,545.6813 Q829.0238,545.4 829.6488,544.8219 L829.6488,547.5406 Z " fill="#000000"/><text fill="#000000" font-family="sans-serif" font-size="14" lengthAdjust="spacing" textLength="81.9355" x="840.68" y="546.7467">DataLogger</text><line style="stroke:#181818;stroke-width:0.5;" x1="812.68" x2="924.6155" y1="557.9" y2="557.9"/><line style="stroke:#181818;stroke-width:0.5;" x1="812.68" x2="924.6155" y1="565.9" y2="565.9"/></g><!--class PhoneApp--><g id="elem_PhoneApp"><rect codeLine="65" fill="#F1F1F1" height="80.5938" id="PhoneApp" rx="2.5" ry="2.5" style="stroke:#181818;stroke-width:0.5;" width="323.3359" x="1334.98" y="509.6"/><ellipse cx="1457.0391" cy="525.6" fill="#ADD1B2" rx="11" ry="11" style="stroke:#181818;stroke-width:1;"/><path d="M1460.0078,531.2406 Q1459.4297,531.5375 1458.7891,531.6781 Q1458.1485,531.8344 1457.4453,531.8344 Q1454.9453,531.8344 1453.6172,530.1937 Q1452.3047,528.5375 1452.3047,525.4125 Q1452.3047,522.2875 1453.6172,520.6312 Q1454.9453,518.975 1457.4453,518.975 Q1458.1485,518.975 1458.7891,519.1312 Q1459.4453,519.2875 1460.0078,519.5844 L1460.0078,522.3031 Q1459.3828,521.725 1458.7891,521.4594 Q1458.1953,521.1781 1457.5703,521.1781 Q1456.2266,521.1781 1455.5391,522.2562 Q1454.8516,523.3187 1454.8516,525.4125 Q1454.8516,527.5062 1455.5391,528.5844 Q1456.2266,529.6469 1457.5703,529.6469 Q1458.1953,529.6469 1458.7891,529.3812 Q1459.3828,529.1 1460.0078,528.5219 L1460.0078,531.2406 Z " fill="#000000"/><text fill="#000000" font-family="sans-serif" font-size="14" lengthAdjust="spacing" textLength="70.7178" x="1477.5391" y="530.4467">PhoneApp</text><line style="stroke:#181818;stroke-width:0.5;" x1="1335.98" x2="1657.3159" y1="541.6" y2="541.6"/><line style="stroke:#181818;stroke-width:0.5;" x1="1335.98" x2="1657.3159" y1="549.6" y2="549.6"/><ellipse cx="1345.98" cy="563.2484" fill="#84BE84" rx="3" ry="3" style="stroke:#038048;stroke-width:1;"/><text fill="#000000" font-family="sans-serif" font-size="14" lengthAdjust="spacing" textLength="297.3359" x="1354.98" y="566.5951">transmitCommand(command : Command)</text><ellipse cx="1345.98" cy="579.5453" fill="#84BE84" rx="3" ry="3" style="stroke:#038048;stroke-width:1;"/><text fill="#000000" font-family="sans-serif" font-size="14" lengthAdjust="spacing" textLength="275.1943" x="1354.98" y="582.892">receiveFeedback(feedback : Feedback)</text></g><!--class Human--><g id="elem_Human"><rect codeLine="70" fill="#F1F1F1" height="96.8906" id="Human" rx="2.5" ry="2.5" style="stroke:#181818;stroke-width:0.5;" width="297.9951" x="1642.65" y="262.37"/><ellipse cx="1762.1524" cy="278.37" fill="#ADD1B2" rx="11" ry="11" style="stroke:#181818;stroke-width:1;"/><path d="M1765.1212,284.0106 Q1764.5431,284.3075 1763.9024,284.4481 Q1763.2618,284.6044 1762.5587,284.6044 Q1760.0587,284.6044 1758.7306,282.9638 Q1757.4181,281.3075 1757.4181,278.1825 Q1757.4181,275.0575 1758.7306,273.4013 Q1760.0587,271.745 1762.5587,271.745 Q1763.2618,271.745 1763.9024,271.9013 Q1764.5587,272.0575 1765.1212,272.3544 L1765.1212,275.0731 Q1764.4962,274.495 1763.9024,274.2294 Q1763.3087,273.9481 1762.6837,273.9481 Q1761.3399,273.9481 1760.6524,275.0263 Q1759.9649,276.0888 1759.9649,278.1825 Q1759.9649,280.2763 1760.6524,281.3544 Q1761.3399,282.4169 1762.6837,282.4169 Q1763.3087,282.4169 1763.9024,282.1513 Q1764.4962,281.87 1765.1212,281.2919 L1765.1212,284.0106 Z " fill="#000000"/><text fill="#000000" font-family="sans-serif" font-size="14" lengthAdjust="spacing" textLength="50.4902" x="1782.6524" y="283.2167">Human</text><line style="stroke:#181818;stroke-width:0.5;" x1="1643.65" x2="1939.6451" y1="294.37" y2="294.37"/><ellipse cx="1653.65" cy="308.0184" fill="none" rx="3" ry="3" style="stroke:#038048;stroke-width:1;"/><text fill="#000000" font-family="sans-serif" font-size="14" lengthAdjust="spacing" textLength="95.1016" x="1662.65" y="311.3651">name : String</text><ellipse cx="1653.65" cy="324.3153" fill="none" rx="3" ry="3" style="stroke:#038048;stroke-width:1;"/><text fill="#000000" font-family="sans-serif" font-size="14" lengthAdjust="spacing" textLength="128.1465" x="1662.65" y="327.662">phone : PhoneApp</text><line style="stroke:#181818;stroke-width:0.5;" x1="1643.65" x2="1939.6451" y1="334.9638" y2="334.9638"/><ellipse cx="1653.65" cy="348.6122" fill="#84BE84" rx="3" ry="3" style="stroke:#038048;stroke-width:1;"/><text fill="#000000" font-family="sans-serif" font-size="14" lengthAdjust="spacing" textLength="271.9951" x="1662.65" y="351.9589">sendCommand(command : Command)</text></g><!--class Event--><g id="elem_Event"><rect codeLine="76" fill="#F1F1F1" height="96.8906" id="Event" rx="2.5" ry="2.5" style="stroke:#181818;stroke-width:0.5;" width="282.6143" x="978.34" y="865.53"/><ellipse cx="1095.3439" cy="881.53" fill="#ADD1B2" rx="11" ry="11" style="stroke:#181818;stroke-width:1;"/><path d="M1098.3127,887.1706 Q1097.7345,887.4675 1097.0939,887.6081 Q1096.4533,887.7644 1095.7502,887.7644 Q1093.2502,887.7644 1091.922,886.1238 Q1090.6095,884.4675 1090.6095,881.3425 Q1090.6095,878.2175 1091.922,876.5613 Q1093.2502,874.905 1095.7502,874.905 Q1096.4533,874.905 1097.0939,875.0613 Q1097.7502,875.2175 1098.3127,875.5144 L1098.3127,878.2331 Q1097.6877,877.655 1097.0939,877.3894 Q1096.5002,877.1081 1095.8752,877.1081 Q1094.5314,877.1081 1093.8439,878.1863 Q1093.1564,879.2488 1093.1564,881.3425 Q1093.1564,883.4363 1093.8439,884.5144 Q1094.5314,885.5769 1095.8752,885.5769 Q1096.5002,885.5769 1097.0939,885.3113 Q1097.6877,885.03 1098.3127,884.4519 L1098.3127,887.1706 Z " fill="#000000"/><text fill="#000000" font-family="sans-serif" font-size="14" lengthAdjust="spacing" textLength="40.1064" x="1115.8439" y="886.3767">Event</text><line style="stroke:#181818;stroke-width:0.5;" x1="979.34" x2="1259.9543" y1="897.53" y2="897.53"/><text fill="#000000" font-family="sans-serif" font-size="14" lengthAdjust="spacing" textLength="200.0059" x="984.34" y="914.5251">Represents events triggered</text><text fill="#000000" font-family="sans-serif" font-size="14" lengthAdjust="spacing" textLength="120.1074" x="984.34" y="930.822">by smart devices</text><line style="stroke:#181818;stroke-width:0.5;" x1="979.34" x2="1259.9543" y1="938.1238" y2="938.1238"/><text fill="#000000" font-family="sans-serif" font-size="14" lengthAdjust="spacing" textLength="270.6143" x="984.34" y="955.1189">(e.g., motion detected, door unlocked)</text></g><!--class Command--><g id="elem_Command"><rect codeLine="82" fill="#F1F1F1" height="48" id="Command" rx="2.5" ry="2.5" style="stroke:#181818;stroke-width:0.5;" width="103.9551" x="1499.67" y="47.74"/><ellipse cx="1514.67" cy="63.74" fill="#ADD1B2" rx="11" ry="11" style="stroke:#181818;stroke-width:1;"/><path d="M1517.6388,69.3806 Q1517.0606,69.6775 1516.42,69.8181 Q1515.7794,69.9744 1515.0763,69.9744 Q1512.5763,69.9744 1511.2481,68.3338 Q1509.9356,66.6775 1509.9356,63.5525 Q1509.9356,60.4275 1511.2481,58.7713 Q1512.5763,57.115 1515.0763,57.115 Q1515.7794,57.115 1516.42,57.2713 Q1517.0763,57.4275 1517.6388,57.7244 L1517.6388,60.4431 Q1517.0138,59.865 1516.42,59.5994 Q1515.8263,59.3181 1515.2013,59.3181 Q1513.8575,59.3181 1513.17,60.3963 Q1512.4825,61.4588 1512.4825,63.5525 Q1512.4825,65.6463 1513.17,66.7244 Q1513.8575,67.7869 1515.2013,67.7869 Q1515.8263,67.7869 1516.42,67.5213 Q1517.0138,67.24 1517.6388,66.6619 L1517.6388,69.3806 Z " fill="#000000"/><text fill="#000000" font-family="sans-serif" font-size="14" lengthAdjust="spacing" textLength="71.9551" x="1528.67" y="68.5867">Command</text><line style="stroke:#181818;stroke-width:0.5;" x1="1500.67" x2="1602.6251" y1="79.74" y2="79.74"/><line style="stroke:#181818;stroke-width:0.5;" x1="1500.67" x2="1602.6251" y1="87.74" y2="87.74"/></g><g id="elem_GMN19"><path d="M1638.29,44.04 L1638.29,67.74 L1603.95,71.74 L1638.29,75.74 L1638.29,99.4384 A0,0 0 0 0 1638.29,99.4384 L1876.9956,99.4384 A0,0 0 0 0 1876.9956,99.4384 L1876.9956,54.04 L1866.9956,44.04 L1638.29,44.04 A0,0 0 0 0 1638.29,44.04 " fill="#FEFFDD" style="stroke:#181818;stroke-width:0.5;"/><path d="M1866.9956,44.04 L1866.9956,54.04 L1876.9956,54.04 L1866.9956,44.04 " fill="#FEFFDD" style="stroke:#181818;stroke-width:0.5;"/><text fill="#000000" font-family="sans-serif" font-size="13" lengthAdjust="spacing" textLength="186.8623" x="1644.29" y="61.1069">Represents a command sent</text><text fill="#000000" font-family="sans-serif" font-size="13" lengthAdjust="spacing" textLength="209.4409" x="1648.4223" y="76.2397">from the Human via Middleware</text><text fill="#000000" font-family="sans-serif" font-size="13" lengthAdjust="spacing" textLength="111.7441" x="1648.4223" y="91.3725">to the Main Node</text></g><!--class Feedback--><g id="elem_Feedback"><rect codeLine="89" fill="#F1F1F1" height="48" id="Feedback" rx="2.5" ry="2.5" style="stroke:#181818;stroke-width:0.5;" width="99.4365" x="1103.93" y="47.74"/><ellipse cx="1118.93" cy="63.74" fill="#ADD1B2" rx="11" ry="11" style="stroke:#181818;stroke-width:1;"/><path d="M1121.8988,69.3806 Q1121.3206,69.6775 1120.68,69.8181 Q1120.0394,69.9744 1119.3363,69.9744 Q1116.8363,69.9744 1115.5081,68.3338 Q1114.1956,66.6775 1114.1956,63.5525 Q1114.1956,60.4275 1115.5081,58.7713 Q1116.8363,57.115 1119.3363,57.115 Q1120.0394,57.115 1120.68,57.2713 Q1121.3363,57.4275 1121.8988,57.7244 L1121.8988,60.4431 Q1121.2738,59.865 1120.68,59.5994 Q1120.0863,59.3181 1119.4613,59.3181 Q1118.1175,59.3181 1117.43,60.3963 Q1116.7425,61.4588 1116.7425,63.5525 Q1116.7425,65.6463 1117.43,66.7244 Q1118.1175,67.7869 1119.4613,67.7869 Q1120.0863,67.7869 1120.68,67.5213 Q1121.2738,67.24 1121.8988,66.6619 L1121.8988,69.3806 Z " fill="#000000"/><text fill="#000000" font-family="sans-serif" font-size="14" lengthAdjust="spacing" textLength="67.4365" x="1132.93" y="68.5867">Feedback</text><line style="stroke:#181818;stroke-width:0.5;" x1="1104.93" x2="1202.3665" y1="79.74" y2="79.74"/><line style="stroke:#181818;stroke-width:0.5;" x1="1104.93" x2="1202.3665" y1="87.74" y2="87.74"/></g><g id="elem_GMN23"><path d="M1238.03,44.04 L1238.03,67.74 L1203.54,71.74 L1238.03,75.74 L1238.03,99.4384 A0,0 0 0 0 1238.03,99.4384 L1459.2478,99.4384 A0,0 0 0 0 1459.2478,99.4384 L1459.2478,54.04 L1449.2478,44.04 L1238.03,44.04 A0,0 0 0 0 1238.03,44.04 " fill="#FEFFDD" style="stroke:#181818;stroke-width:0.5;"/><path d="M1449.2478,44.04 L1449.2478,54.04 L1459.2478,54.04 L1449.2478,44.04 " fill="#FEFFDD" style="stroke:#181818;stroke-width:0.5;"/><text fill="#000000" font-family="sans-serif" font-size="13" lengthAdjust="spacing" textLength="169.5967" x="1244.03" y="61.1069">Represents feedback sent</text><text fill="#000000" font-family="sans-serif" font-size="13" lengthAdjust="spacing" textLength="129.2319" x="1252.2946" y="76.2397">from the Main Node</text><text fill="#000000" font-family="sans-serif" font-size="13" lengthAdjust="spacing" textLength="191.9531" x="1252.2946" y="91.3725">to the Human via Middleware</text></g><!--link MainNode to Room--><g id="link_MainNode_Room"><path codeLine="103" d="M978.42,352.09 C899.49,375.2 800.39,405.96 713.64,438.15 C676.1,452.09 636.11,468.67 599.24,484.71 " fill="none" id="MainNode-Room" style="stroke:#181818;stroke-width:1;"/><polygon fill="#000000" points="713.9203,448.3671,723.4285,448.1551,721.488,442.6068,713.9203,448.3671" style="stroke:#000000;stroke-width:1;"/><text fill="#000000" font-family="sans-serif" font-size="13" lengthAdjust="spacing" textLength="59.8584" x="727.64" y="451.2169">manages</text><text fill="#000000" font-family="sans-serif" font-size="13" lengthAdjust="spacing" textLength="6.5" x="607.3525" y="474.2884">*</text></g><!--link MainNode to SmartDevice--><g id="link_MainNode_SmartDevice"><path codeLine="104" d="M1067.24,408.3 C1017.76,493.93 951.72,606.73 942.64,614.64 C902.94,649.24 852.21,675.28 804.06,694.35 " fill="none" id="MainNode-SmartDevice" style="stroke:#181818;stroke-width:1;"/><polygon fill="#000000" points="1023.2546,553.646,1031.5416,548.9795,1027.216,544.9997,1023.2546,553.646" style="stroke:#000000;stroke-width:1;"/><text fill="#000000" font-family="sans-serif" font-size="13" lengthAdjust="spacing" textLength="59.8584" x="1035.64" y="554.4669">manages</text><text fill="#000000" font-family="sans-serif" font-size="13" lengthAdjust="spacing" textLength="6.5" x="811.7936" y="688.8415">*</text></g><!--reverse link MainNode to HomeAssistant--><g id="link_MainNode_HomeAssistant"><path codeLine="105" d="M967.0149,361.6185 C913.4949,381.9885 865.07,404.76 815.64,438.15 C779.15,462.81 745.09,501.32 725.32,525.82 " fill="none" id="MainNode-backto-HomeAssistant" style="stroke:#181818;stroke-width:1;"/><polygon fill="#181818" points="978.23,357.35,971.1996,355.7459,967.0149,361.6185,974.0453,363.2227,978.23,357.35" style="stroke:#181818;stroke-width:1;"/><polygon fill="#000000" points="816.5042,449.5262,825.6375,446.8742,822.3344,442.0123,816.5042,449.5262" style="stroke:#000000;stroke-width:1;"/><text fill="#000000" font-family="sans-serif" font-size="13" lengthAdjust="spacing" textLength="53.8726" x="829.64" y="451.2169">includes</text></g><!--reverse link MainNode to DataLogger--><g id="link_MainNode_DataLogger"><path codeLine="106" d="M968.0957,379.312 C939.5157,396.872 922.24,412.19 901.64,438.15 C881.32,463.77 873.5,501.67 870.5,525.81 " fill="none" id="MainNode-backto-DataLogger" style="stroke:#181818;stroke-width:1;"/><polygon fill="#181818" points="978.32,373.03,971.1138,372.7629,968.0957,379.312,975.3018,379.5791,978.32,373.03" style="stroke:#181818;stroke-width:1;"/><polygon fill="#000000" points="903.8679,450.8776,911.3286,444.9794,906.4368,441.7205,903.8679,450.8776" style="stroke:#000000;stroke-width:1;"/><text fill="#000000" font-family="sans-serif" font-size="13" lengthAdjust="spacing" textLength="53.8726" x="915.64" y="451.2169">includes</text></g><!--reverse link Room to SmartDevice--><g id="link_Room_SmartDevice"><path codeLine="110" d="M532.3002,623.6204 C557.1902,648.5404 576.71,668.08 599.78,691.18 " fill="none" id="Room-backto-SmartDevice" style="stroke:#181818;stroke-width:1;"/><polygon fill="#181818" points="523.82,615.13,525.23,622.2019,532.3002,623.6204,530.8902,616.5485,523.82,615.13" style="stroke:#181818;stroke-width:1;"/><polygon fill="#000000" points="574.1734,656.744,569.8607,648.2675,565.702,652.4213,574.1734,656.744" style="stroke:#000000;stroke-width:1;"/><text fill="#000000" font-family="sans-serif" font-size="13" lengthAdjust="spacing" textLength="55.0278" x="579.64" y="657.7069">contains</text><text fill="#000000" font-family="sans-serif" font-size="13" lengthAdjust="spacing" textLength="6.5" x="586.9782" y="680.6764">*</text></g><!--reverse link SmartDevice to SmartLight--><g id="link_SmartDevice_SmartLight"><path codeLine="113" d="M473.3434,767.7465 C369.1234,786.7965 248.47,815.61 133.64,865.53 C119.09,871.86 104.25,881.08 91.84,889.71 " fill="none" id="SmartDevice-backto-SmartLight" style="stroke:#181818;stroke-width:1;"/><polygon fill="none" points="491.05,764.51,472.2645,761.8443,474.4222,773.6487,491.05,764.51" style="stroke:#181818;stroke-width:1;"/></g><!--reverse link SmartDevice to SmartThermostat--><g id="link_SmartDevice_SmartThermostat"><path codeLine="114" d="M497.5785,795.2399 C438.5885,817.2799 385.54,838.26 323.64,865.53 C306.94,872.89 288.95,881.65 273.16,889.63 " fill="none" id="SmartDevice-backto-SmartThermostat" style="stroke:#181818;stroke-width:1;"/><polygon fill="none" points="514.44,788.94,495.4785,789.6193,499.6784,800.8604,514.44,788.94" style="stroke:#181818;stroke-width:1;"/></g><!--reverse link SmartDevice to SmartCamera--><g id="link_SmartDevice_SmartCamera"><path codeLine="115" d="M565.5551,799.3934 C519.4051,832.1734 474.89,863.79 438.65,889.53 " fill="none" id="SmartDevice-backto-SmartCamera" style="stroke:#181818;stroke-width:1;"/><polygon fill="none" points="580.23,788.97,562.0807,794.5018,569.0296,804.2851,580.23,788.97" style="stroke:#181818;stroke-width:1;"/></g><!--reverse link SmartDevice to SmartSpeaker--><g id="link_SmartDevice_SmartSpeaker"><path codeLine="116" d="M619.1926,805.4333 C604.7026,838.2133 593.39,863.79 582.01,889.53 " fill="none" id="SmartDevice-backto-SmartSpeaker" style="stroke:#181818;stroke-width:1;"/><polygon fill="none" points="626.47,788.97,613.7048,803.0075,624.6804,807.8591,626.47,788.97" style="stroke:#181818;stroke-width:1;"/></g><!--reverse link SmartDevice to SmartPlug--><g id="link_SmartDevice_SmartPlug"><path codeLine="117" d="M676.4511,805.396 C691.1411,838.176 702.61,863.79 714.14,889.53 " fill="none" id="SmartDevice-backto-SmartPlug" style="stroke:#181818;stroke-width:1;"/><polygon fill="none" points="669.09,788.97,670.9758,807.8497,681.9265,802.9423,669.09,788.97" style="stroke:#181818;stroke-width:1;"/></g><!--reverse link SmartDevice to SmartVacuum--><g id="link_SmartDevice_SmartVacuum"><path codeLine="118" d="M726.1293,799.7442 C769.9993,832.5242 811.83,863.79 846.28,889.53 " fill="none" id="SmartDevice-backto-SmartVacuum" style="stroke:#181818;stroke-width:1;"/><polygon fill="none" points="711.71,788.97,722.5379,804.5506,729.7207,794.9378,711.71,788.97" style="stroke:#181818;stroke-width:1;"/></g><!--link SmartDevice to Event--><g id="link_SmartDevice_Event"><path codeLine="121" d="M804.13,761.91 C864.84,773.62 933.78,791.52 992.64,818.53 C1018.62,830.45 1044.45,848.27 1065.96,865.23 " fill="none" id="SmartDevice-Event" style="stroke:#181818;stroke-width:1;"/><polygon fill="#000000" points="1033.291,828.9317,1025.956,822.8778,1023.7985,828.3454,1033.291,828.9317" style="stroke:#000000;stroke-width:1;"/><text fill="#000000" font-family="sans-serif" font-size="13" lengthAdjust="spacing" textLength="50.6733" x="1037.64" y="831.5969">triggers</text><text fill="#000000" font-family="sans-serif" font-size="13" lengthAdjust="spacing" textLength="6.5" x="1052.0235" y="854.3967">*</text></g><!--link SmartDevice to Event--><g id="link_SmartDevice_Event"><path codeLine="124" d="M779.12,788.97 C844.32,812.71 922.84,841.31 988.05,865.05 " fill="none" id="SmartDevice-Event-1" style="stroke:#181818;stroke-width:1;"/><polygon fill="#000000" points="898.9418,825.3856,906.4353,831.242,908.4465,825.7189,898.9418,825.3856" style="stroke:#000000;stroke-width:1;"/><text fill="#000000" font-family="sans-serif" font-size="13" lengthAdjust="spacing" textLength="54.5645" x="912.64" y="831.5969">recieves</text><text fill="#000000" font-family="sans-serif" font-size="13" lengthAdjust="spacing" textLength="6.5" x="963.9971" y="854.5437">*</text></g><!--link MainNode to Event--><g id="link_MainNode_Event"><path codeLine="122" d="M1119.79,408.33 C1118,478.57 1116.13,575.99 1116.64,661.64 C1117.07,732.55 1118.16,814.71 1118.9,865.26 " fill="none" id="MainNode-Event" style="stroke:#181818;stroke-width:1;"/><polygon fill="#000000" points="1121.6303,658.2064,1124.5868,649.1671,1118.709,649.1556,1121.6303,658.2064" style="stroke:#000000;stroke-width:1;"/><text fill="#000000" font-family="sans-serif" font-size="13" lengthAdjust="spacing" textLength="50.6733" x="1130.64" y="657.7069">triggers</text><text fill="#000000" font-family="sans-serif" font-size="13" lengthAdjust="spacing" textLength="6.5" x="1112.4082" y="854.431">*</text></g><!--link MainNode to Event--><g id="link_MainNode_Event"><path codeLine="125" d="M1155.66,408.6 C1175.7,478.56 1195.66,575.52 1185.64,661.64 C1177.23,734.01 1153.16,815.1 1136.54,865.1 " fill="none" id="MainNode-Event-1" style="stroke:#181818;stroke-width:1;"/><polygon fill="#000000" points="1192.8492,648.2108,1189.5344,657.125,1195.4071,657.3709,1192.8492,648.2108" style="stroke:#000000;stroke-width:1;"/><text fill="#000000" font-family="sans-serif" font-size="13" lengthAdjust="spacing" textLength="54.5645" x="1201.64" y="657.7069">recieves</text><text fill="#000000" font-family="sans-serif" font-size="13" lengthAdjust="spacing" textLength="6.5" x="1132.4404" y="854.6004">*</text></g><!--link Human to PhoneApp--><g id="link_Human_PhoneApp"><path codeLine="129" d="M1732.3,359.51 C1677.62,403.45 1597.4,467.92 1546.11,509.15 " fill="none" id="Human-PhoneApp" style="stroke:#181818;stroke-width:1;"/><polygon fill="#000000" points="1627.7427,449.8487,1636.6341,446.4731,1632.9519,441.8916,1627.7427,449.8487" style="stroke:#000000;stroke-width:1;"/><text fill="#000000" font-family="sans-serif" font-size="13" lengthAdjust="spacing" textLength="29.7832" x="1640.64" y="451.2169">uses</text></g><!--link MainNode to PhoneApp--><g id="link_MainNode_PhoneApp"><path codeLine="130" d="M1216.12,408.29 C1235.19,425.17 1255.82,441.62 1276.64,455.15 C1309.28,476.36 1347.52,494.61 1382.88,509.22 " fill="none" id="MainNode-PhoneApp" style="stroke:#181818;stroke-width:1;"/><polygon fill="#000000" points="1277.3625,444.1275,1283.5789,451.3252,1286.6223,446.2966,1277.3625,444.1275" style="stroke:#000000;stroke-width:1;"/><text fill="#000000" font-family="sans-serif" font-size="13" lengthAdjust="spacing" textLength="95.5005" x="1290.64" y="451.2169">communicates</text></g><!--link Feedback to PhoneApp--><g id="link_Feedback_PhoneApp"><path codeLine="131" d="M1177.8,95.93 C1205.24,122.89 1250.61,169.33 1284.64,213.48 C1362.44,314.43 1438.51,444.64 1474.72,509.1 " fill="none" id="Feedback-PhoneApp" style="stroke:#181818;stroke-width:1;"/><polygon fill="#000000" points="1416.7221,306.8261,1419.614,315.8863,1424.3872,312.4562,1416.7221,306.8261" style="stroke:#000000;stroke-width:1;"/><text fill="#000000" font-family="sans-serif" font-size="13" lengthAdjust="spacing" textLength="54.5645" x="1428.64" y="315.3869">recieves</text></g><!--link Command to PhoneApp--><g id="link_Command_PhoneApp"><path codeLine="132" d="M1548.95,96.03 C1540.18,172.02 1512.3,413.37 1501.23,509.16 " fill="none" id="Command-PhoneApp" style="stroke:#181818;stroke-width:1;"/><polygon fill="#000000" points="1541.2137,305.9194,1537.2563,314.5675,1543.0954,315.242,1541.2137,305.9194" style="stroke:#000000;stroke-width:1;"/><text fill="#000000" font-family="sans-serif" font-size="13" lengthAdjust="spacing" textLength="38.0352" x="1549.64" y="315.3869">sends</text></g><!--link Feedback to MainNode--><g id="link_Feedback_MainNode"><path codeLine="133" d="M1150.61,95.9 C1147.05,123.17 1140.9,170.19 1135.27,213.22 " fill="none" id="Feedback-MainNode" style="stroke:#181818;stroke-width:1;"/><polygon fill="#000000" points="1145.9918,180.0042,1150.0786,171.4165,1144.2503,170.6544,1145.9918,180.0042" style="stroke:#000000;stroke-width:1;"/><text fill="#000000" font-family="sans-serif" font-size="13" lengthAdjust="spacing" textLength="38.0352" x="1155.64" y="179.5469">sends</text></g><!--link Command to MainNode--><g id="link_Command_MainNode"><path codeLine="134" d="M1527.2,96.23 C1513.1,109.06 1494.65,124.69 1476.64,136.48 C1410.96,179.51 1333.03,218.79 1267.04,249.04 " fill="none" id="Command-MainNode" style="stroke:#181818;stroke-width:1;"/><polygon fill="#000000" points="1423.3287,177.5787,1432.6164,175.5318,1429.6395,170.4636,1423.3287,177.5787" style="stroke:#000000;stroke-width:1;"/><text fill="#000000" font-family="sans-serif" font-size="13" lengthAdjust="spacing" textLength="54.5645" x="1436.64" y="179.5469">recieves</text></g><!--SRC=[hLLHJzim47xlhx1uQSSeFw3gaA0KWLGsHDcGzkRQrzGYiIFRAQes_llEZfqu9K2dBG-jVVVv_FdytNb8lhpx3OOaVdDP5Q2f5KeQD7-mRW089pCb9J2tv65N0larS84UnPNmWvyYMm7Km_4ZtTR3Yxm2gvJT-DdSRa1Bi8EN4F9EFODUgagp6E-2MWjwvyUtL20xDrggd6e_-kP2kFN3mm-Btoodni0XHsKEwRV-gdXazPbylo5Bq5lGONv9BIKBbMMDPQdMzfbg81DohGeWvyO8OwcqmKyvluIjO33Y_Wznou9gMni_1PI6GctX0226krUg66dyGOGRTsEyvIsfq0V4h-I7m9UOBHU-oPIa1Ipe2d87jrh8B3WAOHWQAcRtFQQDQj2tmBnDavtE_dS66-A9jU7FkZ8FTBhYZunAfr_W5xi8ImGTCHigUGxpBKWx0lUBM3_Rvx4GsSQcXWUKUg5GGnthZBhAJItB4kWJwZ0ntULLbiv_K5PLHTpEwREHPpZuaDo2tIXk2F8bM8LQh2gBzy6e92iW7DP20deCaG0SUClUrK9T2lyUwswZ99oNPNCTLbDf2c5dgYWmseZL_vZ4O6dldO7OmXK6N57sD5g70IAZBSduTOLhEvhT5sNfcA0nCefQ1SdVuT9iuAyuR70FfGPSQ0tn2Z1uAk7oXJdmWDMkhW72Gn5uwmXEizCJKYWdEtHP523m4yALqbYVkM9Fa6uPIE2cBmEfB13j54NKEde6NIwKn0EukTzohR6IiSM6_6m59RU2etvzP_CGgpp0TKZYMYHsSaxSTe55J7PzzbTK6lSUcUQwtBJUgMNJR1OSWKCVoPREtpmHzv3NZ-56b8Uy4iFsXS12Kao4fxInZiVawFYexemJWZHfXjTwzWgGTg1Ut342k_Kw8KAolEAlSKaXTa2EhsU2EYYL4Oxhm1kEUsbW2xJkxNLBXntVZSIU9906Wq5gd_x6G4aNw_Sb3QqV47fRlpEskNwlxtZzhjZykaTnkc-oXuAg2pQvpKwqaATvQE2XVjCRU1lnNY3iMW9xWY7Jjm8b27U4MlEEVDCgKywr6qCqtWcfZ5T1OncFg_Ra4zy4AYaOjLqO6LVZjbmJ8lkOMTC6NNFig78_HWsOxW7Q0ErX_m00]--></g></svg>